<svg width="32" height="32" viewBox="0 0 32 32" fill="none" xmlns="http://www.w3.org/2000/svg">
<path d="M22.4508 6C23.1788 5.99939 23.8997 6.14413 24.5711 6.42575C25.2425 6.70736 25.851 7.12018 26.3608 7.64C27.4112 8.70638 28 10.1432 28 11.64C28 13.1368 27.4112 14.5736 26.3608 15.64L16.0008 26.13L5.64075 15.64C4.59033 14.5736 4.00154 13.1368 4.00154 11.64C4.00154 10.1432 4.59033 8.70638 5.64075 7.64C6.15084 7.12055 6.75933 6.70795 7.43066 6.42629C8.102 6.14464 8.82273 5.99957 9.55075 5.99957C10.2788 5.99957 10.9995 6.14464 11.6708 6.42629C12.3422 6.70795 12.9507 7.12055 13.4608 7.64L16.0008 10.24L18.5308 7.66C19.039 7.13398 19.6481 6.71586 20.3216 6.43064C20.9952 6.14542 21.7193 5.99895 22.4508 6V6ZM22.4508 4C21.4564 3.99916 20.4718 4.19686 19.5549 4.5815C18.6379 4.96615 17.8069 5.53 17.1108 6.24L16.0008 7.36L14.8908 6.24C14.1937 5.53129 13.3625 4.96841 12.4457 4.58419C11.5289 4.19997 10.5448 4.0021 9.55075 4.0021C8.55669 4.0021 7.57257 4.19997 6.65576 4.58419C5.73896 4.96841 4.9078 5.53129 4.21075 6.24C2.79263 7.68363 1.99805 9.62636 1.99805 11.65C1.99805 13.6736 2.79263 15.6164 4.21075 17.06L16.0008 29L27.7908 17.06C29.2089 15.6164 30.0035 13.6736 30.0035 11.65C30.0035 9.62636 29.2089 7.68363 27.7908 6.24C27.0939 5.53091 26.2628 4.96765 25.346 4.58306C24.4292 4.19848 23.445 4.00028 22.4508 4V4Z" fill="#F95F92"/>
</svg>
