<svg width="54" height="51" viewBox="0 0 54 51" fill="none" xmlns="http://www.w3.org/2000/svg">
<path d="M51.7549 18.0688L35.8862 15.7626L28.7924 1.38132C28.5987 0.987572 28.2799 0.668822 27.8862 0.475072C26.8987 -0.012428 25.6987 0.393822 25.2049 1.38132L18.1112 15.7626L2.2424 18.0688C1.8049 18.1313 1.4049 18.3376 1.09865 18.6501C0.728413 19.0306 0.524394 19.5426 0.531426 20.0735C0.538458 20.6043 0.755964 21.1107 1.13615 21.4813L12.6174 32.6751L9.9049 48.4813C9.84129 48.849 9.88198 49.2272 10.0224 49.5729C10.1627 49.9186 10.3972 50.2181 10.6991 50.4374C11.001 50.6567 11.3583 50.787 11.7305 50.8135C12.1027 50.8401 12.4749 50.7618 12.8049 50.5876L26.9987 43.1251L41.1924 50.5876C41.5799 50.7938 42.0299 50.8626 42.4612 50.7876C43.5487 50.6001 44.2799 49.5688 44.0924 48.4813L41.3799 32.6751L52.8612 21.4813C53.1737 21.1751 53.3799 20.7751 53.4424 20.3376C53.6112 19.2438 52.8487 18.2313 51.7549 18.0688Z" fill="#2083B5"/>
</svg>
