<svg width="36" height="36" viewBox="0 0 36 36" fill="none" xmlns="http://www.w3.org/2000/svg">
<path fill-rule="evenodd" clip-rule="evenodd" d="M18 0C8.05909 0 0 8.05909 0 18C0 27.9409 8.05909 36 18 36C27.9409 36 36 27.9409 36 18C36 8.05909 27.9409 0 18 0ZM24.066 14.2478C24.3641 13.9392 24.529 13.5258 24.5253 13.0968C24.5216 12.6677 24.3495 12.2573 24.0461 11.9539C23.7427 11.6505 23.3323 11.4784 22.9032 11.4747C22.4742 11.471 22.0608 11.6359 21.7522 11.934L18 15.6862L14.2478 11.934C14.0969 11.7777 13.9163 11.653 13.7167 11.5673C13.517 11.4815 13.3023 11.4364 13.085 11.4345C12.8677 11.4326 12.6523 11.474 12.4512 11.5563C12.2501 11.6386 12.0674 11.7601 11.9137 11.9137C11.7601 12.0674 11.6386 12.2501 11.5563 12.4512C11.474 12.6523 11.4326 12.8677 11.4345 13.085C11.4364 13.3023 11.4815 13.517 11.5673 13.7167C11.653 13.9163 11.7777 14.0969 11.934 14.2478L15.6862 18L11.934 21.7522C11.7777 21.9031 11.653 22.0837 11.5673 22.2833C11.4815 22.483 11.4364 22.6977 11.4345 22.915C11.4326 23.1323 11.474 23.3477 11.5563 23.5488C11.6386 23.7499 11.7601 23.9326 11.9137 24.0863C12.0674 24.2399 12.2501 24.3614 12.4512 24.4437C12.6523 24.526 12.8677 24.5674 13.085 24.5655C13.3023 24.5636 13.517 24.5185 13.7167 24.4327C13.9163 24.347 14.0969 24.2223 14.2478 24.066L18 20.3138L21.7522 24.066C22.0608 24.3641 22.4742 24.529 22.9032 24.5253C23.3323 24.5216 23.7427 24.3495 24.0461 24.0461C24.3495 23.7427 24.5216 23.3323 24.5253 22.9032C24.529 22.4742 24.3641 22.0608 24.066 21.7522L20.3138 18L24.066 14.2478Z" fill="#E15B7E"/>
</svg>
