<svg width="48" height="49" viewBox="0 0 48 49" fill="none" xmlns="http://www.w3.org/2000/svg">
<g clip-path="url(#clip0)">
<path d="M16.5 29.033C16.728 31.895 18.99 34.124 23.046 34.388V36.5H24.846V34.373C29.046 34.079 31.5 31.835 31.5 28.577C31.5 25.616 29.622 24.089 26.265 23.297L24.846 22.961V17.21C26.646 17.414 27.792 18.398 28.068 19.76H31.224C30.996 17.003 28.632 14.846 24.846 14.612V12.5H23.046V14.657C19.461 15.008 17.016 17.165 17.016 20.216C17.016 22.916 18.834 24.632 21.855 25.337L23.046 25.631V31.733C21.201 31.454 19.98 30.443 19.704 29.033H16.5ZM23.031 22.535C21.261 22.124 20.301 21.287 20.301 20.027C20.301 18.617 21.336 17.561 23.046 17.252V22.532H23.031V22.535ZM25.107 26.114C27.258 26.612 28.251 27.419 28.251 28.844C28.251 30.47 27.015 31.586 24.846 31.79V26.054L25.107 26.114Z" fill="#A190FF"/>
<path d="M24 45.5C18.4305 45.5 13.089 43.2875 9.15076 39.3492C5.21249 35.411 3 30.0695 3 24.5C3 18.9305 5.21249 13.589 9.15076 9.65076C13.089 5.71249 18.4305 3.5 24 3.5C29.5695 3.5 34.911 5.71249 38.8492 9.65076C42.7875 13.589 45 18.9305 45 24.5C45 30.0695 42.7875 35.411 38.8492 39.3492C34.911 43.2875 29.5695 45.5 24 45.5ZM24 48.5C30.3652 48.5 36.4697 45.9714 40.9706 41.4706C45.4714 36.9697 48 30.8652 48 24.5C48 18.1348 45.4714 12.0303 40.9706 7.52944C36.4697 3.02856 30.3652 0.5 24 0.5C17.6348 0.5 11.5303 3.02856 7.02944 7.52944C2.52856 12.0303 0 18.1348 0 24.5C0 30.8652 2.52856 36.9697 7.02944 41.4706C11.5303 45.9714 17.6348 48.5 24 48.5Z" fill="#A190FF"/>
<path d="M24 41C19.6239 41 15.4271 39.2616 12.3327 36.1673C9.23839 33.0729 7.5 28.8761 7.5 24.5C7.5 20.1239 9.23839 15.9271 12.3327 12.8327C15.4271 9.73839 19.6239 8 24 8C28.3761 8 32.5729 9.73839 35.6673 12.8327C38.7616 15.9271 40.5 20.1239 40.5 24.5C40.5 28.8761 38.7616 33.0729 35.6673 36.1673C32.5729 39.2616 28.3761 41 24 41ZM24 42.5C26.3638 42.5 28.7044 42.0344 30.8883 41.1298C33.0722 40.2252 35.0565 38.8994 36.7279 37.2279C38.3994 35.5565 39.7253 33.5722 40.6298 31.3883C41.5344 29.2044 42 26.8638 42 24.5C42 22.1362 41.5344 19.7956 40.6298 17.6117C39.7253 15.4278 38.3994 13.4435 36.7279 11.7721C35.0565 10.1006 33.0722 8.77475 30.8883 7.87017C28.7044 6.96558 26.3638 6.5 24 6.5C19.2261 6.5 14.6477 8.39642 11.2721 11.7721C7.89642 15.1477 6 19.7261 6 24.5C6 29.2739 7.89642 33.8523 11.2721 37.2279C14.6477 40.6036 19.2261 42.5 24 42.5Z" fill="#A190FF"/>
</g>
<defs>
<clipPath id="clip0">
<rect width="48" height="48" fill="white" transform="translate(0 0.5)"/>
</clipPath>
</defs>
</svg>
