<svg width="1440" height="496" viewBox="0 0 1440 496" fill="none" xmlns="http://www.w3.org/2000/svg">
<rect width="1440" height="300" transform="translate(0 312)" fill="#B2E4EB"/>
<path fill-rule="evenodd" clip-rule="evenodd" d="M899.859 101.676C1009.6 119.318 1060.24 183.224 1155.57 216.685C1238.02 245.625 1348.15 251.505 1422.28 285.049C1497.15 318.927 1518.13 367.959 1577.18 407.458C1650.61 456.581 1825.08 494.058 1815.15 547.847C1804.41 606.043 1573.84 594.93 1532.76 648.052C1491.61 701.28 1639.09 773.451 1599.32 826.986C1563.39 875.339 1454.11 917.423 1335.8 913.181C1195.7 908.158 1095.51 802.286 957.465 803.973C808.891 805.789 781.665 914.526 635.805 921.737C514.476 927.736 392.765 874.046 283.868 837.277C171.751 799.42 40.8162 760.587 -11.633 703.129C-65.6403 643.964 29.0669 585.785 -1.33072 524.843C-31.5455 464.267 -172.44 414.074 -186.025 353.499C-199.504 293.402 -149.831 235.863 -75.9075 192.323C-2.76675 149.245 108.485 120.1 230.171 108.366C346.23 97.174 477.085 128.448 599.126 127.228C704.568 126.175 794.384 84.719 899.859 101.676Z" fill="#6ECFE4"/>
<mask id="mask0" style="mask-type:alpha" maskUnits="userSpaceOnUse" x="-237" y="0" width="2087" height="1034">
<path fill-rule="evenodd" clip-rule="evenodd" d="M899.859 101.676C1009.6 119.318 1060.24 183.224 1155.57 216.685C1238.02 245.625 1348.15 251.505 1422.28 285.049C1497.15 318.927 1518.13 367.959 1577.18 407.458C1650.61 456.581 1825.08 494.058 1815.15 547.847C1804.41 606.043 1573.84 594.93 1532.76 648.052C1491.61 701.28 1639.09 773.451 1599.32 826.986C1563.39 875.339 1454.11 917.423 1335.8 913.181C1195.7 908.158 1095.51 802.286 957.465 803.973C808.891 805.789 781.665 914.526 635.805 921.737C514.476 927.736 392.765 874.046 283.868 837.277C171.751 799.42 40.8162 760.587 -11.633 703.129C-65.6403 643.964 29.0669 585.785 -1.33072 524.843C-31.5455 464.267 -172.44 414.074 -186.025 353.499C-199.504 293.402 -149.831 235.863 -75.9075 192.323C-2.76675 149.245 108.485 120.1 230.171 108.366C346.23 97.174 477.085 128.448 599.126 127.228C704.568 126.175 794.384 84.719 899.859 101.676Z" fill="#6ECFE4"/>
</mask>
<g mask="url(#mask0)">
<path d="M1560.59 2.77605L-202.783 0.195785C-192.035 36.3204 -66.1395 341.122 -51.3112 378.214C-27.5355 393.696 -6.52637 404.017 17.6243 421.757C51.9041 447.238 85.6686 466.59 119.866 491.426C156.901 518.519 195.273 543.678 232.332 568.191C247.408 578.19 262.661 588.188 278.077 599.477C288.91 607.218 300 615.604 310.95 624.958C323.342 635.279 347.762 652.374 358.465 669.469C374.188 666.566 383.287 657.212 389.912 644.311C390.088 644.311 389.959 643.988 390.135 643.988C390.58 643.343 390.897 642.375 391.167 641.73C397.217 629.151 401.099 613.347 406.306 596.897C413.143 575.287 425.76 561.095 430.24 537.549C430.334 536.904 430.475 535.937 430.569 535.292C434.533 515.294 439.329 500.457 450.597 489.491C472.558 467.88 505.176 463.687 522.847 435.304C552.494 472.074 578.758 455.946 607.973 482.395C633.332 483.362 663.17 499.49 691.963 514.326C721.238 529.486 748.789 535.937 779.727 566.256C786.656 573.029 793.584 579.802 800.513 586.576C826.222 611.734 852.682 636.57 877.947 652.697C882.628 616.894 895.656 581.738 914.205 563.03C925.567 551.419 939.883 543.678 948.818 528.196C949.533 526.906 950.249 525.615 950.964 524.325C954.2 526.26 957.658 527.873 960.988 529.163C970.93 533.356 981.141 536.904 991.188 548.838C1006.43 545.613 1015.83 526.906 1023.06 511.101C1029.25 497.554 1037.89 485.298 1048.43 476.912C1053.61 472.719 1059.18 469.493 1065.09 467.558C1081.77 461.752 1090.97 455.301 1103.18 442.722C1116.67 428.53 1134.96 428.53 1150.36 418.209C1155.57 414.984 1192.34 452.399 1203.33 461.43C1214.64 470.783 1226.01 477.234 1237.02 489.813C1237.56 469.171 1253.68 461.107 1263.9 453.689C1276.34 444.335 1286.11 434.014 1301.75 430.466C1313.21 427.885 1323.38 444.98 1338.26 452.721C1346.44 456.914 1353.12 456.914 1361.78 462.72C1375.95 446.27 1395.06 447.883 1412.7 437.884C1420.92 433.369 1449.04 449.173 1462.07 457.559C1479.9 469.171 1497.92 479.492 1512.34 479.492C1526.94 479.492 1535.57 458.849 1545.93 450.463C1561.57 437.239 1582.18 433.369 1597.91 420.789C1612.83 408.855 1626.38 399.179 1645.76 395.309C1661.7 392.083 1691.81 388.213 1700.78 373.698C1698.35 355.314 1679.04 318.866 1671.71 297.901C1667.04 284.032 1566.8 15.6777 1560.59 2.77605Z" fill="url(#paint0_linear)"/>
<path d="M-88.026 -66.8045L1486.61 -69C1502.2 -38.2634 1602.26 221.076 1614.88 252.636C1604.42 265.809 1592.84 274.591 1583.62 289.684C1570.75 311.365 1554.06 327.831 1540.81 348.962C1526.6 372.014 1509.85 393.42 1493.82 414.277C1487.31 422.785 1480.65 431.292 1474.74 440.897C1470.46 447.484 1466.39 454.619 1463.13 462.577C1459.25 471.359 1449.34 485.904 1451.7 500.449C1435.62 497.979 1420.96 490.021 1406.04 479.043C1405.88 479.043 1405.77 478.769 1405.61 478.769C1404.76 478.22 1403.81 477.397 1403.12 476.848C1388.93 466.145 1374.44 452.698 1358.31 438.702C1337.12 420.315 1315.94 408.24 1295.51 388.206C1294.98 387.657 1294.18 386.834 1293.65 386.285C1276.15 369.27 1261.52 356.646 1243.79 347.315C1209.09 328.928 1177 325.361 1141.41 301.211C1140.55 332.496 1105.82 318.774 1098.15 341.278C1076.15 342.101 1060.73 355.823 1045.34 368.447C1029.74 381.345 1009.61 386.834 1003.1 412.631C1001.63 418.394 1000.16 424.157 998.692 429.92C993.256 451.326 986.925 472.457 975.588 486.179C946.43 455.717 910.26 425.803 880.628 409.886C862.371 400.007 844.174 393.42 825.386 380.247C823.847 379.15 822.308 378.052 820.768 376.954C819.225 378.601 817.258 379.973 815.182 381.071C809.219 384.638 802.564 387.657 801.907 397.811C786.031 395.067 764.575 379.15 747.093 365.702C732.108 354.176 715.833 343.748 700.56 336.612C693.002 333.045 685.774 330.301 679.141 328.654C660.186 323.714 647.459 318.225 627.772 307.523C605.808 295.448 589.457 295.447 568.495 286.666C561.58 283.921 554.811 315.756 551.28 323.44C547.701 331.398 542.034 336.887 540.967 347.59C526.085 330.026 506.048 323.165 491.733 316.853C474.087 308.895 458.155 300.113 441.698 297.094C429.658 294.899 432.485 309.444 424.584 316.03C420.194 319.598 414.219 319.598 410.534 324.537C386.387 310.541 370.427 311.914 347.688 303.406C337.19 299.564 323.07 313.011 317.276 320.146C309.434 330.026 300.524 338.808 287.632 338.808C274.582 338.808 252.468 321.244 237.352 314.109C214.145 302.857 193.018 299.564 170.188 288.861C148.52 278.707 129.663 270.474 109.637 267.181C93.1326 264.437 63.5164 261.143 45.3729 248.794C34.7172 233.151 26.5649 202.14 18.4903 184.302C12.9867 172.501 -84.5808 -55.8272 -88.026 -66.8045Z" fill="url(#paint1_linear)"/>
<g clip-path="url(#clip0)">
<path fill-rule="evenodd" clip-rule="evenodd" d="M495.075 545.869L319.513 115.202H260.485C260.485 115.202 448.833 545.869 449.076 545.912C475.986 553.219 495.075 545.869 495.075 545.869Z" fill="#A190FF"/>
<path fill-rule="evenodd" clip-rule="evenodd" d="M394.446 303.68C504.312 567.747 498.925 583.898 383.792 304.108L394.446 303.68Z" fill="#286FB4"/>
<path opacity="0.5" fill-rule="evenodd" clip-rule="evenodd" d="M450.526 436.696L376.015 379.097L260.484 115.202H319.475L450.526 436.696Z" fill="#372D6B"/>
<path fill-rule="evenodd" clip-rule="evenodd" d="M346.863 303.723C458.281 570.353 474.673 580.694 357.688 303.723H346.863Z" fill="#286FB4"/>
<path fill-rule="evenodd" clip-rule="evenodd" d="M363.04 303.809C478.389 574.327 498.748 592.23 378.429 303.809H363.04Z" fill="#286FB4"/>
<path fill-rule="evenodd" clip-rule="evenodd" d="M349.88 303.723C349.88 303.723 424.258 484.681 437.706 503.226C437.706 503.226 414.581 436.226 357.725 303.723H349.88Z" fill="#A393FF"/>
<path fill-rule="evenodd" clip-rule="evenodd" d="M391.518 303.808C391.518 303.808 468.025 484.809 470.113 503.524C470.113 503.524 437.421 436.653 383.792 304.107L391.518 303.808Z" fill="#A393FF"/>
<path fill-rule="evenodd" clip-rule="evenodd" d="M363.04 303.808C471.647 555.953 492.618 584.539 376.505 303.808H363.04Z" fill="#A393FF"/>
<path fill-rule="evenodd" clip-rule="evenodd" d="M739.465 489.296L566.819 57.4322H508.319C508.319 57.4322 692.544 489.296 692.842 489.381C719.697 496.645 739.465 489.296 739.465 489.296Z" fill="#A190FF"/>
<path fill-rule="evenodd" clip-rule="evenodd" d="M687.253 491.817L689.845 482.545C689.845 482.545 717.309 493.313 736.939 484.297L745.587 490.834C745.625 490.834 733.462 507.584 687.253 491.817Z" fill="#224799"/>
<path fill-rule="evenodd" clip-rule="evenodd" d="M687.253 491.817C687.253 491.817 726.718 506.473 745.624 490.834L749.997 501.773C749.997 501.773 732.496 518.096 691.096 501.431L687.253 491.817Z" fill="#E2F0F9"/>
<path fill-rule="evenodd" clip-rule="evenodd" d="M687.253 491.817L683.745 468.23L689.845 482.545L687.253 491.817Z" fill="#286FB4"/>
<path fill-rule="evenodd" clip-rule="evenodd" d="M722.472 497.927L712.633 473.315L727.194 497.756L722.472 497.927Z" fill="#286FB4"/>
<path fill-rule="evenodd" clip-rule="evenodd" d="M745.624 490.834L729.217 464.983L736.938 484.296L745.624 490.834Z" fill="#286FB4"/>
<path fill-rule="evenodd" clip-rule="evenodd" d="M727.194 497.756L734.97 496.261L718.877 471.478L712.633 473.315L727.194 497.756Z" fill="#E2F0F9"/>
<path fill-rule="evenodd" clip-rule="evenodd" d="M729.217 464.983C732.702 473.7 729.353 468.059 745.586 490.834L729.217 464.983Z" fill="#E2F0F9"/>
<path fill-rule="evenodd" clip-rule="evenodd" d="M683.745 468.231L687.253 491.817L689.168 492.458C685.241 469.897 686.489 474.811 683.745 468.231Z" fill="#E2F0F9"/>
<path opacity="0.4" fill-rule="evenodd" clip-rule="evenodd" d="M687.253 491.817C683.019 463.487 684.941 471.221 679.099 456.608C679.099 456.608 713.437 472.589 727.622 460.71C729.836 466.436 726.601 460.796 745.662 490.834C745.625 490.834 733.501 506.644 687.253 491.817Z" fill="#286FB4"/>
<path fill-rule="evenodd" clip-rule="evenodd" d="M629.553 674.783L725.488 667.562L646.552 451.993L534.13 460.24L629.553 674.783Z" fill="#E2F0F9"/>
<path fill-rule="evenodd" clip-rule="evenodd" d="M494.562 456.651L576.922 637.951L629.553 674.783L537.623 460.582L494.562 456.651Z" fill="#286FB4"/>
<path fill-rule="evenodd" clip-rule="evenodd" d="M323.573 50.2537L457.1 363.886H649.537L527.145 46.8781L323.573 50.2537Z" fill="#C1D9FF"/>
<path fill-rule="evenodd" clip-rule="evenodd" d="M323.573 50.2537H266.242L402.359 363.288L457.1 363.886L323.573 50.2537Z" fill="#286FB4"/>
<path fill-rule="evenodd" clip-rule="evenodd" d="M666.28 450.583C657.775 412.042 653.316 394.095 657.403 364.313L674.565 354.315H440.903L458.484 367.347L516.613 461.522L666.28 450.583Z" fill="#91BBFF"/>
<path fill-rule="evenodd" clip-rule="evenodd" d="M376.831 353.588L400.348 369.013C427.467 397.129 438.822 412.042 462.478 449.515L516.613 461.522C497.032 423.108 478.856 394.907 458.484 367.347L440.902 354.315L376.831 353.588Z" fill="#250CB0"/>
<path fill-rule="evenodd" clip-rule="evenodd" d="M664.967 354.742L659.963 342.222L635.516 327.395C415.356 327.395 466.952 326.541 387.677 329.959C384.336 349.529 384.338 344.059 387.062 354.742H664.967Z" fill="#224799"/>
<path fill-rule="evenodd" clip-rule="evenodd" d="M659.962 342.222H444.819L446.655 354.742H664.967L659.962 342.222Z" fill="#E2F0F9"/>
<path fill-rule="evenodd" clip-rule="evenodd" d="M319.266 50.4243H270.421C334.289 192.542 399.258 296.374 399.258 296.374C390.479 234.032 346.047 114.774 319.266 50.4243Z" fill="#81B1CF"/>
<path fill-rule="evenodd" clip-rule="evenodd" d="M319.266 50.4247H281.548C325.979 149.3 370.899 229.588 394.12 269.369C374.735 183.612 319.266 50.4247 319.266 50.4247Z" fill="#250CB0"/>
<path fill-rule="evenodd" clip-rule="evenodd" d="M378.108 49.4847C378.108 49.4847 465.895 235.869 520.678 306.202L542.469 317.781C542.469 317.781 476.662 224.119 381.729 49.4847H378.108Z" fill="#286FB4"/>
<path fill-rule="evenodd" clip-rule="evenodd" d="M542.469 317.781C542.469 317.781 548.109 227.537 482.569 47.6473L381.712 49.442C381.729 49.4848 475.891 247.193 542.469 317.781Z" fill="#E2F0F9"/>
<path fill-rule="evenodd" clip-rule="evenodd" d="M478.646 47.6472C478.646 47.6472 541.323 215.658 535.495 296.844C535.495 296.844 456.527 191.773 388.443 49.4846L478.646 47.6472Z" fill="#224799"/>
<path fill-rule="evenodd" clip-rule="evenodd" d="M473.429 48.3738C473.429 48.3738 542.201 226.725 526.453 284.324C526.453 284.324 451.383 182.586 388.442 49.4847L473.429 48.3738Z" fill="#150C45"/>
<path fill-rule="evenodd" clip-rule="evenodd" d="M451.289 48.374L388.46 49.5277C415.881 105.289 461.041 188.44 494.076 236.639C501.144 201.387 465.921 90.1631 451.289 48.374Z" fill="#250CB0"/>
<path opacity="0.5" fill-rule="evenodd" clip-rule="evenodd" d="M506.377 368.458L516.613 461.522L547.58 459.257L506.377 368.458Z" fill="#372D6B"/>
<path fill-rule="evenodd" clip-rule="evenodd" d="M576.432 205.831C576.432 205.831 601.178 261.977 603.499 308.637L600.146 306.287C600.146 306.287 569.135 271.078 539.089 202.242C579.579 206.344 573.98 205.831 576.432 205.831Z" fill="#224799"/>
<path fill-rule="evenodd" clip-rule="evenodd" d="M578.393 205.831C578.393 205.831 601.452 261.721 603.461 308.637C603.461 308.637 571.058 271.078 541.05 202.242C581.577 206.344 575.941 205.831 578.393 205.831Z" fill="#E2F0F9"/>
<path fill-rule="evenodd" clip-rule="evenodd" d="M576.265 204.848L544.731 205.788C565.825 253.175 583.554 277.616 592.087 287.828C595.626 292.058 597.589 293.853 597.589 293.853C597.295 257.832 576.265 204.848 576.265 204.848Z" fill="#81B1CF"/>
<path fill-rule="evenodd" clip-rule="evenodd" d="M571.091 205.019L544.749 205.831C565.842 253.218 583.572 277.659 592.105 287.871C589.917 253.431 572.304 208.053 571.091 205.019Z" fill="#250CB0"/>
<path d="M581.41 205.831H544.786L543.368 202.285H579.992L581.41 205.831Z" fill="#E2F0F9"/>
<path fill-rule="evenodd" clip-rule="evenodd" d="M579.993 202.285L574.014 199.123L537.996 199.507L539.107 202.285L544.787 205.831L543.369 202.285H579.993Z" fill="#224799"/>
<path fill-rule="evenodd" clip-rule="evenodd" d="M583.915 277.103C583.915 277.103 583.821 263.943 558.461 205.788H559.102C559.102 205.788 583.028 262.618 594.003 277.146L595.853 292.059C595.815 292.059 588.962 284.538 583.915 277.103Z" fill="#E2F0F9"/>
<path fill-rule="evenodd" clip-rule="evenodd" d="M443.281 205.532C443.281 205.532 468.295 261.592 470.825 308.21L467.472 305.86C467.472 305.86 436.29 270.694 405.955 201.985C445.584 205.916 440.829 205.532 443.281 205.532Z" fill="#224799"/>
<path fill-rule="evenodd" clip-rule="evenodd" d="M445.28 205.532C445.28 205.532 468.586 261.379 470.863 308.21C470.863 308.21 438.306 270.736 407.955 201.985C447.546 205.916 442.79 205.532 445.28 205.532Z" fill="#E2F0F9"/>
<path fill-rule="evenodd" clip-rule="evenodd" d="M443.152 204.549L411.619 205.489C432.959 252.833 450.767 277.188 459.393 287.443C462.915 291.631 464.895 293.468 464.895 293.468C464.413 257.448 443.152 204.549 443.152 204.549Z" fill="#81B1CF"/>
<path fill-rule="evenodd" clip-rule="evenodd" d="M437.961 204.677L411.619 205.489C432.96 252.833 450.768 277.188 459.394 287.443C457.034 253.046 439.191 207.753 437.961 204.677Z" fill="#250CB0"/>
<path d="M448.242 205.489H411.618L410.217 201.985H446.842L448.242 205.489Z" fill="#E2F0F9"/>
<path fill-rule="evenodd" clip-rule="evenodd" d="M446.842 201.985L440.846 198.78L404.828 199.165L405.939 201.942L411.619 205.489L410.218 201.985H446.842Z" fill="#224799"/>
<path fill-rule="evenodd" clip-rule="evenodd" d="M451.107 276.719C451.107 276.719 450.955 263.601 425.31 205.489H425.951C425.951 205.489 450.144 262.233 461.195 276.761L463.121 291.674C463.104 291.631 456.212 284.111 451.107 276.719Z" fill="#E2F0F9"/>
<path opacity="0.4" fill-rule="evenodd" clip-rule="evenodd" d="M659.962 342.222L635.515 327.395L631.791 318.08L428.531 298.083L364.371 275.907L387.656 330.002C384.315 349.572 384.316 344.102 387.04 354.785H446.634L444.798 342.265H659.979L659.962 342.222Z" fill="#286FB4"/>
<path fill-rule="evenodd" clip-rule="evenodd" d="M455.805 426.313C455.675 426.27 455.528 426.185 455.38 426.099C455.528 426.185 455.675 426.27 455.805 426.313Z" fill="#91BBFF"/>
<path fill-rule="evenodd" clip-rule="evenodd" d="M256.695 134.686L616.296 142.89L548.242 -27.343H183.736L256.695 134.686Z" fill="#E2F0F9"/>
<path fill-rule="evenodd" clip-rule="evenodd" d="M344.136 136.695L274.448 -27.3426H183.736L256.695 134.687L344.136 136.695Z" fill="#224799"/>
<path fill-rule="evenodd" clip-rule="evenodd" d="M476.91 342.393L468.898 357.733C474.833 395.975 483.713 438.662 499.211 492.244C469.931 439.474 444.097 390.89 419.611 357.946L402.486 340.299C402.448 340.299 442.082 361.792 476.91 342.393Z" fill="#A595FF"/>
<path fill-rule="evenodd" clip-rule="evenodd" d="M402.447 340.299C402.447 340.299 445.802 363.458 476.889 342.435C476.91 342.393 435.213 324.703 402.447 340.299Z" fill="#250CB0"/>
<path fill-rule="evenodd" clip-rule="evenodd" d="M402.815 234.416L292.673 -27.5135H264.233C382.611 246.808 377.078 234.288 377.486 234.459C395.69 241.595 402.541 234.673 402.815 234.416Z" fill="#E2F0F9"/>
<path fill-rule="evenodd" clip-rule="evenodd" d="M427.346 254.926L420.481 241.338C405.215 239.287 402.815 234.416 402.815 234.416C394.564 237.834 383.699 236.98 377.246 234.331C376.005 241.039 366.201 243.688 366.201 243.688L370.028 253.26C388.202 259.284 417.016 263.429 427.346 254.926Z" fill="#224799"/>
<path fill-rule="evenodd" clip-rule="evenodd" d="M366.202 243.688C366.202 243.688 395.58 253.772 420.444 241.338L427.309 254.926C427.309 254.926 408.156 266.078 370.011 253.217L366.202 243.688Z" fill="#E2F0F9"/>
<path fill-rule="evenodd" clip-rule="evenodd" d="M433.275 278.342L422.562 279.282L416.323 273.77L416.936 269.454L420.958 283.854H406.625L400.082 272.488C402.037 276.718 401.083 275.18 404.423 279.197L392.734 277.316L385.016 262.917L424.634 259.84L433.275 278.342Z" fill="#250CB0"/>
<path fill-rule="evenodd" clip-rule="evenodd" d="M378.169 255.695L413.399 336.368C413.399 336.368 441.83 348.802 457.434 338.205L424.618 259.797L378.169 255.695Z" fill="#E2F0F9"/>
<path fill-rule="evenodd" clip-rule="evenodd" d="M370.029 253.26L381.01 274.881C381.01 274.881 387.9 281.547 394.538 283.811L386.433 264.199L394.766 266.079L403.822 286.845C403.822 286.845 415.831 291.032 425.809 286.46L415.529 265.651L423.579 264.369L433.12 283.897C433.12 283.897 437.453 282.188 436.472 275.864L427.309 254.926C427.347 254.926 405.683 264.327 370.029 253.26Z" fill="#91BBFF"/>
<path fill-rule="evenodd" clip-rule="evenodd" d="M433.175 283.939L429.038 282.273L420.711 264.84L423.578 264.37L433.175 283.939Z" fill="#E4FBFF"/>
<path fill-rule="evenodd" clip-rule="evenodd" d="M394.537 283.811L396.914 281.546L389.628 264.925L386.433 264.198L394.537 283.811Z" fill="#E4FBFF"/>
<path opacity="0.4" fill-rule="evenodd" clip-rule="evenodd" d="M420.444 241.338C405.178 239.287 402.778 234.416 402.778 234.416L398.482 224.332C385.173 221.042 371.726 212.881 366.091 209.163L377.209 234.331C375.923 241.21 366.154 243.475 366.164 243.688C384.248 248.26 408.332 248.688 420.444 241.338Z" fill="#286FB4"/>
<path fill-rule="evenodd" clip-rule="evenodd" d="M413.399 336.368L408.179 341.239C408.179 341.239 451.485 358.801 468.199 341.453L457.433 338.205C457.45 338.248 443.049 347.606 413.399 336.368Z" fill="#286FB4"/>
<path fill-rule="evenodd" clip-rule="evenodd" d="M408.179 341.239L406.337 320.217L413.894 337.137L408.179 341.239Z" fill="#286FB4"/>
<path fill-rule="evenodd" clip-rule="evenodd" d="M445.059 349.144L433.56 322.267L452.49 348.674C452.49 348.674 446.643 349.144 445.059 349.144Z" fill="#286FB4"/>
<path fill-rule="evenodd" clip-rule="evenodd" d="M433.505 322.225H438.296L459.464 346.965C459.464 346.965 456.719 348.119 452.452 348.674L433.505 322.225Z" fill="#E2F0F9"/>
<path fill-rule="evenodd" clip-rule="evenodd" d="M468.216 341.496L450.815 322.31L457.45 338.248L468.216 341.496Z" fill="#286FB4"/>
<path fill-rule="evenodd" clip-rule="evenodd" d="M449.459 319.105L468.415 339.445L468.216 341.496C448.001 319.234 451.242 323.378 449.459 319.105Z" fill="#E2F0F9"/>
<path fill-rule="evenodd" clip-rule="evenodd" d="M408.179 341.239C405.616 337.565 406.587 341.88 404.701 316.499C406.888 321.498 406.045 316.841 408.179 341.239Z" fill="#E2F0F9"/>
<path fill-rule="evenodd" clip-rule="evenodd" d="M432.202 299.151C443.225 323.421 449.467 328.848 436.687 296.502L432.202 299.151Z" fill="#286FB4"/>
<path fill-rule="evenodd" clip-rule="evenodd" d="M434.427 297.826C434.427 297.826 441.566 311.628 440.203 314.918C440.203 314.918 435.716 307.184 432.203 299.151L434.427 297.826Z" fill="#250CB0"/>
<path fill-rule="evenodd" clip-rule="evenodd" d="M400.034 289.067C408.991 311.756 407.666 317.311 393.879 286.973L400.034 289.067Z" fill="#286FB4"/>
<path fill-rule="evenodd" clip-rule="evenodd" d="M396.928 287.999C396.928 287.999 401.216 300.988 405.072 303.937C405.072 303.937 403.094 296.63 399.995 289.067L396.928 287.999Z" fill="#250CB0"/>
<path opacity="0.4" fill-rule="evenodd" clip-rule="evenodd" d="M406.366 338.59C404.473 312.91 405.357 317.952 402.846 312.141C402.846 312.141 435.092 323.549 449.479 319.063L468.435 339.402L476.948 342.393C476.948 342.393 452.437 364.484 402.506 340.256L406.366 338.59Z" fill="#286FB4"/>
<path opacity="0.3" fill-rule="evenodd" clip-rule="evenodd" d="M402.448 340.299L419.573 357.946C419.573 357.946 448.872 373.115 468.878 357.775L476.89 342.436C476.91 342.393 447.639 364.655 402.448 340.299Z" fill="#E2F0F9"/>
<path fill-rule="evenodd" clip-rule="evenodd" d="M348.109 280.136L341.796 292.272C345.948 322.567 354.821 356.365 366.095 398.625C343.905 357.177 324.215 325.472 302.658 292.4L289.001 278.427C289.035 278.513 320.484 295.476 348.109 280.136Z" fill="#91BBFF"/>
<path fill-rule="evenodd" clip-rule="evenodd" d="M289.035 278.513C289.035 278.513 323.465 296.801 348.109 280.136C348.109 280.136 315.027 266.164 289.035 278.513Z" fill="#250CB0"/>
<path fill-rule="evenodd" clip-rule="evenodd" d="M164.782 -28.2401L297.724 275.436C297.724 275.436 320.323 285.264 332.666 276.889L205.157 -28.1974H164.799L164.782 -28.2401Z" fill="#E2F0F9"/>
<path fill-rule="evenodd" clip-rule="evenodd" d="M297.708 275.394L293.587 279.239C293.587 279.239 327.993 293.126 341.218 279.41L332.687 276.847C332.687 276.847 321.251 284.281 297.708 275.394Z" fill="#286FB4"/>
<path fill-rule="evenodd" clip-rule="evenodd" d="M293.604 279.282L292.072 262.617L298.098 275.992L293.604 279.282Z" fill="#286FB4"/>
<path fill-rule="evenodd" clip-rule="evenodd" d="M322.823 285.478L313.638 264.198L328.742 285.093C328.742 285.093 324.106 285.478 322.823 285.478Z" fill="#286FB4"/>
<path fill-rule="evenodd" clip-rule="evenodd" d="M313.637 264.199H317.447L334.285 283.769C334.285 283.769 332.116 284.666 328.742 285.093L313.637 264.199Z" fill="#E2F0F9"/>
<path fill-rule="evenodd" clip-rule="evenodd" d="M341.218 279.41L327.346 264.241L332.687 276.846L341.218 279.41Z" fill="#286FB4"/>
<path fill-rule="evenodd" clip-rule="evenodd" d="M326.263 261.72L341.323 277.786L341.18 279.41C325.288 262.019 327.794 265.267 326.263 261.72Z" fill="#E2F0F9"/>
<path fill-rule="evenodd" clip-rule="evenodd" d="M293.604 279.282C291.575 276.376 292.355 279.837 290.797 259.712C292.503 263.6 291.826 259.925 293.604 279.282Z" fill="#E2F0F9"/>
<path fill-rule="evenodd" clip-rule="evenodd" d="M312.529 245.953C321.33 265.139 326.282 269.412 316.067 243.86L312.529 245.953Z" fill="#286FB4"/>
<path fill-rule="evenodd" clip-rule="evenodd" d="M314.307 244.928C314.307 244.928 320.021 255.823 318.93 258.473C318.93 258.473 315.356 252.362 312.546 245.996L314.307 244.928Z" fill="#250CB0"/>
<path fill-rule="evenodd" clip-rule="evenodd" d="M287.006 237.963C294.193 256.037 293.042 260.139 282.115 236.296L287.006 237.963Z" fill="#286FB4"/>
<path fill-rule="evenodd" clip-rule="evenodd" d="M284.569 237.151C284.569 237.151 288.007 247.448 291.08 249.756C291.08 249.756 289.49 243.987 287.023 238.005L284.569 237.151Z" fill="#250CB0"/>
<path opacity="0.4" fill-rule="evenodd" clip-rule="evenodd" d="M292.108 277.146C290.54 256.806 291.279 260.823 289.245 256.208C289.245 256.208 314.839 265.224 326.245 261.678L341.306 277.744L348.054 280.094C348.054 280.094 328.637 297.57 288.979 278.47L292.108 277.146Z" fill="#286FB4"/>
<path opacity="0.3" fill-rule="evenodd" clip-rule="evenodd" d="M289.034 278.513L302.692 292.485C302.692 292.485 325.974 304.492 341.812 292.314L348.126 280.179C348.109 280.137 324.897 297.741 289.034 278.513Z" fill="#E2F0F9"/>
<path opacity="0.4" fill-rule="evenodd" clip-rule="evenodd" d="M348.109 280.136L341.796 292.272C346.318 322.737 354.467 356.707 366.094 398.625C303.435 288.212 306.239 296.074 289.018 278.47C289.941 278.043 290.901 277.615 291.841 277.231C292.226 277.06 292.274 279.068 290.763 259.626C289.437 256.593 305.524 292.87 164.748 -28.3254H205.107L326.284 261.678C345.767 282.487 338.637 276.163 348.109 280.136ZM289.737 278.855C290.292 279.111 291.142 279.538 292.235 280.008C290.049 279.068 289.018 278.47 289.737 278.855Z" fill="#286FB4"/>
<path fill-rule="evenodd" clip-rule="evenodd" d="M738.298 343.247L729.188 358.673C731.427 396.445 738.733 441.14 751.902 493.611C727.474 442.977 704.266 397.001 679.277 358.929L662.851 341.239C662.83 341.282 701.748 362.775 738.298 343.247Z" fill="#A595FF"/>
<path fill-rule="evenodd" clip-rule="evenodd" d="M662.83 341.282C662.83 341.282 705.431 364.441 738.243 343.205C738.298 343.247 697.053 325.557 662.83 341.282Z" fill="#250CB0"/>
<path fill-rule="evenodd" clip-rule="evenodd" d="M669.837 234.929L574.495 -28.2828L539.012 -27.599L643.962 234.929C643.962 234.929 643.338 234.972 643.506 235.014C661.933 242.236 669.504 235.228 669.837 234.929Z" fill="#E2F0F9"/>
<path fill-rule="evenodd" clip-rule="evenodd" d="M693.744 255.482L687.654 241.851C671.952 239.843 669.854 234.971 669.854 234.971C657.719 239.714 645.511 235.783 643.578 235.1C643.393 235.014 644.034 235.014 644.034 235.014C642.303 241.723 631.214 244.457 631.214 244.457L634.642 254.071C653.979 260.267 682.89 263.899 693.744 255.482Z" fill="#224799"/>
<path fill-rule="evenodd" clip-rule="evenodd" d="M631.196 244.415C631.196 244.415 660.993 254.414 687.654 241.851L693.744 255.482C693.744 255.482 673.171 266.762 634.608 253.986L631.196 244.415Z" fill="#E2F0F9"/>
<path fill-rule="evenodd" clip-rule="evenodd" d="M698.198 278.983L687.125 279.966L681.074 274.453L682.027 270.138L685.215 284.623H670.43L664.453 273.257C666.219 277.487 665.302 275.949 668.492 279.966L656.593 278.128L649.537 263.686L690.634 260.438L698.198 278.983Z" fill="#250CB0"/>
<path fill-rule="evenodd" clip-rule="evenodd" d="M642.824 256.422L674.158 337.351C674.158 337.351 702.271 349.742 718.8 339.103L690.634 260.438L642.824 256.422Z" fill="#E2F0F9"/>
<path fill-rule="evenodd" clip-rule="evenodd" d="M634.608 253.986L644.588 275.65C644.588 275.65 651.289 282.315 657.965 284.58L650.862 264.925L659.346 266.805L667.363 287.614C667.363 287.614 679.447 291.801 689.974 287.187L680.829 266.292L689.238 264.967L697.682 284.58C697.682 284.58 702.262 282.828 701.696 276.504L693.782 255.481C693.744 255.481 670.736 265.01 634.608 253.986Z" fill="#91BBFF"/>
<path fill-rule="evenodd" clip-rule="evenodd" d="M697.645 284.58L693.563 282.956L686.182 265.437L689.217 265.01L697.645 284.58Z" fill="#E4FBFF"/>
<path fill-rule="evenodd" clip-rule="evenodd" d="M657.965 284.58L660.567 282.315L654.094 265.651L650.862 264.925L657.965 284.58Z" fill="#E4FBFF"/>
<path opacity="0.4" fill-rule="evenodd" clip-rule="evenodd" d="M687.653 241.851C671.952 239.843 669.854 234.972 669.854 234.972L666.107 224.845C652.475 221.598 639.029 213.436 633.411 209.762L644.017 234.972C642.123 242.407 630.641 244.159 631.234 244.415C650.014 249.03 674.335 249.201 687.653 241.851Z" fill="#286FB4"/>
<path fill-rule="evenodd" clip-rule="evenodd" d="M674.195 337.351L668.654 342.265C668.654 342.265 711.527 359.784 729.564 342.35L718.874 339.103C718.837 339.103 703.602 348.546 674.195 337.351Z" fill="#286FB4"/>
<path fill-rule="evenodd" clip-rule="evenodd" d="M668.616 342.265L667.872 321.157L674.637 338.077L668.616 342.265Z" fill="#286FB4"/>
<path fill-rule="evenodd" clip-rule="evenodd" d="M705.52 350.041L695.496 323.079L713.103 349.571C713.065 349.571 707.159 350.084 705.52 350.041Z" fill="#286FB4"/>
<path fill-rule="evenodd" clip-rule="evenodd" d="M695.496 323.079H700.362L720.302 347.862C720.302 347.862 717.444 349.016 713.102 349.571L695.496 323.079Z" fill="#E2F0F9"/>
<path fill-rule="evenodd" clip-rule="evenodd" d="M729.527 342.35L713.073 323.079L718.838 339.103L729.527 342.35Z" fill="#286FB4"/>
<path fill-rule="evenodd" clip-rule="evenodd" d="M711.942 319.875L729.859 340.256L729.527 342.35C710.43 319.96 713.479 324.19 711.942 319.875Z" fill="#E2F0F9"/>
<path fill-rule="evenodd" clip-rule="evenodd" d="M668.616 342.265C666.242 338.59 666.966 342.948 666.462 317.439C668.433 322.652 667.757 318.037 668.616 342.265Z" fill="#E2F0F9"/>
<path fill-rule="evenodd" clip-rule="evenodd" d="M695.63 299.92C705.308 324.318 711.274 329.617 700.4 297.228L695.63 299.92Z" fill="#286FB4"/>
<path fill-rule="evenodd" clip-rule="evenodd" d="M697.987 298.553C697.987 298.553 704.389 312.397 702.742 315.73C702.742 315.73 698.67 307.996 695.592 299.92L697.987 298.553Z" fill="#250CB0"/>
<path fill-rule="evenodd" clip-rule="evenodd" d="M663.273 289.836C671.108 312.739 669.342 318.037 657.08 287.742L663.273 289.836Z" fill="#286FB4"/>
<path fill-rule="evenodd" clip-rule="evenodd" d="M660.185 288.81C660.185 288.81 663.81 301.843 667.592 304.791C667.592 304.791 666.011 297.442 663.29 289.879L660.185 288.81Z" fill="#250CB0"/>
<path opacity="0.4" fill-rule="evenodd" clip-rule="evenodd" d="M666.899 339.573C666.388 313.764 667.025 318.849 664.778 313.038C664.778 313.038 697.007 324.404 711.943 319.875L729.86 340.256L738.297 343.247C738.297 343.247 712.064 365.467 662.885 341.325L666.899 339.573Z" fill="#286FB4"/>
<path opacity="0.3" fill-rule="evenodd" clip-rule="evenodd" d="M662.83 341.282L679.255 358.971C679.255 358.971 708.026 374.14 729.112 358.672L738.221 343.247C738.297 343.247 707.229 365.637 662.83 341.282Z" fill="#E2F0F9"/>
<path fill-rule="evenodd" clip-rule="evenodd" d="M616.093 150.496L612.89 136.823L600.958 127.166H357.036L366.362 150.496H616.093Z" fill="#E2F0F9"/>
<path opacity="0.4" fill-rule="evenodd" clip-rule="evenodd" d="M612.89 136.823L359.889 134.302L357.036 127.166H600.958L612.89 136.823Z" fill="#286FB4"/>
<path opacity="0.4" fill-rule="evenodd" clip-rule="evenodd" d="M612.89 136.823L597.887 119.389L351.965 115.33L359.888 134.302L612.89 136.823Z" fill="#286FB4"/>
<path opacity="0.4" fill-rule="evenodd" clip-rule="evenodd" d="M539.029 -27.5563L581.256 78.0702H564.207L537.068 12.3528L527.596 -0.679639L553.111 57.3893L520.618 71.8745L507.127 54.3555L491.394 15.0019L493.971 4.74695L491.238 -2.08972C480.569 -8.11453 487.042 -5.50809 461.228 -13.7548L474.657 25.2142L432.462 61.6622L400.397 50.4244L378.664 25.2142L375.142 -4.82435L361.114 -18.4977L374.233 14.3182L356.809 25.1715C331.701 7.18252 340.78 14.7028 317.257 -8.28545L313.422 -18.5405L302.794 -17.8567L324.746 29.3162L336.909 77.8566L308.964 14.2756L288.976 0.602233L280.773 -0.765076L286.711 25.1287L333.723 136.31L324.543 136.652L282.314 54.2273L252.141 15.6429L228.393 -5.55083L226.675 1.28584L237.844 36.1101C226.586 27.0088 233.077 34.1873 211.069 4.70417L191.543 -8.28545L177.133 -0.0814711L164.783 -28.2399H574.513L595.552 28.1625L578.199 6.92617L561.141 3.50784L539.029 -27.5563Z" fill="#286FB4"/>
<path fill-rule="evenodd" clip-rule="evenodd" d="M509.422 183.697L496.546 177.245C496.546 177.245 479.337 162.503 470.385 150.112H473.629C473.629 150.112 426.821 66.2342 388.185 -27.77L391.497 -27.599C391.535 -27.599 475.185 148.061 509.422 183.697Z" fill="#286FB4"/>
<path fill-rule="evenodd" clip-rule="evenodd" d="M454.011 -26.6162C454.011 -26.6162 515.37 121.398 509.46 183.697C509.46 183.697 452.734 116.997 391.534 -27.599L454.011 -26.6162Z" fill="#E2F0F9"/>
<path fill-rule="evenodd" clip-rule="evenodd" d="M397.998 -27.4708C397.998 -27.4708 454.724 104.99 499.914 160.196C499.914 160.196 499.019 90.59 452.048 -27.4708H397.998Z" fill="#224799"/>
<path fill-rule="evenodd" clip-rule="evenodd" d="M492.594 150.752C492.594 150.752 492.724 88.2396 447.01 -26.4883L397.961 -27.471C397.998 -27.471 449.702 92.4271 492.594 150.752Z" fill="#250CB0"/>
<path fill-rule="evenodd" clip-rule="evenodd" d="M506.377 368.458H598.447L669.332 559.927L596.03 566.208L506.377 368.458Z" fill="#C1D9FF"/>
<path fill-rule="evenodd" clip-rule="evenodd" d="M506.377 368.458L534.129 460.24L575.124 547.878L596.03 566.208L506.377 368.458Z" fill="#286FB4"/>
<path fill-rule="evenodd" clip-rule="evenodd" d="M592.416 400.077C592.416 400.077 630.549 486.219 634.494 557.791L629.4 554.201C629.4 554.201 581.825 500.106 535.467 394.522C595.878 400.718 588.644 400.077 592.416 400.077Z" fill="#224799"/>
<path fill-rule="evenodd" clip-rule="evenodd" d="M595.452 400.12C595.452 400.12 631.034 485.92 634.55 557.833C634.55 557.833 584.898 500.149 538.54 394.565C598.897 400.718 591.68 400.12 595.452 400.12Z" fill="#E2F0F9"/>
<path fill-rule="evenodd" clip-rule="evenodd" d="M592.195 398.582L544.141 399.992C576.722 472.717 603.906 510.148 617.019 525.872C622.389 532.324 625.423 535.102 625.423 535.102C624.647 479.853 592.195 398.582 592.195 398.582Z" fill="#81B1CF"/>
<path fill-rule="evenodd" clip-rule="evenodd" d="M584.285 398.795L544.141 399.992C576.722 472.717 603.906 510.148 617.019 525.872C613.366 473.144 586.126 403.496 584.285 398.795Z" fill="#250CB0"/>
<path d="M599.963 399.992H544.141L541.954 394.522H597.777L599.963 399.992Z" fill="#E2F0F9"/>
<path fill-rule="evenodd" clip-rule="evenodd" d="M597.777 394.522L588.762 389.993H533.656L535.467 394.522L544.141 399.992L541.954 394.522H597.777Z" fill="#224799"/>
<path fill-rule="evenodd" clip-rule="evenodd" d="M604.391 509.378C604.391 509.378 604.153 489.253 564.982 399.949H565.963C565.963 399.949 602.901 487.159 619.739 509.464L622.709 532.367C622.709 532.367 612.196 520.787 604.391 509.378Z" fill="#E2F0F9"/>
<path fill-rule="evenodd" clip-rule="evenodd" d="M583.381 6.58447L598.741 0.00414635L606.153 -14.951H617.958L636.278 -28.2824H119.278L145.885 -10.9772L178.671 -5.29421L174.087 -19.7793C218.498 -29.2651 202.61 -27.6842 243.798 -27.6842L268.883 -10.9772L291.586 -8.62709C298.931 -15.6346 295.401 -12.3872 307.445 -23.1122C500.714 -19.993 432.67 -25.8469 540.093 -18.6684L583.381 6.58447Z" fill="#E2F0F9"/>
</g>
<g filter="url(#filter0_b)">
<path fill-rule="evenodd" clip-rule="evenodd" d="M899.859 101.676C1009.6 119.318 1060.24 183.224 1155.57 216.685C1238.02 245.625 1348.15 251.505 1422.28 285.049C1497.15 318.927 1518.13 367.959 1577.18 407.458C1650.61 456.581 1825.08 494.058 1815.15 547.847C1804.41 606.043 1573.84 594.93 1532.76 648.052C1491.61 701.28 1639.09 773.451 1599.32 826.986C1563.39 875.339 1454.11 917.423 1335.8 913.181C1195.7 908.158 1095.51 802.286 957.465 803.973C808.891 805.789 781.665 914.526 635.805 921.737C514.476 927.736 392.765 874.046 283.868 837.277C171.751 799.42 40.8162 760.587 -11.633 703.129C-65.6403 643.964 29.0669 585.785 -1.33072 524.843C-31.5455 464.267 -172.44 414.074 -186.025 353.499C-199.504 293.402 -149.831 235.863 -75.9075 192.323C-2.76675 149.245 108.485 120.1 230.171 108.366C346.23 97.174 477.085 128.448 599.126 127.228C704.568 126.175 794.384 84.719 899.859 101.676Z" fill="url(#paint2_linear)"/>
</g>
<g filter="url(#filter1_b)">
<path fill-rule="evenodd" clip-rule="evenodd" d="M594.859 197.012C704.598 214.654 755.244 278.561 850.573 312.022C933.021 340.962 1043.15 346.842 1117.28 380.386C1192.15 414.264 1213.13 463.296 1272.18 502.795C1345.61 551.918 1520.08 589.395 1510.15 643.184C1499.41 701.38 1268.84 690.267 1227.76 743.389C1186.61 796.617 1334.09 868.788 1294.32 922.323C1258.39 970.676 1149.11 1012.76 1030.8 1008.52C890.7 1003.49 790.509 897.623 652.465 899.31C503.891 901.126 476.665 1009.86 330.805 1017.07C209.476 1023.07 87.7645 969.383 -21.1321 932.614C-133.249 894.757 -264.184 855.924 -316.633 798.466C-370.64 739.301 -275.933 681.122 -306.331 620.18C-336.546 559.604 -477.44 509.41 -491.025 448.836C-504.504 388.739 -454.831 331.2 -380.908 287.66C-307.767 244.581 -196.515 215.437 -74.829 203.703C41.2296 192.511 172.085 223.785 294.126 222.565C399.568 221.512 489.384 180.056 594.859 197.012Z" fill="url(#paint3_linear)"/>
</g>
<g filter="url(#filter2_b)">
<path fill-rule="evenodd" clip-rule="evenodd" d="M518.771 358.767C626.528 386.012 671.345 454.133 763.353 495.865C842.931 531.959 952.114 547.522 1023 587.47C1094.59 627.814 1111.17 678.505 1166.51 723.054C1235.33 778.458 1405.81 831.165 1391.18 883.871C1375.35 940.893 1146.66 909.503 1101.06 958.798C1055.37 1008.19 1195.92 1093.08 1151.58 1142.9C1111.54 1187.9 998.972 1220.19 881.492 1205.54C742.383 1188.18 651.912 1073.89 514.257 1063.41C366.101 1052.12 329.397 1158.04 183.469 1152.36C62.0836 1147.65 -54.4222 1083.44 -159.654 1037.22C-267.998 989.625 -395.001 939.402 -442.182 877.546C-490.765 813.851 -391.299 764.246 -416.207 700.861C-440.965 637.858 -576.888 575.442 -585.082 513.907C-593.211 452.855 -538.66 399.918 -461.187 363.063C-384.534 326.598 -271.147 307.372 -148.9 306.408C-32.3069 305.489 95.2833 348.174 216.956 357.715C322.081 365.959 415.201 332.58 518.771 358.767Z" fill="url(#paint4_linear)"/>
</g>
</g>
<defs>
<filter id="filter0_b" x="-261" y="-23.3369" width="2134.11" height="1080.83" filterUnits="userSpaceOnUse" color-interpolation-filters="sRGB">
<feFlood flood-opacity="0" result="BackgroundImageFix"/>
<feGaussianBlur in="BackgroundImage" stdDeviation="12"/>
<feComposite in2="SourceAlpha" operator="in" result="effect1_backgroundBlur"/>
<feBlend mode="normal" in="SourceGraphic" in2="effect1_backgroundBlur" result="shape"/>
</filter>
<filter id="filter1_b" x="-566" y="72" width="2134.11" height="1080.83" filterUnits="userSpaceOnUse" color-interpolation-filters="sRGB">
<feFlood flood-opacity="0" result="BackgroundImageFix"/>
<feGaussianBlur in="BackgroundImage" stdDeviation="12"/>
<feComposite in2="SourceAlpha" operator="in" result="effect1_backgroundBlur"/>
<feBlend mode="normal" in="SourceGraphic" in2="effect1_backgroundBlur" result="shape"/>
</filter>
<filter id="filter2_b" x="-711" y="133" width="2199.45" height="1262.57" filterUnits="userSpaceOnUse" color-interpolation-filters="sRGB">
<feFlood flood-opacity="0" result="BackgroundImageFix"/>
<feGaussianBlur in="BackgroundImage" stdDeviation="16"/>
<feComposite in2="SourceAlpha" operator="in" result="effect1_backgroundBlur"/>
<feBlend mode="normal" in="SourceGraphic" in2="effect1_backgroundBlur" result="shape"/>
</filter>
<linearGradient id="paint0_linear" x1="695.271" y1="44.2004" x2="695.271" y2="622.448" gradientUnits="userSpaceOnUse">
<stop stop-color="#98D4ED"/>
<stop offset="0.2416" stop-color="#7FC3E2"/>
<stop offset="0.7517" stop-color="#4099C4"/>
<stop offset="1" stop-color="#1F83B5"/>
</linearGradient>
<linearGradient id="paint1_linear" x1="714.453" y1="-31.5588" x2="714.453" y2="460.441" gradientUnits="userSpaceOnUse">
<stop stop-color="#98D4ED"/>
<stop offset="0.2416" stop-color="#7FC3E2"/>
<stop offset="0.7517" stop-color="#4099C4"/>
<stop offset="1" stop-color="#1F83B5"/>
</linearGradient>
<linearGradient id="paint2_linear" x1="726" y1="165.5" x2="753" y2="939" gradientUnits="userSpaceOnUse">
<stop stop-color="white" stop-opacity="0.3"/>
<stop offset="1" stop-color="white" stop-opacity="0"/>
</linearGradient>
<linearGradient id="paint3_linear" x1="613.5" y1="214" x2="1170" y2="1273.5" gradientUnits="userSpaceOnUse">
<stop stop-color="white" stop-opacity="0.2"/>
<stop offset="1" stop-color="white" stop-opacity="0"/>
</linearGradient>
<linearGradient id="paint4_linear" x1="493.5" y1="363.5" x2="212.5" y2="1543.5" gradientUnits="userSpaceOnUse">
<stop stop-color="white" stop-opacity="0.2"/>
<stop offset="1" stop-color="white" stop-opacity="0"/>
</linearGradient>
<clipPath id="clip0">
<rect width="517" height="1088.49" fill="white" transform="matrix(1 0 -0.371206 -0.928551 523.313 982.391)"/>
</clipPath>
</defs>
</svg>
