<svg width="36" height="37" viewBox="0 0 36 37" fill="none" xmlns="http://www.w3.org/2000/svg">
<g clip-path="url(#clip0)">
<path d="M35.25 10.2606C35.0461 9.53346 34.649 8.87513 34.1009 8.35561C33.5374 7.82012 32.8466 7.43707 32.0939 7.24261C29.277 6.50011 17.9909 6.50011 17.9909 6.50011C13.2859 6.44658 8.58209 6.68203 3.90595 7.20511C3.15323 7.41393 2.46379 7.80554 1.89895 8.34511C1.34395 8.87911 0.941949 9.53761 0.731949 10.2591C0.227489 12.9767 -0.0176128 15.7361 -5.07877e-05 18.5001C-0.0180508 21.2616 0.226449 24.0201 0.731949 26.7411C0.937449 27.4596 1.33795 28.1151 1.89445 28.6446C2.45095 29.1741 3.14395 29.5566 3.90595 29.7591C6.76045 30.5001 17.9909 30.5001 17.9909 30.5001C22.7019 30.5537 27.4118 30.3183 32.0939 29.7951C32.8466 29.6007 33.5374 29.2176 34.1009 28.6821C34.6559 28.1526 35.0504 27.4941 35.2485 26.7771C35.7661 24.0605 36.0178 21.3 36 18.5346C36.0389 15.7575 35.7875 12.984 35.25 10.2591V10.2606ZM14.4029 23.6361V13.3656L23.7929 18.5016L14.4029 23.6361Z" fill="#064775"/>
</g>
<defs>
<clipPath id="clip0">
<rect width="36" height="36" fill="white" transform="translate(0 0.5)"/>
</clipPath>
</defs>
</svg>
