<svg width="36" height="37" viewBox="0 0 36 37" fill="none" xmlns="http://www.w3.org/2000/svg">
<path d="M19.431 17.924L23.8665 13.4885L9.54 5.43655C8.5905 4.92355 7.701 4.85155 6.921 5.41255L19.431 17.924ZM24.6225 23.1171L29.2335 20.5235C30.1335 20.0195 30.627 19.3055 30.627 18.5135C30.627 17.723 30.1335 17.0075 29.235 16.5035L25.0605 14.159L20.361 18.857L24.6225 23.1171ZM6.15 6.50305C6.054 6.79855 6 7.12855 6 7.49005V29.5475C6 30.119 6.126 30.611 6.354 31.0025L18.4995 18.8555L6.15 6.50305ZM19.431 19.7856L7.353 31.865C7.584 31.9535 7.833 32 8.0955 32C8.5635 32 9.051 31.8621 9.5475 31.5861L23.43 23.7906L19.431 19.7856Z" fill="#064775"/>
</svg>
