<svg width="36" height="37" viewBox="0 0 36 37" fill="none" xmlns="http://www.w3.org/2000/svg">
<path fill-rule="evenodd" clip-rule="evenodd" d="M11.1975 2.099C12.957 2.018 13.518 2 18 2C22.482 2 23.043 2.0195 24.801 2.099C26.559 2.1785 27.759 2.459 28.809 2.8655C29.9085 3.281 30.906 3.9305 31.731 4.7705C32.571 5.594 33.219 6.59 33.633 7.691C34.041 8.741 34.32 9.941 34.401 11.696C34.482 13.4585 34.5 14.0195 34.5 18.5C34.5 22.982 34.4805 23.543 34.401 25.3025C34.3215 27.0575 34.041 28.2575 33.633 29.3075C33.219 30.4086 32.5699 31.4063 31.731 32.231C30.906 33.071 29.9085 33.719 28.809 34.133C27.759 34.541 26.559 34.82 24.804 34.901C23.043 34.982 22.482 35 18 35C13.518 35 12.957 34.9805 11.1975 34.901C9.4425 34.8215 8.2425 34.541 7.1925 34.133C6.09138 33.7189 5.09373 33.0699 4.269 32.231C3.42957 31.407 2.77997 30.4098 2.3655 29.309C1.959 28.259 1.68 27.059 1.599 25.304C1.518 23.5415 1.5 22.9805 1.5 18.5C1.5 14.018 1.5195 13.457 1.599 11.699C1.6785 9.941 1.959 8.741 2.3655 7.691C2.78058 6.59012 3.43068 5.59297 4.2705 4.769C5.09406 3.92975 6.09071 3.28017 7.191 2.8655C8.241 2.459 9.441 2.18 11.196 2.099H11.1975ZM24.6675 5.069C22.9275 4.9895 22.4055 4.973 18 4.973C13.5945 4.973 13.0725 4.9895 11.3325 5.069C9.723 5.1425 8.85 5.411 8.268 5.6375C7.4985 5.9375 6.948 6.293 6.3705 6.8705C5.82307 7.40308 5.40177 8.05142 5.1375 8.768C4.911 9.35 4.6425 10.223 4.569 11.8325C4.4895 13.5725 4.473 14.0945 4.473 18.5C4.473 22.9055 4.4895 23.4275 4.569 25.1675C4.6425 26.777 4.911 27.65 5.1375 28.232C5.4015 28.9475 5.823 29.597 6.3705 30.1295C6.903 30.677 7.5525 31.0985 8.268 31.3625C8.85 31.589 9.723 31.8575 11.3325 31.931C13.0725 32.0105 13.593 32.027 18 32.027C22.407 32.027 22.9275 32.0105 24.6675 31.931C26.277 31.8575 27.15 31.589 27.732 31.3625C28.5015 31.0625 29.052 30.707 29.6295 30.1295C30.177 29.597 30.5985 28.9475 30.8625 28.232C31.089 27.65 31.3575 26.777 31.431 25.1675C31.5105 23.4275 31.527 22.9055 31.527 18.5C31.527 14.0945 31.5105 13.5725 31.431 11.8325C31.3575 10.223 31.089 9.35 30.8625 8.768C30.5625 7.9985 30.207 7.448 29.6295 6.8705C29.0969 6.32311 28.4486 5.90182 27.732 5.6375C27.15 5.411 26.277 5.1425 24.6675 5.069ZM15.8925 23.5865C17.0695 24.0764 18.3801 24.1426 19.6004 23.7736C20.8207 23.4046 21.8751 22.6234 22.5834 21.5634C23.2917 20.5034 23.6101 19.2303 23.4841 17.9617C23.3581 16.693 22.7955 15.5075 21.8925 14.6075C21.3169 14.0322 20.6208 13.5917 19.8545 13.3177C19.0882 13.0437 18.2706 12.943 17.4607 13.0229C16.6508 13.1028 15.8687 13.3613 15.1707 13.7797C14.4727 14.1981 13.8761 14.7661 13.424 15.4428C12.9718 16.1194 12.6753 16.8879 12.5558 17.6929C12.4363 18.4979 12.4967 19.3194 12.7328 20.0983C12.9689 20.8771 13.3747 21.5939 13.9211 22.1971C14.4674 22.8003 15.1407 23.2748 15.8925 23.5865ZM12.003 12.503C12.7905 11.7155 13.7255 11.0908 14.7544 10.6645C15.7834 10.2383 16.8863 10.019 18 10.019C19.1137 10.019 20.2166 10.2383 21.2456 10.6645C22.2745 11.0908 23.2095 11.7155 23.997 12.503C24.7845 13.2905 25.4092 14.2255 25.8355 15.2544C26.2617 16.2834 26.481 17.3863 26.481 18.5C26.481 19.6137 26.2617 20.7166 25.8355 21.7456C25.4092 22.7745 24.7845 23.7095 23.997 24.497C22.4065 26.0875 20.2493 26.981 18 26.981C15.7507 26.981 13.5935 26.0875 12.003 24.497C10.4125 22.9065 9.51896 20.7493 9.51896 18.5C9.51896 16.2507 10.4125 14.0935 12.003 12.503ZM28.362 11.282C28.5572 11.0979 28.7134 10.8765 28.8215 10.631C28.9295 10.3854 28.9872 10.1207 28.9911 9.8524C28.995 9.58414 28.9451 9.31782 28.8442 9.06921C28.7434 8.82061 28.5936 8.59477 28.4039 8.40506C28.2142 8.21535 27.9884 8.06564 27.7398 7.96478C27.4912 7.86392 27.2249 7.81396 26.9566 7.81787C26.6883 7.82178 26.4236 7.87948 26.178 7.98754C25.9325 8.09561 25.7111 8.25184 25.527 8.447C25.169 8.82654 24.9729 9.33068 24.9806 9.8524C24.9882 10.3741 25.1988 10.8723 25.5677 11.2413C25.9367 11.6102 26.4349 11.8208 26.9566 11.8284C27.4783 11.8361 27.9825 11.64 28.362 11.282Z" fill="#064775"/>
</svg>
