<svg width="36" height="37" viewBox="0 0 36 37" fill="none" xmlns="http://www.w3.org/2000/svg">
<path d="M18 33.5C9.7155 33.5 3 26.7845 3 18.5C3 10.2155 9.7155 3.5 18 3.5C26.2845 3.5 33 10.2155 33 18.5C32.991 26.78 26.28 33.491 18 33.5ZM11.5905 22.6805C11.397 22.6805 11.205 22.7045 11.016 22.7495L10.791 22.811L9.9 24.3365C9.73725 24.608 9.68499 24.9316 9.75402 25.2405C9.82304 25.5494 10.0081 25.82 10.2709 25.9963C10.5337 26.1727 10.8543 26.2414 11.1663 26.1882C11.4783 26.135 11.758 25.964 11.9475 25.7105L12.0405 25.571L13.2255 23.5145C13.0334 23.2576 12.7846 23.0487 12.4983 22.904C12.2121 22.7593 11.8962 22.6828 11.5755 22.6805H11.5905ZM19.8165 13.49C19.3498 13.9284 19.0404 14.5082 18.936 15.14C18.7688 16.0111 18.929 16.9133 19.386 17.6735L23.946 25.5725C24.1047 25.8395 24.3578 26.0373 24.6552 26.1267C24.9527 26.2162 25.2729 26.1907 25.5525 26.0555C25.8313 25.918 26.048 25.6803 26.1592 25.39C26.2705 25.0997 26.2681 24.7781 26.1525 24.4895L26.079 24.3395L24.879 22.253H26.664C26.9766 22.2504 27.2766 22.1293 27.5033 21.9141C27.7301 21.6989 27.8668 21.4058 27.8859 21.0937C27.9049 20.7817 27.8049 20.4741 27.6059 20.2329C27.407 19.9918 27.124 19.8351 26.814 19.7945L26.664 19.7855H23.454L20.163 14.0855L19.8195 13.4855L19.8165 13.49ZM9.39 19.775C9.22881 19.7754 9.06928 19.8076 8.92055 19.8697C8.77182 19.9319 8.63681 20.0227 8.52325 20.1371C8.40969 20.2515 8.31982 20.3872 8.25877 20.5364C8.19773 20.6856 8.16671 20.8453 8.1675 21.0065C8.1675 21.6275 8.6295 22.1525 9.246 22.232L9.396 22.2395H20.616C20.7402 21.9902 20.8027 21.7147 20.7982 21.4361C20.7938 21.1576 20.7225 20.8843 20.5905 20.639C20.4782 20.4092 20.3108 20.2108 20.1033 20.0614C19.8958 19.9119 19.6545 19.8161 19.401 19.7825L19.2195 19.7735H15.393L20.685 10.61C20.848 10.3259 20.8922 9.98899 20.808 9.6725C20.7481 9.4504 20.6274 9.24942 20.4595 9.09218C20.2916 8.93494 20.0831 8.82769 19.8575 8.78248C19.632 8.73728 19.3983 8.75592 19.1827 8.8363C18.9672 8.91669 18.7784 9.05563 18.6375 9.2375L18.5445 9.3755L18 10.3265L17.4615 9.3755C17.3028 9.10811 17.0494 8.91008 16.7516 8.82062C16.4538 8.73117 16.1333 8.75682 15.8535 8.8925C15.5748 9.03057 15.3583 9.26852 15.2471 9.55899C15.136 9.84945 15.1382 10.1711 15.2535 10.46L15.327 10.61L16.572 12.8L12.5445 19.775H9.39Z" fill="#064775"/>
</svg>
