<svg width="53" height="51" viewBox="0 0 53 51" fill="none" xmlns="http://www.w3.org/2000/svg">
<path d="M51.2549 18.0688L35.3862 15.7626L28.2924 1.38132C28.0987 0.987572 27.7799 0.668822 27.3862 0.475072C26.3987 -0.012428 25.1987 0.393822 24.7049 1.38132L17.6112 15.7626L1.7424 18.0688C1.3049 18.1313 0.904902 18.3376 0.598652 18.6501C0.228413 19.0306 0.0243943 19.5426 0.0314259 20.0735C0.0384575 20.6043 0.255964 21.1107 0.636152 21.4813L12.1174 32.6751L9.4049 48.4813C9.34129 48.849 9.38198 49.2272 9.52235 49.5729C9.66272 49.9186 9.89716 50.2181 10.1991 50.4374C10.501 50.6567 10.8583 50.787 11.2305 50.8135C11.6027 50.8401 11.9749 50.7618 12.3049 50.5876L26.4987 43.1251L40.6924 50.5876C41.0799 50.7938 41.5299 50.8626 41.9612 50.7876C43.0487 50.6001 43.7799 49.5688 43.5924 48.4813L40.8799 32.6751L52.3612 21.4813C52.6737 21.1751 52.8799 20.7751 52.9424 20.3376C53.1112 19.2438 52.3487 18.2313 51.2549 18.0688Z" fill="#C4C4C4"/>
</svg>
