<svg width="229" height="27" viewBox="0 0 229 27" fill="none" xmlns="http://www.w3.org/2000/svg">
<path d="M2.508 26.8141C2.148 26.8381 1.812 26.7541 1.5 26.5621C1.116 26.4421 0.804 26.2261 0.564 25.9141C0.348 25.5781 0.24 25.2061 0.24 24.7981C0.24 24.0301 0.3 20.2741 0.42 13.5301C0.444 12.4261 0.408 10.6621 0.312 8.23813C0.216 5.86213 0.204 4.01413 0.276 2.69412C0.3 2.19013 0.492 1.77013 0.852 1.43413C1.236 1.09813 1.668 0.942126 2.148 0.966126H2.292C2.508 0.846126 2.736 0.774125 2.976 0.750124C4.08 0.654125 4.956 0.594126 5.604 0.570124C6.252 0.522125 7.164 0.498125 8.34 0.498125C9.516 0.498125 10.524 0.582125 11.364 0.750124C12.204 0.894125 13.128 1.14613 14.136 1.50613C15.168 1.86612 16.08 2.33412 16.872 2.91012C18.552 4.13413 19.776 5.70613 20.544 7.62613C21.336 9.52213 21.696 11.5261 21.624 13.6381C21.552 15.6781 21.096 17.6461 20.256 19.5421C19.392 21.4141 18.204 22.9501 16.692 24.1501C14.892 25.5901 12.456 26.4301 9.384 26.6701C8.472 26.7421 7.272 26.7781 5.784 26.7781C4.176 26.7781 3.084 26.7901 2.508 26.8141ZM5.784 23.1781C7.2 23.1781 8.304 23.1421 9.096 23.0701C11.28 22.9021 12.996 22.3261 14.244 21.3421C15.3 20.5021 16.14 19.3861 16.764 17.9941C17.412 16.5781 17.76 15.0781 17.808 13.4941C17.88 11.9101 17.64 10.4461 17.088 9.10213C16.512 7.73413 15.672 6.65412 14.568 5.86212C13.68 5.21412 12.624 4.74612 11.4 4.45813C10.152 4.17013 8.94 4.05013 7.764 4.09813C6.588 4.12213 5.28 4.19413 3.84 4.31413C3.816 5.01013 3.84 6.27013 3.912 8.09413C4.008 10.7101 4.044 12.5461 4.02 13.6021C4.02 14.3221 4.008 15.3301 3.984 16.6261C3.96 17.8981 3.936 19.0741 3.912 20.1541C3.888 21.2341 3.876 22.2421 3.876 23.1781H5.784ZM35.547 26.8501C34.299 26.6821 33.159 26.3581 32.127 25.8781C31.095 25.3741 30.219 24.7621 29.499 24.0421C28.779 23.3221 28.143 22.5061 27.591 21.5941C27.063 20.6821 26.679 19.7341 26.439 18.7501C26.223 17.7421 26.067 16.7101 25.971 15.6541C25.899 14.5981 25.923 13.5781 26.043 12.5941C26.187 11.3461 26.463 10.1341 26.871 8.95813C27.303 7.78213 27.879 6.67813 28.599 5.64613C29.319 4.59012 30.147 3.70212 31.083 2.98213C32.043 2.23813 33.159 1.69812 34.431 1.36212C35.703 1.02612 36.975 0.834125 38.247 0.786126C38.823 0.762125 39.423 0.786124 40.047 0.858125C41.223 1.00212 42.171 1.19412 42.891 1.43413C44.547 1.98613 45.915 2.83813 46.995 3.99013C48.099 5.11813 48.891 6.37813 49.371 7.77013C49.851 9.13813 50.091 10.6021 50.091 12.1621C50.115 13.6981 49.935 15.2101 49.551 16.6981C49.191 18.1861 48.627 19.6141 47.859 20.9821C47.091 22.3501 46.083 23.5261 44.835 24.5101C43.587 25.4701 42.147 26.1661 40.515 26.5981C38.907 27.0061 37.251 27.0901 35.547 26.8501ZM36.087 23.1781C38.319 23.5861 40.395 23.1181 42.315 21.7741C44.259 20.4301 45.531 18.4141 46.131 15.7261C46.491 14.0941 46.575 12.5581 46.383 11.1181C46.191 9.65413 45.687 8.38213 44.871 7.30213C44.055 6.19813 43.071 5.41813 41.919 4.96213C41.367 4.74613 40.923 4.60213 40.587 4.53012C40.275 4.45813 39.891 4.42213 39.435 4.42213C39.075 4.42213 38.679 4.41013 38.247 4.38612C37.791 4.36212 37.191 4.39813 36.447 4.49413C35.079 4.66213 33.675 5.51413 32.235 7.05012C30.795 8.56213 29.943 10.5421 29.679 12.9901C29.487 14.6941 29.571 16.2901 29.931 17.7781C30.315 19.2661 31.047 20.4661 32.127 21.3781C33.183 22.2661 34.503 22.8661 36.087 23.1781ZM75.0649 26.8501C74.8969 26.8501 74.7409 26.8261 74.5969 26.7781C73.9009 26.8981 73.3249 26.6941 72.8689 26.1661C72.2209 25.3741 71.5369 24.4861 70.8169 23.5021C70.1209 22.4941 69.5449 21.6301 69.0889 20.9101L67.2889 18.0661L65.6329 15.4741C64.0009 12.9541 62.1289 10.3021 60.0169 7.51813C59.9929 9.53413 60.0289 12.4861 60.1249 16.3741C60.2449 20.2621 60.3049 23.1301 60.3049 24.9781C60.3049 25.4821 60.1249 25.9141 59.7649 26.2741C59.4289 26.6101 59.0089 26.7781 58.5049 26.7781C58.0009 26.7781 57.5689 26.6101 57.2089 26.2741C56.8729 25.9141 56.7049 25.4821 56.7049 24.9781C56.7049 23.5381 56.6449 20.2861 56.5249 15.2221C56.4049 10.1341 56.3929 6.22213 56.4889 3.48613C56.5129 3.12613 56.5969 2.75413 56.7409 2.37012C56.8609 2.03412 57.1009 1.69812 57.4609 1.36212C57.8449 1.09813 58.2889 0.990125 58.7929 1.03812C59.2969 1.08613 59.7049 1.30213 60.0169 1.68613C63.4249 5.93412 66.3049 9.88213 68.6569 13.5301L70.1329 15.8701L71.8249 18.5341L73.3009 20.7301C73.4209 12.7381 73.4449 6.77413 73.3729 2.83813C73.3729 2.33412 73.5409 1.90212 73.8769 1.54212C74.2129 1.18213 74.6329 1.00213 75.1369 1.00213C75.6409 1.00213 76.0729 1.17013 76.4329 1.50613C76.7929 1.84213 76.9729 2.26213 76.9729 2.76613C77.0209 5.76613 76.9849 13.2061 76.8649 25.0861C76.8649 25.5661 76.6849 25.9861 76.3249 26.3461C75.9649 26.6821 75.5449 26.8501 75.0649 26.8501ZM99.3992 26.5261C96.9032 27.2941 94.2392 27.0421 91.4072 25.7701C88.5992 24.4981 86.5352 22.7701 85.2152 20.5861C84.2552 18.9781 83.6552 17.2861 83.4152 15.5101C83.1992 13.7341 83.2952 12.1981 83.7032 10.9021C84.1352 9.58213 84.7952 8.23813 85.6832 6.87012C86.5712 5.50213 87.6152 4.33813 88.8152 3.37812C90.1352 2.37012 91.5512 1.65012 93.0632 1.21812C94.5992 0.786124 96.1592 0.678124 97.7432 0.894125C99.3512 1.11012 100.959 1.77012 102.567 2.87412C104.199 3.95413 105.675 5.45413 106.995 7.37412C107.283 7.78213 107.379 8.23813 107.283 8.74213C107.187 9.22213 106.923 9.60613 106.491 9.89413C106.083 10.1821 105.639 10.2781 105.159 10.1821C104.679 10.0861 104.295 9.83413 104.007 9.42613C102.975 7.93813 101.859 6.78613 100.659 5.97013C99.4832 5.13013 98.3312 4.65012 97.2032 4.53012C96.0752 4.38613 94.9952 4.45813 93.9632 4.74613C92.9792 5.05813 92.0192 5.57413 91.0832 6.29413C89.8112 7.27813 88.8152 8.46613 88.0952 9.85813C87.3752 11.0581 87.0152 12.4501 87.0152 14.0341C87.0152 15.6181 87.4592 17.1661 88.3472 18.6781C89.2832 20.2381 90.7712 21.4741 92.8112 22.3861C94.8752 23.2981 96.7232 23.5141 98.3552 23.0341C99.8432 22.5781 101.043 21.7141 101.955 20.4421C102.891 19.1461 103.347 17.7301 103.323 16.1941C101.211 16.2181 98.9312 16.2901 96.4832 16.4101C96.0032 16.4341 95.5712 16.2781 95.1872 15.9421C94.8272 15.6061 94.6352 15.1861 94.6112 14.6821C94.5872 14.1781 94.7432 13.7341 95.0792 13.3501C95.4152 12.9661 95.8352 12.7621 96.3392 12.7381C99.3872 12.5941 102.291 12.5221 105.051 12.5221C105.555 12.5221 105.987 12.7021 106.347 13.0621C106.707 13.4221 106.887 13.8541 106.887 14.3581V14.6101C107.295 17.2021 106.779 19.6501 105.339 21.9541C103.923 24.2341 101.943 25.7581 99.3992 26.5261ZM130.647 26.5981C127.407 26.6461 122.307 26.6101 115.347 26.4901C114.867 26.4901 114.447 26.3101 114.087 25.9501C113.751 25.5901 113.583 25.1701 113.583 24.6901C113.439 24.4021 113.367 24.1021 113.367 23.7901C113.415 22.1581 113.439 19.8061 113.439 16.7341C113.439 13.6621 113.451 11.5741 113.475 10.4701C113.475 10.0621 113.463 9.35413 113.439 8.34613C113.415 7.31413 113.415 6.36613 113.439 5.50213C113.463 4.61413 113.535 3.78613 113.655 3.01813C113.703 2.68213 113.847 2.38213 114.087 2.11813C114.327 1.85413 114.615 1.67412 114.951 1.57812C115.263 1.29013 115.647 1.13413 116.103 1.11013C117.879 1.06213 120.411 1.02612 123.699 1.00213C127.011 0.978126 129.267 0.966126 130.467 0.966126C130.971 0.966126 131.391 1.14613 131.727 1.50613C132.087 1.84213 132.267 2.26213 132.267 2.76613C132.267 3.27013 132.087 3.70212 131.727 4.06212C131.391 4.39812 130.971 4.56612 130.467 4.56612C129.195 4.56612 127.047 4.57812 124.023 4.60213C121.023 4.62613 118.707 4.65013 117.075 4.67413C117.003 5.01013 116.979 5.93413 117.003 7.44613C117.051 8.93413 117.075 9.96613 117.075 10.5421V12.0181C118.251 11.9461 119.499 11.9101 120.819 11.9101C122.163 11.9101 123.675 11.9221 125.355 11.9461C127.059 11.9701 128.319 11.9821 129.135 11.9821C129.639 11.9821 130.059 12.1621 130.395 12.5221C130.755 12.8581 130.935 13.2781 130.935 13.7821C130.935 14.2861 130.755 14.7181 130.395 15.0781C130.059 15.4141 129.639 15.5821 129.135 15.5821C128.295 15.5821 127.023 15.5701 125.319 15.5461C123.639 15.5221 122.139 15.5101 120.819 15.5101C119.499 15.5101 118.239 15.5461 117.039 15.6181C117.039 19.0261 117.027 21.4621 117.003 22.9261C122.859 23.0221 127.383 23.0461 130.575 22.9981C131.079 22.9981 131.511 23.1661 131.871 23.5021C132.231 23.8381 132.411 24.2581 132.411 24.7621C132.411 25.2661 132.243 25.6981 131.907 26.0581C131.571 26.4181 131.151 26.5981 130.647 26.5981ZM157.186 26.8501C157.018 26.8501 156.862 26.8261 156.718 26.7781C156.022 26.8981 155.446 26.6941 154.99 26.1661C154.342 25.3741 153.658 24.4861 152.938 23.5021C152.242 22.4941 151.666 21.6301 151.21 20.9101L149.41 18.0661L147.754 15.4741C146.122 12.9541 144.25 10.3021 142.138 7.51813C142.114 9.53413 142.15 12.4861 142.246 16.3741C142.366 20.2621 142.426 23.1301 142.426 24.9781C142.426 25.4821 142.246 25.9141 141.886 26.2741C141.55 26.6101 141.13 26.7781 140.626 26.7781C140.122 26.7781 139.69 26.6101 139.33 26.2741C138.994 25.9141 138.826 25.4821 138.826 24.9781C138.826 23.5381 138.766 20.2861 138.646 15.2221C138.526 10.1341 138.514 6.22213 138.61 3.48613C138.634 3.12613 138.718 2.75413 138.862 2.37012C138.982 2.03412 139.222 1.69812 139.582 1.36212C139.966 1.09813 140.41 0.990125 140.914 1.03812C141.418 1.08613 141.826 1.30213 142.138 1.68613C145.546 5.93412 148.426 9.88213 150.778 13.5301L152.254 15.8701L153.946 18.5341L155.422 20.7301C155.542 12.7381 155.566 6.77413 155.494 2.83813C155.494 2.33412 155.662 1.90212 155.998 1.54212C156.334 1.18213 156.754 1.00213 157.258 1.00213C157.762 1.00213 158.194 1.17013 158.554 1.50613C158.914 1.84213 159.094 2.26213 159.094 2.76613C159.142 5.76613 159.106 13.2061 158.986 25.0861C158.986 25.5661 158.806 25.9861 158.446 26.3461C158.086 26.6821 157.666 26.8501 157.186 26.8501ZM181.52 26.5261C179.024 27.2941 176.36 27.0421 173.528 25.7701C170.72 24.4981 168.656 22.7701 167.336 20.5861C166.376 18.9781 165.776 17.2861 165.536 15.5101C165.32 13.7341 165.416 12.1981 165.824 10.9021C166.256 9.58213 166.916 8.23813 167.804 6.87012C168.692 5.50213 169.736 4.33813 170.936 3.37812C172.256 2.37012 173.672 1.65012 175.184 1.21812C176.72 0.786124 178.28 0.678124 179.864 0.894125C181.472 1.11012 183.08 1.77012 184.688 2.87412C186.32 3.95413 187.796 5.45413 189.116 7.37412C189.404 7.78213 189.5 8.23813 189.404 8.74213C189.308 9.22213 189.044 9.60613 188.612 9.89413C188.204 10.1821 187.76 10.2781 187.28 10.1821C186.8 10.0861 186.416 9.83413 186.128 9.42613C185.096 7.93813 183.98 6.78613 182.78 5.97013C181.604 5.13013 180.452 4.65012 179.324 4.53012C178.196 4.38613 177.116 4.45813 176.084 4.74613C175.1 5.05813 174.14 5.57413 173.204 6.29413C171.932 7.27813 170.936 8.46613 170.216 9.85813C169.496 11.0581 169.136 12.4501 169.136 14.0341C169.136 15.6181 169.58 17.1661 170.468 18.6781C171.404 20.2381 172.892 21.4741 174.932 22.3861C176.996 23.2981 178.844 23.5141 180.476 23.0341C181.964 22.5781 183.164 21.7141 184.076 20.4421C185.012 19.1461 185.468 17.7301 185.444 16.1941C183.332 16.2181 181.052 16.2901 178.604 16.4101C178.124 16.4341 177.692 16.2781 177.308 15.9421C176.948 15.6061 176.756 15.1861 176.732 14.6821C176.708 14.1781 176.864 13.7341 177.2 13.3501C177.536 12.9661 177.956 12.7621 178.46 12.7381C181.508 12.5941 184.412 12.5221 187.172 12.5221C187.676 12.5221 188.108 12.7021 188.468 13.0621C188.828 13.4221 189.008 13.8541 189.008 14.3581V14.6101C189.416 17.2021 188.9 19.6501 187.46 21.9541C186.044 24.2341 184.064 25.7581 181.52 26.5261ZM195.38 26.8141C194.876 26.8381 194.444 26.6821 194.084 26.3461C193.724 25.9861 193.532 25.5661 193.508 25.0861C193.484 24.5821 193.64 24.1501 193.976 23.7901C194.336 23.4301 194.756 23.2381 195.236 23.2141L196.028 23.1781C196.028 15.7141 196.004 9.51013 195.956 4.56612H195.38C194.876 4.56612 194.456 4.38612 194.12 4.02612C193.784 3.66613 193.616 3.23413 193.616 2.73012C193.616 2.22613 193.796 1.80613 194.156 1.47013C194.516 1.13413 194.948 0.966126 195.452 0.966126C196.676 0.990125 198.164 1.01413 199.916 1.03812C200.396 1.03812 200.804 1.21812 201.14 1.57812C201.5 1.93813 201.68 2.37013 201.68 2.87412C201.68 3.35413 201.5 3.77413 201.14 4.13413C200.78 4.47013 200.348 4.63813 199.844 4.63813H199.556C199.604 9.55813 199.628 15.7261 199.628 23.1421H200.348C200.852 23.1421 201.272 23.3221 201.608 23.6821C201.968 24.0181 202.148 24.4381 202.148 24.9421C202.148 25.4461 201.968 25.8781 201.608 26.2381C201.272 26.5741 200.852 26.7421 200.348 26.7421C198.5 26.7421 196.844 26.7661 195.38 26.8141ZM226.721 26.8501C226.553 26.8501 226.397 26.8261 226.253 26.7781C225.557 26.8981 224.981 26.6941 224.525 26.1661C223.877 25.3741 223.193 24.4861 222.473 23.5021C221.777 22.4941 221.201 21.6301 220.745 20.9101L218.945 18.0661L217.289 15.4741C215.657 12.9541 213.785 10.3021 211.673 7.51813C211.649 9.53413 211.685 12.4861 211.781 16.3741C211.901 20.2621 211.961 23.1301 211.961 24.9781C211.961 25.4821 211.781 25.9141 211.421 26.2741C211.085 26.6101 210.665 26.7781 210.161 26.7781C209.657 26.7781 209.225 26.6101 208.865 26.2741C208.529 25.9141 208.361 25.4821 208.361 24.9781C208.361 23.5381 208.301 20.2861 208.181 15.2221C208.061 10.1341 208.049 6.22213 208.145 3.48613C208.169 3.12613 208.253 2.75413 208.397 2.37012C208.517 2.03412 208.757 1.69812 209.117 1.36212C209.501 1.09813 209.945 0.990125 210.449 1.03812C210.953 1.08613 211.361 1.30213 211.673 1.68613C215.081 5.93412 217.961 9.88213 220.313 13.5301L221.789 15.8701L223.481 18.5341L224.957 20.7301C225.077 12.7381 225.101 6.77413 225.029 2.83813C225.029 2.33412 225.197 1.90212 225.533 1.54212C225.869 1.18213 226.289 1.00213 226.793 1.00213C227.297 1.00213 227.729 1.17013 228.089 1.50613C228.449 1.84213 228.629 2.26213 228.629 2.76613C228.677 5.76613 228.641 13.2061 228.521 25.0861C228.521 25.5661 228.341 25.9861 227.981 26.3461C227.621 26.6821 227.201 26.8501 226.721 26.8501Z" fill="#101010"/>
</svg>
