<svg width="229" height="27" viewBox="0 0 229 27" fill="none" xmlns="http://www.w3.org/2000/svg">
<path d="M2.508 26.572C2.148 26.596 1.812 26.512 1.5 26.32C1.116 26.2 0.804 25.984 0.564 25.672C0.348 25.336 0.24 24.964 0.24 24.556C0.24 23.788 0.3 20.032 0.42 13.288C0.444 12.184 0.408 10.42 0.312 7.996C0.216 5.62 0.204 3.772 0.276 2.452C0.3 1.948 0.492 1.528 0.852 1.192C1.236 0.856 1.668 0.7 2.148 0.723999H2.292C2.508 0.603999 2.736 0.531999 2.976 0.507998C4.08 0.411999 4.956 0.351999 5.604 0.327998C6.252 0.279999 7.164 0.255999 8.34 0.255999C9.516 0.255999 10.524 0.339998 11.364 0.507998C12.204 0.651999 13.128 0.903999 14.136 1.264C15.168 1.624 16.08 2.092 16.872 2.668C18.552 3.892 19.776 5.464 20.544 7.384C21.336 9.28 21.696 11.284 21.624 13.396C21.552 15.436 21.096 17.404 20.256 19.3C19.392 21.172 18.204 22.708 16.692 23.908C14.892 25.348 12.456 26.188 9.384 26.428C8.472 26.5 7.272 26.536 5.784 26.536C4.176 26.536 3.084 26.548 2.508 26.572ZM5.784 22.936C7.2 22.936 8.304 22.9 9.096 22.828C11.28 22.66 12.996 22.084 14.244 21.1C15.3 20.26 16.14 19.144 16.764 17.752C17.412 16.336 17.76 14.836 17.808 13.252C17.88 11.668 17.64 10.204 17.088 8.86C16.512 7.492 15.672 6.412 14.568 5.62C13.68 4.972 12.624 4.504 11.4 4.216C10.152 3.928 8.94 3.808 7.764 3.856C6.588 3.88 5.28 3.952 3.84 4.072C3.816 4.768 3.84 6.028 3.912 7.852C4.008 10.468 4.044 12.304 4.02 13.36C4.02 14.08 4.008 15.088 3.984 16.384C3.96 17.656 3.936 18.832 3.912 19.912C3.888 20.992 3.876 22 3.876 22.936H5.784ZM35.547 26.608C34.299 26.44 33.159 26.116 32.127 25.636C31.095 25.132 30.219 24.52 29.499 23.8C28.779 23.08 28.143 22.264 27.591 21.352C27.063 20.44 26.679 19.492 26.439 18.508C26.223 17.5 26.067 16.468 25.971 15.412C25.899 14.356 25.923 13.336 26.043 12.352C26.187 11.104 26.463 9.892 26.871 8.716C27.303 7.54 27.879 6.436 28.599 5.404C29.319 4.348 30.147 3.46 31.083 2.74C32.043 1.996 33.159 1.456 34.431 1.12C35.703 0.783998 36.975 0.591999 38.247 0.543999C38.823 0.519998 39.423 0.543998 40.047 0.615999C41.223 0.759998 42.171 0.951998 42.891 1.192C44.547 1.744 45.915 2.596 46.995 3.748C48.099 4.876 48.891 6.136 49.371 7.528C49.851 8.896 50.091 10.36 50.091 11.92C50.115 13.456 49.935 14.968 49.551 16.456C49.191 17.944 48.627 19.372 47.859 20.74C47.091 22.108 46.083 23.284 44.835 24.268C43.587 25.228 42.147 25.924 40.515 26.356C38.907 26.764 37.251 26.848 35.547 26.608ZM36.087 22.936C38.319 23.344 40.395 22.876 42.315 21.532C44.259 20.188 45.531 18.172 46.131 15.484C46.491 13.852 46.575 12.316 46.383 10.876C46.191 9.412 45.687 8.14 44.871 7.06C44.055 5.956 43.071 5.176 41.919 4.72C41.367 4.504 40.923 4.36 40.587 4.288C40.275 4.216 39.891 4.18 39.435 4.18C39.075 4.18 38.679 4.168 38.247 4.144C37.791 4.12 37.191 4.156 36.447 4.252C35.079 4.42 33.675 5.272 32.235 6.808C30.795 8.32 29.943 10.3 29.679 12.748C29.487 14.452 29.571 16.048 29.931 17.536C30.315 19.024 31.047 20.224 32.127 21.136C33.183 22.024 34.503 22.624 36.087 22.936ZM75.0649 26.608C74.8969 26.608 74.7409 26.584 74.5969 26.536C73.9009 26.656 73.3249 26.452 72.8689 25.924C72.2209 25.132 71.5369 24.244 70.8169 23.26C70.1209 22.252 69.5449 21.388 69.0889 20.668L67.2889 17.824L65.6329 15.232C64.0009 12.712 62.1289 10.06 60.0169 7.276C59.9929 9.292 60.0289 12.244 60.1249 16.132C60.2449 20.02 60.3049 22.888 60.3049 24.736C60.3049 25.24 60.1249 25.672 59.7649 26.032C59.4289 26.368 59.0089 26.536 58.5049 26.536C58.0009 26.536 57.5689 26.368 57.2089 26.032C56.8729 25.672 56.7049 25.24 56.7049 24.736C56.7049 23.296 56.6449 20.044 56.5249 14.98C56.4049 9.892 56.3929 5.98 56.4889 3.244C56.5129 2.884 56.5969 2.512 56.7409 2.128C56.8609 1.792 57.1009 1.456 57.4609 1.12C57.8449 0.855999 58.2889 0.747999 58.7929 0.795998C59.2969 0.843999 59.7049 1.06 60.0169 1.444C63.4249 5.692 66.3049 9.64 68.6569 13.288L70.1329 15.628L71.8249 18.292L73.3009 20.488C73.4209 12.496 73.4449 6.532 73.3729 2.596C73.3729 2.092 73.5409 1.66 73.8769 1.3C74.2129 0.939999 74.6329 0.759999 75.1369 0.759999C75.6409 0.759999 76.0729 0.927999 76.4329 1.264C76.7929 1.6 76.9729 2.02 76.9729 2.524C77.0209 5.524 76.9849 12.964 76.8649 24.844C76.8649 25.324 76.6849 25.744 76.3249 26.104C75.9649 26.44 75.5449 26.608 75.0649 26.608ZM99.3992 26.284C96.9032 27.052 94.2392 26.8 91.4072 25.528C88.5992 24.256 86.5352 22.528 85.2152 20.344C84.2552 18.736 83.6552 17.044 83.4152 15.268C83.1992 13.492 83.2952 11.956 83.7032 10.66C84.1352 9.34 84.7952 7.996 85.6832 6.628C86.5712 5.26 87.6152 4.096 88.8152 3.136C90.1352 2.128 91.5512 1.408 93.0632 0.975998C94.5992 0.543998 96.1592 0.435998 97.7432 0.651998C99.3512 0.867998 100.959 1.528 102.567 2.632C104.199 3.712 105.675 5.212 106.995 7.132C107.283 7.54 107.379 7.996 107.283 8.5C107.187 8.98 106.923 9.364 106.491 9.652C106.083 9.94 105.639 10.036 105.159 9.94C104.679 9.844 104.295 9.592 104.007 9.184C102.975 7.696 101.859 6.544 100.659 5.728C99.4832 4.888 98.3312 4.408 97.2032 4.288C96.0752 4.144 94.9952 4.216 93.9632 4.504C92.9792 4.816 92.0192 5.332 91.0832 6.052C89.8112 7.036 88.8152 8.224 88.0952 9.616C87.3752 10.816 87.0152 12.208 87.0152 13.792C87.0152 15.376 87.4592 16.924 88.3472 18.436C89.2832 19.996 90.7712 21.232 92.8112 22.144C94.8752 23.056 96.7232 23.272 98.3552 22.792C99.8432 22.336 101.043 21.472 101.955 20.2C102.891 18.904 103.347 17.488 103.323 15.952C101.211 15.976 98.9312 16.048 96.4832 16.168C96.0032 16.192 95.5712 16.036 95.1872 15.7C94.8272 15.364 94.6352 14.944 94.6112 14.44C94.5872 13.936 94.7432 13.492 95.0792 13.108C95.4152 12.724 95.8352 12.52 96.3392 12.496C99.3872 12.352 102.291 12.28 105.051 12.28C105.555 12.28 105.987 12.46 106.347 12.82C106.707 13.18 106.887 13.612 106.887 14.116V14.368C107.295 16.96 106.779 19.408 105.339 21.712C103.923 23.992 101.943 25.516 99.3992 26.284ZM130.647 26.356C127.407 26.404 122.307 26.368 115.347 26.248C114.867 26.248 114.447 26.068 114.087 25.708C113.751 25.348 113.583 24.928 113.583 24.448C113.439 24.16 113.367 23.86 113.367 23.548C113.415 21.916 113.439 19.564 113.439 16.492C113.439 13.42 113.451 11.332 113.475 10.228C113.475 9.82 113.463 9.112 113.439 8.104C113.415 7.072 113.415 6.124 113.439 5.26C113.463 4.372 113.535 3.544 113.655 2.776C113.703 2.44 113.847 2.14 114.087 1.876C114.327 1.612 114.615 1.432 114.951 1.336C115.263 1.048 115.647 0.891999 116.103 0.868C117.879 0.819999 120.411 0.783998 123.699 0.759999C127.011 0.735999 129.267 0.723999 130.467 0.723999C130.971 0.723999 131.391 0.903999 131.727 1.264C132.087 1.6 132.267 2.02 132.267 2.524C132.267 3.028 132.087 3.46 131.727 3.82C131.391 4.156 130.971 4.324 130.467 4.324C129.195 4.324 127.047 4.336 124.023 4.36C121.023 4.384 118.707 4.408 117.075 4.432C117.003 4.768 116.979 5.692 117.003 7.204C117.051 8.692 117.075 9.724 117.075 10.3V11.776C118.251 11.704 119.499 11.668 120.819 11.668C122.163 11.668 123.675 11.68 125.355 11.704C127.059 11.728 128.319 11.74 129.135 11.74C129.639 11.74 130.059 11.92 130.395 12.28C130.755 12.616 130.935 13.036 130.935 13.54C130.935 14.044 130.755 14.476 130.395 14.836C130.059 15.172 129.639 15.34 129.135 15.34C128.295 15.34 127.023 15.328 125.319 15.304C123.639 15.28 122.139 15.268 120.819 15.268C119.499 15.268 118.239 15.304 117.039 15.376C117.039 18.784 117.027 21.22 117.003 22.684C122.859 22.78 127.383 22.804 130.575 22.756C131.079 22.756 131.511 22.924 131.871 23.26C132.231 23.596 132.411 24.016 132.411 24.52C132.411 25.024 132.243 25.456 131.907 25.816C131.571 26.176 131.151 26.356 130.647 26.356ZM157.186 26.608C157.018 26.608 156.862 26.584 156.718 26.536C156.022 26.656 155.446 26.452 154.99 25.924C154.342 25.132 153.658 24.244 152.938 23.26C152.242 22.252 151.666 21.388 151.21 20.668L149.41 17.824L147.754 15.232C146.122 12.712 144.25 10.06 142.138 7.276C142.114 9.292 142.15 12.244 142.246 16.132C142.366 20.02 142.426 22.888 142.426 24.736C142.426 25.24 142.246 25.672 141.886 26.032C141.55 26.368 141.13 26.536 140.626 26.536C140.122 26.536 139.69 26.368 139.33 26.032C138.994 25.672 138.826 25.24 138.826 24.736C138.826 23.296 138.766 20.044 138.646 14.98C138.526 9.892 138.514 5.98 138.61 3.244C138.634 2.884 138.718 2.512 138.862 2.128C138.982 1.792 139.222 1.456 139.582 1.12C139.966 0.855999 140.41 0.747999 140.914 0.795998C141.418 0.843999 141.826 1.06 142.138 1.444C145.546 5.692 148.426 9.64 150.778 13.288L152.254 15.628L153.946 18.292L155.422 20.488C155.542 12.496 155.566 6.532 155.494 2.596C155.494 2.092 155.662 1.66 155.998 1.3C156.334 0.939999 156.754 0.759999 157.258 0.759999C157.762 0.759999 158.194 0.927999 158.554 1.264C158.914 1.6 159.094 2.02 159.094 2.524C159.142 5.524 159.106 12.964 158.986 24.844C158.986 25.324 158.806 25.744 158.446 26.104C158.086 26.44 157.666 26.608 157.186 26.608ZM181.52 26.284C179.024 27.052 176.36 26.8 173.528 25.528C170.72 24.256 168.656 22.528 167.336 20.344C166.376 18.736 165.776 17.044 165.536 15.268C165.32 13.492 165.416 11.956 165.824 10.66C166.256 9.34 166.916 7.996 167.804 6.628C168.692 5.26 169.736 4.096 170.936 3.136C172.256 2.128 173.672 1.408 175.184 0.975998C176.72 0.543998 178.28 0.435998 179.864 0.651998C181.472 0.867998 183.08 1.528 184.688 2.632C186.32 3.712 187.796 5.212 189.116 7.132C189.404 7.54 189.5 7.996 189.404 8.5C189.308 8.98 189.044 9.364 188.612 9.652C188.204 9.94 187.76 10.036 187.28 9.94C186.8 9.844 186.416 9.592 186.128 9.184C185.096 7.696 183.98 6.544 182.78 5.728C181.604 4.888 180.452 4.408 179.324 4.288C178.196 4.144 177.116 4.216 176.084 4.504C175.1 4.816 174.14 5.332 173.204 6.052C171.932 7.036 170.936 8.224 170.216 9.616C169.496 10.816 169.136 12.208 169.136 13.792C169.136 15.376 169.58 16.924 170.468 18.436C171.404 19.996 172.892 21.232 174.932 22.144C176.996 23.056 178.844 23.272 180.476 22.792C181.964 22.336 183.164 21.472 184.076 20.2C185.012 18.904 185.468 17.488 185.444 15.952C183.332 15.976 181.052 16.048 178.604 16.168C178.124 16.192 177.692 16.036 177.308 15.7C176.948 15.364 176.756 14.944 176.732 14.44C176.708 13.936 176.864 13.492 177.2 13.108C177.536 12.724 177.956 12.52 178.46 12.496C181.508 12.352 184.412 12.28 187.172 12.28C187.676 12.28 188.108 12.46 188.468 12.82C188.828 13.18 189.008 13.612 189.008 14.116V14.368C189.416 16.96 188.9 19.408 187.46 21.712C186.044 23.992 184.064 25.516 181.52 26.284ZM195.38 26.572C194.876 26.596 194.444 26.44 194.084 26.104C193.724 25.744 193.532 25.324 193.508 24.844C193.484 24.34 193.64 23.908 193.976 23.548C194.336 23.188 194.756 22.996 195.236 22.972L196.028 22.936C196.028 15.472 196.004 9.268 195.956 4.324H195.38C194.876 4.324 194.456 4.144 194.12 3.784C193.784 3.424 193.616 2.992 193.616 2.488C193.616 1.984 193.796 1.564 194.156 1.228C194.516 0.891999 194.948 0.723999 195.452 0.723999C196.676 0.747999 198.164 0.771999 199.916 0.795998C200.396 0.795998 200.804 0.975998 201.14 1.336C201.5 1.696 201.68 2.128 201.68 2.632C201.68 3.112 201.5 3.532 201.14 3.892C200.78 4.228 200.348 4.396 199.844 4.396H199.556C199.604 9.316 199.628 15.484 199.628 22.9H200.348C200.852 22.9 201.272 23.08 201.608 23.44C201.968 23.776 202.148 24.196 202.148 24.7C202.148 25.204 201.968 25.636 201.608 25.996C201.272 26.332 200.852 26.5 200.348 26.5C198.5 26.5 196.844 26.524 195.38 26.572ZM226.721 26.608C226.553 26.608 226.397 26.584 226.253 26.536C225.557 26.656 224.981 26.452 224.525 25.924C223.877 25.132 223.193 24.244 222.473 23.26C221.777 22.252 221.201 21.388 220.745 20.668L218.945 17.824L217.289 15.232C215.657 12.712 213.785 10.06 211.673 7.276C211.649 9.292 211.685 12.244 211.781 16.132C211.901 20.02 211.961 22.888 211.961 24.736C211.961 25.24 211.781 25.672 211.421 26.032C211.085 26.368 210.665 26.536 210.161 26.536C209.657 26.536 209.225 26.368 208.865 26.032C208.529 25.672 208.361 25.24 208.361 24.736C208.361 23.296 208.301 20.044 208.181 14.98C208.061 9.892 208.049 5.98 208.145 3.244C208.169 2.884 208.253 2.512 208.397 2.128C208.517 1.792 208.757 1.456 209.117 1.12C209.501 0.855999 209.945 0.747999 210.449 0.795998C210.953 0.843999 211.361 1.06 211.673 1.444C215.081 5.692 217.961 9.64 220.313 13.288L221.789 15.628L223.481 18.292L224.957 20.488C225.077 12.496 225.101 6.532 225.029 2.596C225.029 2.092 225.197 1.66 225.533 1.3C225.869 0.939999 226.289 0.759999 226.793 0.759999C227.297 0.759999 227.729 0.927999 228.089 1.264C228.449 1.6 228.629 2.02 228.629 2.524C228.677 5.524 228.641 12.964 228.521 24.844C228.521 25.324 228.341 25.744 227.981 26.104C227.621 26.44 227.201 26.608 226.721 26.608Z" fill="#064775"/>
</svg>
