<svg width="18" height="17" viewBox="0 0 18 17" fill="none" xmlns="http://www.w3.org/2000/svg">
<path d="M16.7369 5.89649L11.7779 5.17579L9.5611 0.681648C9.50056 0.558601 9.40095 0.458992 9.2779 0.398445C8.96931 0.246101 8.59431 0.373054 8.44001 0.681648L6.22321 5.17579L1.26423 5.89649C1.12751 5.91602 1.00251 5.98048 0.906805 6.07813C0.791106 6.19705 0.72735 6.35704 0.729547 6.52294C0.731745 6.68884 0.799715 6.84709 0.918524 6.9629L4.50642 10.4609L3.65876 15.4004C3.63888 15.5153 3.6516 15.6335 3.69546 15.7415C3.73933 15.8496 3.81259 15.9432 3.90694 16.0117C4.00129 16.0802 4.11295 16.1209 4.22927 16.1292C4.34558 16.1375 4.46189 16.113 4.56501 16.0586L9.00056 13.7266L13.4361 16.0586C13.5572 16.1231 13.6978 16.1445 13.8326 16.1211C14.1724 16.0625 14.4009 15.7402 14.3424 15.4004L13.4947 10.4609L17.0826 6.9629C17.1802 6.8672 17.2447 6.74219 17.2642 6.60548C17.317 6.26368 17.0787 5.94727 16.7369 5.89649Z" fill="#FEFEFE"/>
</svg>
