<svg width="1436" height="721" viewBox="0 0 1436 721" fill="none" xmlns="http://www.w3.org/2000/svg">
<path d="M1437.5 717.993L0.527992 720.772C0.527992 720.772 0.527229 353.612 0.527229 313.666L0.528725 232.065L0.526367 191.743L0.526783 109.071L0.526457 75.3771L0.527626 47.9357C8.79325 36.8202 26.3797 18.4101 30.2488 0C47.1317 3.12624 59.9699 13.1997 71.7528 27.0941C71.9287 27.0941 71.9287 27.4415 72.1046 27.4415C72.808 28.1362 73.5114 29.1782 74.039 29.873C85.1185 43.42 95.3187 60.4406 107.102 78.156C122.578 101.429 140.868 116.713 154.761 142.07C155.113 142.765 155.64 143.807 155.992 144.502C167.951 166.038 178.678 182.017 194.33 193.827C224.931 217.1 259.224 221.616 288.242 252.183C303.19 212.584 335.901 229.952 354.543 201.469C379.515 200.427 402.905 183.059 425.768 167.08C448.982 150.754 473.955 143.807 492.772 111.155C496.993 103.861 501.214 96.5661 505.434 89.2715C521.086 62.1775 537.618 35.4307 556.435 18.0628C575.428 56.6197 602.512 94.4819 628.539 114.629C644.543 127.134 661.954 135.47 677.078 152.144C678.309 153.533 679.54 154.923 680.771 156.312C683.233 154.228 686.047 152.491 688.861 151.102C697.127 146.586 705.92 142.765 711.196 129.913C727.727 133.386 744.61 153.533 758.151 170.554C769.759 185.143 783.3 198.343 797.193 207.374C804.052 211.89 810.911 215.363 817.594 217.447C836.587 223.7 848.37 230.647 865.604 244.194C884.774 259.478 903.064 259.478 922.585 270.593C929.092 274.067 950.899 233.773 958.285 224.047C965.847 213.974 974.64 207.027 980.62 193.479C989.413 215.711 1008.76 224.395 1021.95 232.384C1038.13 242.457 1052.02 253.573 1069.08 257.394C1081.57 260.173 1084.91 241.762 1096.69 233.426C1103.2 228.91 1109.88 228.91 1116.21 222.658C1136.96 240.373 1155.43 238.636 1177.06 249.404C1187.08 254.267 1208.89 237.247 1218.56 228.215C1231.75 215.711 1245.65 204.595 1260.07 204.595C1274.66 204.595 1291.55 226.826 1305.27 235.857C1326.19 250.099 1348.35 254.267 1369.1 267.814C1388.8 280.667 1406.21 291.088 1427.14 295.256L1437.5 318.529V400.159V717.993Z" fill="url(#paint0_linear)"/>
<defs>
<linearGradient id="paint0_linear" x1="617.02" y1="673.381" x2="617.02" y2="50.6392" gradientUnits="userSpaceOnUse">
<stop stop-color="#98D4ED"/>
<stop offset="0.2416" stop-color="#7FC3E2"/>
<stop offset="0.7517" stop-color="#4099C4"/>
<stop offset="1" stop-color="#1F83B5"/>
</linearGradient>
</defs>
</svg>
