<svg width="517" height="1089" viewBox="0 0 517 1089" fill="none" xmlns="http://www.w3.org/2000/svg">
<g clip-path="url(#clip0)">
<path fill-rule="evenodd" clip-rule="evenodd" d="M164.376 360.866L150.458 344.392C141.292 303.253 133.258 257.373 127.525 199.714C119.34 256.545 112.928 308.867 101.651 344.392L91.6553 363.397C91.6553 363.397 122.358 340.158 164.376 360.866Z" fill="#A595FF"/>
<path fill-rule="evenodd" clip-rule="evenodd" d="M91.6553 363.397C91.6553 363.397 125.375 338.364 164.376 360.866C164.376 360.866 130.165 380.055 91.6553 363.397Z" fill="#250CB0"/>
<path fill-rule="evenodd" clip-rule="evenodd" d="M146.271 470.111L142.876 933.916H83.8477C83.8477 933.916 100.029 470.111 100.255 470.065C124.244 462.196 146.271 470.111 146.271 470.111Z" fill="#A190FF"/>
<path fill-rule="evenodd" clip-rule="evenodd" d="M146.459 429.892L135.521 428.925L131.523 434.861L133.823 439.463L132.164 424.001H117.944L115.945 436.288C116.209 431.732 115.87 433.389 117.605 429.063L106.78 431.088L104.818 446.596L145.139 449.771L146.459 429.892Z" fill="#250CB0"/>
<path fill-rule="evenodd" clip-rule="evenodd" d="M100.896 454.465L104.027 367.584C104.027 367.584 127.224 354.101 146.799 365.422L145.215 449.863L100.896 454.465Z" fill="#E2F0F9"/>
<path fill-rule="evenodd" clip-rule="evenodd" d="M93.8809 457.088L96.1817 433.803C96.1817 433.803 100.368 426.624 106.026 424.139L105.724 445.215L113.192 443.144L113.985 420.78C113.985 420.78 122.622 415.626 134.277 420.504L133.862 443.513L142.311 444.847L144.083 423.817C144.083 423.817 149.515 426.072 152.495 432.791V456.627C152.532 456.719 134.088 441.718 93.8809 457.088Z" fill="#91BBFF"/>
<path fill-rule="evenodd" clip-rule="evenodd" d="M144.158 423.909L140.726 425.704L139.368 444.479L142.386 444.939L144.158 423.909Z" fill="#E4FBFF"/>
<path fill-rule="evenodd" clip-rule="evenodd" d="M106.026 424.185L109.27 426.578L108.628 444.479L105.762 445.261L106.026 424.185Z" fill="#E4FBFF"/>
<path fill-rule="evenodd" clip-rule="evenodd" d="M104.027 367.584L96.9736 362.339C96.9736 362.339 132.843 343.287 156.153 361.878L146.799 365.422C146.799 365.422 128.883 355.39 104.027 367.584Z" fill="#286FB4"/>
<path fill-rule="evenodd" clip-rule="evenodd" d="M96.9736 362.338L103.386 384.979L104.215 366.802L96.9736 362.338Z" fill="#286FB4"/>
<path fill-rule="evenodd" clip-rule="evenodd" d="M130.241 353.779L129.449 382.724L137.785 354.239C137.785 354.239 131.825 353.733 130.241 353.779Z" fill="#286FB4"/>
<path fill-rule="evenodd" clip-rule="evenodd" d="M129.449 382.678H134.164L145.366 355.988C145.366 355.988 142.198 354.746 137.785 354.193L129.449 382.678Z" fill="#E2F0F9"/>
<path fill-rule="evenodd" clip-rule="evenodd" d="M156.153 361.924L146.497 382.586L146.799 365.422L156.153 361.924Z" fill="#286FB4"/>
<path fill-rule="evenodd" clip-rule="evenodd" d="M146.422 386.037L157.134 364.133L156.153 361.924C145.026 385.715 146.497 381.251 146.422 386.037Z" fill="#E2F0F9"/>
<path fill-rule="evenodd" clip-rule="evenodd" d="M96.9738 362.338C95.88 366.296 95.1256 361.556 103.273 388.982C103.461 383.644 104.442 388.614 96.9738 362.338Z" fill="#E2F0F9"/>
<path fill-rule="evenodd" clip-rule="evenodd" d="M109.382 418.525C109.307 394.044 105.799 388.2 104.14 420.826L109.382 418.525Z" fill="#286FB4"/>
<path fill-rule="evenodd" clip-rule="evenodd" d="M106.781 419.676C106.781 419.676 105.913 405.687 108.591 402.511C108.591 402.511 109.496 410.38 109.421 418.525L106.781 419.676Z" fill="#250CB0"/>
<path opacity="0.3" fill-rule="evenodd" clip-rule="evenodd" d="M91.6553 363.397L101.651 344.346C101.651 344.346 124.658 327.918 150.42 344.346L164.338 360.82C164.375 360.866 126.695 337.075 91.6553 363.397Z" fill="#E2F0F9"/>
<path fill-rule="evenodd" clip-rule="evenodd" d="M93.8057 467.395L99.9914 477.381C99.9914 477.381 123.113 465.785 146.196 475.494L152.419 468.454C152.419 468.454 133.749 450.461 93.8057 467.395Z" fill="#224799"/>
<path fill-rule="evenodd" clip-rule="evenodd" d="M93.8057 467.395C93.8057 467.395 127.488 451.612 152.419 468.408L152.533 456.673C152.533 456.673 128.695 439.141 93.8811 457.042L93.8057 467.395Z" fill="#E2F0F9"/>
<path fill-rule="evenodd" clip-rule="evenodd" d="M93.8057 467.396L99.3502 492.751L99.9537 477.381L93.8057 467.396Z" fill="#286FB4"/>
<path fill-rule="evenodd" clip-rule="evenodd" d="M126.394 460.861V487.229L131.335 461.045L126.394 460.861Z" fill="#286FB4"/>
<path fill-rule="evenodd" clip-rule="evenodd" d="M152.418 468.454L146.157 496.202V475.494L152.418 468.454Z" fill="#286FB4"/>
<path fill-rule="evenodd" clip-rule="evenodd" d="M131.335 461.045L139.633 462.61L133.221 489.207L126.394 487.229L131.335 461.045Z" fill="#E2F0F9"/>
<path fill-rule="evenodd" clip-rule="evenodd" d="M146.158 496.202C146.158 486.815 145.064 492.797 152.381 468.454L146.158 496.202Z" fill="#E2F0F9"/>
<path fill-rule="evenodd" clip-rule="evenodd" d="M99.3498 492.751L93.7676 467.441L95.4272 466.751C100.293 491.048 99.6516 485.664 99.3498 492.751Z" fill="#E2F0F9"/>
<path opacity="0.4" fill-rule="evenodd" clip-rule="evenodd" d="M93.8057 467.395C100.482 497.767 99.3879 489.484 99.3879 505.175C99.3879 505.175 127.375 488.011 146.12 500.758C146.234 494.637 145.178 500.666 152.457 468.408C152.419 468.454 134.164 451.473 93.8057 467.395Z" fill="#286FB4"/>
<path fill-rule="evenodd" clip-rule="evenodd" d="M142.461 730.935C146.761 446.55 134.917 429.155 131.636 730.475L142.461 730.935Z" fill="#286FB4"/>
<path opacity="0.5" fill-rule="evenodd" clip-rule="evenodd" d="M145.366 587.684L93.8806 649.715L83.8477 933.916H142.839L145.366 587.684Z" fill="#372D6B"/>
<path opacity="0.4" fill-rule="evenodd" clip-rule="evenodd" d="M96.1814 365.238C104.404 392.848 103.31 387.418 103.084 393.676C103.084 393.676 130.467 381.298 146.422 386.037L157.134 364.133L164.376 360.866C164.376 360.866 131.485 337.213 91.6553 363.397L96.1814 365.238Z" fill="#286FB4"/>
<path fill-rule="evenodd" clip-rule="evenodd" d="M94.8613 730.889C99.6892 443.743 111.948 432.607 105.686 730.889H94.8613Z" fill="#286FB4"/>
<path fill-rule="evenodd" clip-rule="evenodd" d="M111.005 730.797C118.209 439.463 131.41 420.182 126.394 730.797H111.005Z" fill="#286FB4"/>
<path fill-rule="evenodd" clip-rule="evenodd" d="M97.8789 730.889C97.8789 730.889 99.9157 536.007 105.951 516.035C105.951 516.035 109.609 588.19 105.724 730.889H97.8789Z" fill="#A393FF"/>
<path fill-rule="evenodd" clip-rule="evenodd" d="M139.481 730.797C139.481 730.797 143.63 535.869 138.236 515.713C138.236 515.713 132.277 587.73 131.636 730.475L139.481 730.797Z" fill="#A393FF"/>
<path fill-rule="evenodd" clip-rule="evenodd" d="M111.005 730.797C118.813 459.25 128.355 428.465 124.47 730.797H111.005Z" fill="#A393FF"/>
<path fill-rule="evenodd" clip-rule="evenodd" d="M429.758 421.516L415.652 404.996C406.071 363.719 397.547 317.702 391.248 259.904C383.591 316.92 377.707 369.333 366.769 404.95L356.925 424.047C356.925 424.047 387.439 400.717 429.758 421.516Z" fill="#91BBFF"/>
<path fill-rule="evenodd" clip-rule="evenodd" d="M356.925 424.047C356.925 424.047 390.494 398.968 429.796 421.562C429.758 421.516 395.661 440.752 356.925 424.047Z" fill="#250CB0"/>
<path fill-rule="evenodd" clip-rule="evenodd" d="M413.276 531.037V996.132H354.775C354.775 996.132 366.355 531.037 366.619 530.945C390.57 523.122 413.276 531.037 413.276 531.037Z" fill="#A190FF"/>
<path fill-rule="evenodd" clip-rule="evenodd" d="M367.071 515.207L369.334 428.235C369.334 428.235 392.455 414.752 412.22 426.118L411.126 515.207H367.071Z" fill="#E2F0F9"/>
<path fill-rule="evenodd" clip-rule="evenodd" d="M369.335 428.189L362.206 422.943C362.206 422.943 397.963 403.892 421.536 422.529L412.22 426.072C412.22 426.072 394.116 415.994 369.335 428.189Z" fill="#286FB4"/>
<path fill-rule="evenodd" clip-rule="evenodd" d="M362.206 422.943L368.882 445.629L369.523 427.407L362.206 422.943Z" fill="#286FB4"/>
<path fill-rule="evenodd" clip-rule="evenodd" d="M395.473 414.384L394.945 443.42L403.017 414.89C403.055 414.844 397.058 414.338 395.473 414.384Z" fill="#286FB4"/>
<path fill-rule="evenodd" clip-rule="evenodd" d="M394.983 443.374H399.698L410.674 416.639C410.674 416.639 407.506 415.396 403.055 414.844L394.983 443.374Z" fill="#E2F0F9"/>
<path fill-rule="evenodd" clip-rule="evenodd" d="M421.536 422.529L412.031 443.282L412.22 426.072L421.536 422.529Z" fill="#286FB4"/>
<path fill-rule="evenodd" clip-rule="evenodd" d="M412.031 446.734L422.555 424.784L421.536 422.529C410.523 446.642 412.069 442.132 412.031 446.734Z" fill="#E2F0F9"/>
<path fill-rule="evenodd" clip-rule="evenodd" d="M362.206 422.943C361.15 426.9 360.358 422.207 368.769 449.633C368.92 444.295 369.976 449.311 362.206 422.943Z" fill="#E2F0F9"/>
<path fill-rule="evenodd" clip-rule="evenodd" d="M375.218 479.268C374.917 454.787 371.333 448.804 369.976 481.569L375.218 479.268Z" fill="#286FB4"/>
<path fill-rule="evenodd" clip-rule="evenodd" d="M372.616 480.418C372.616 480.418 371.598 466.383 374.238 463.208C374.238 463.208 375.219 471.123 375.219 479.268L372.616 480.418Z" fill="#250CB0"/>
<path opacity="0.3" fill-rule="evenodd" clip-rule="evenodd" d="M356.925 424.047L366.769 404.95C366.769 404.95 389.664 388.522 415.689 404.996L429.796 421.516C429.758 421.516 391.776 397.634 356.925 424.047Z" fill="#E2F0F9"/>
<path fill-rule="evenodd" clip-rule="evenodd" d="M360.056 528.322L366.355 538.308C366.355 538.308 389.513 526.711 412.748 536.421L418.783 529.38C418.82 529.38 399.961 511.342 360.056 528.322Z" fill="#224799"/>
<path fill-rule="evenodd" clip-rule="evenodd" d="M360.056 528.322C360.056 528.322 393.662 512.538 418.82 529.38V517.6C418.82 517.6 394.794 500.021 360.056 517.968V528.322Z" fill="#E2F0F9"/>
<path fill-rule="evenodd" clip-rule="evenodd" d="M360.056 528.322L365.977 553.723L366.355 538.308L360.056 528.322Z" fill="#286FB4"/>
<path fill-rule="evenodd" clip-rule="evenodd" d="M392.833 521.741V548.247L397.623 521.925L392.833 521.741Z" fill="#286FB4"/>
<path fill-rule="evenodd" clip-rule="evenodd" d="M418.821 529.38L412.748 557.221V536.421L418.821 529.38Z" fill="#286FB4"/>
<path fill-rule="evenodd" clip-rule="evenodd" d="M397.623 521.926L405.997 523.536L399.811 550.226L392.833 548.247L397.623 521.926Z" fill="#E2F0F9"/>
<path fill-rule="evenodd" clip-rule="evenodd" d="M412.748 557.221C412.748 547.833 411.654 553.907 418.783 529.38L412.748 557.221Z" fill="#E2F0F9"/>
<path fill-rule="evenodd" clip-rule="evenodd" d="M365.977 553.723L360.056 528.322L361.715 527.632C366.807 551.929 366.091 546.637 365.977 553.723Z" fill="#E2F0F9"/>
<path opacity="0.4" fill-rule="evenodd" clip-rule="evenodd" d="M360.056 528.322C367.147 558.831 365.977 550.502 365.977 566.24C365.977 566.24 393.926 549.03 412.861 561.822C412.785 555.656 411.805 561.73 418.858 529.38C418.82 529.38 400.376 512.354 360.056 528.322Z" fill="#286FB4"/>
<path opacity="0.4" fill-rule="evenodd" clip-rule="evenodd" d="M361.451 425.842C369.937 453.498 368.806 448.114 368.655 454.373C368.655 454.373 395.963 441.994 412.031 446.78L422.554 424.83L429.796 421.562C429.796 421.562 396.566 397.817 356.925 424.047L361.451 425.842Z" fill="#286FB4"/>
<path fill-rule="evenodd" clip-rule="evenodd" d="M175.615 356.126H164.413L193.795 313.284C193.795 313.284 239.51 212.967 264.705 92.0342L243.281 295.844L175.615 356.126Z" fill="#250CB0"/>
<path fill-rule="evenodd" clip-rule="evenodd" d="M264.667 92.0342C264.667 92.0342 296.84 206.939 327.694 289.632L360.018 320.647L219.104 306.014L229.815 291.426C229.815 291.472 246.034 215.36 264.667 92.0342Z" fill="#91BBFF"/>
<path fill-rule="evenodd" clip-rule="evenodd" d="M360.018 320.693L304.724 364.363L164.413 356.126L219.104 306.06L360.018 320.693Z" fill="#250CB0"/>
<path fill-rule="evenodd" clip-rule="evenodd" d="M191.306 370.944L175.615 356.126L223.97 313.054L343.083 320.831L328.034 339.054L228.42 336.569L191.306 370.944Z" fill="#286FB4"/>
<path fill-rule="evenodd" clip-rule="evenodd" d="M229.212 331.277L328.034 339.054L335.275 571.21L219.557 562.329L229.212 331.277Z" fill="#E2F0F9"/>
<path fill-rule="evenodd" clip-rule="evenodd" d="M181.424 566.194L191.306 370.943L229.212 331.277L222.914 561.96L181.424 566.194Z" fill="#286FB4"/>
<path fill-rule="evenodd" clip-rule="evenodd" d="M172.9 1003.86L181.047 666.097H373.485L377.822 1007.5L172.9 1003.86Z" fill="#C1D9FF"/>
<path fill-rule="evenodd" clip-rule="evenodd" d="M172.9 1003.86H115.568L126.544 666.741L181.047 666.097L172.9 1003.86Z" fill="#286FB4"/>
<path fill-rule="evenodd" clip-rule="evenodd" d="M355.568 572.728C362.471 614.236 365.186 633.563 381.179 665.637L402.338 676.405H168.676L181.047 662.37L201.528 560.948L355.568 572.728Z" fill="#91BBFF"/>
<path fill-rule="evenodd" clip-rule="evenodd" d="M104.895 677.187L122.245 660.575C138.124 630.296 143.518 614.236 152.193 573.879L201.528 560.948C197.303 602.317 190.401 632.689 181.047 662.37L168.676 676.405L104.895 677.187Z" fill="#250CB0"/>
<path fill-rule="evenodd" clip-rule="evenodd" d="M392.569 675.945V689.428L374.049 705.396C153.89 705.396 205.827 706.316 125.186 702.635C114.022 681.559 116.21 687.449 114.663 675.945H392.569Z" fill="#224799"/>
<path fill-rule="evenodd" clip-rule="evenodd" d="M392.569 689.428H177.426L174.258 675.945H392.569V689.428Z" fill="#E2F0F9"/>
<path fill-rule="evenodd" clip-rule="evenodd" d="M168.524 1003.68H119.68C126.733 850.625 150.194 738.804 150.194 738.804C166.337 805.943 169.581 934.377 168.524 1003.68Z" fill="#81B1CF"/>
<path fill-rule="evenodd" clip-rule="evenodd" d="M168.525 1003.68H130.807C135.71 897.195 148.534 810.729 155.851 767.887C170.75 860.243 168.525 1003.68 168.525 1003.68Z" fill="#250CB0"/>
<path fill-rule="evenodd" clip-rule="evenodd" d="M227.742 1004.69C227.742 1004.69 241.019 803.964 267.686 728.22L284.847 715.749C284.847 715.749 256.483 816.619 231.363 1004.69H227.742Z" fill="#286FB4"/>
<path fill-rule="evenodd" clip-rule="evenodd" d="M284.847 715.749C284.847 715.749 326.563 812.937 332.938 1006.67L231.363 1004.74C231.363 1004.69 246.488 791.77 284.847 715.749Z" fill="#E2F0F9"/>
<path fill-rule="evenodd" clip-rule="evenodd" d="M329.015 1006.67C329.015 1006.67 324.527 825.73 286.243 738.298C286.243 738.298 249.279 851.454 238.077 1004.69L329.015 1006.67Z" fill="#224799"/>
<path fill-rule="evenodd" clip-rule="evenodd" d="M323.508 1005.89C323.508 1005.89 320.981 813.812 282.207 751.781C282.207 751.781 247.808 861.347 238.077 1004.69L323.508 1005.89Z" fill="#150C45"/>
<path fill-rule="evenodd" clip-rule="evenodd" d="M301.368 1005.89L238.077 1004.64C243.207 944.592 255.126 855.043 268.893 803.136C290.053 841.1 299.293 960.882 301.368 1005.89Z" fill="#250CB0"/>
<path opacity="0.5" fill-rule="evenodd" clip-rule="evenodd" d="M228.497 661.173L201.528 560.948L233.4 563.387L228.497 661.173Z" fill="#372D6B"/>
<path fill-rule="evenodd" clip-rule="evenodd" d="M363.565 836.314C363.565 836.314 365.865 775.848 349.534 725.597L347.12 728.128C347.12 728.128 330.184 766.046 327.657 840.18C366.507 835.762 361.113 836.314 363.565 836.314Z" fill="#224799"/>
<path fill-rule="evenodd" clip-rule="evenodd" d="M365.526 836.314C365.526 836.314 366.242 776.124 349.496 725.597C349.496 725.597 332.108 766.046 329.618 840.18C368.505 835.762 363.074 836.314 365.526 836.314Z" fill="#E2F0F9"/>
<path fill-rule="evenodd" clip-rule="evenodd" d="M363.791 837.373L331.882 836.36C334.032 785.327 341.99 759.006 346.441 748.007C348.289 743.452 349.534 741.519 349.534 741.519C363.64 780.311 363.791 837.373 363.791 837.373Z" fill="#81B1CF"/>
<path fill-rule="evenodd" clip-rule="evenodd" d="M358.548 837.189L331.882 836.314C334.032 785.281 341.99 758.96 346.441 747.961C358.02 785.051 358.548 833.921 358.548 837.189Z" fill="#250CB0"/>
<path d="M368.544 836.314H331.92V840.134H368.544V836.314Z" fill="#E2F0F9"/>
<path fill-rule="evenodd" clip-rule="evenodd" d="M368.543 840.134L363.829 843.539L327.657 843.125V840.134L331.919 836.314V840.134H368.543Z" fill="#224799"/>
<path fill-rule="evenodd" clip-rule="evenodd" d="M342.556 759.558C342.556 759.558 347.723 773.731 345.611 836.36H346.252C346.252 836.36 347.459 775.157 352.626 759.512L348.515 743.452C348.477 743.452 344.63 751.551 342.556 759.558Z" fill="#E2F0F9"/>
<path fill-rule="evenodd" clip-rule="evenodd" d="M230.533 836.636C230.533 836.636 233.136 776.262 217.03 726.057L214.617 728.588C214.617 728.588 197.493 766.46 194.626 840.456C232.683 836.222 228.082 836.636 230.533 836.636Z" fill="#224799"/>
<path fill-rule="evenodd" clip-rule="evenodd" d="M232.532 836.636C232.532 836.636 233.513 776.492 217.068 726.057C217.068 726.057 199.492 766.414 196.625 840.456C234.645 836.222 230.043 836.636 232.532 836.636Z" fill="#E2F0F9"/>
<path fill-rule="evenodd" clip-rule="evenodd" d="M230.798 837.695L198.889 836.682C201.303 785.695 209.374 759.466 213.9 748.422C215.749 743.912 216.993 741.933 216.993 741.933C230.911 780.726 230.798 837.695 230.798 837.695Z" fill="#81B1CF"/>
<path fill-rule="evenodd" clip-rule="evenodd" d="M225.555 837.557L198.889 836.682C201.303 785.695 209.374 759.465 213.9 748.421C225.291 785.465 225.555 834.243 225.555 837.557Z" fill="#250CB0"/>
<path d="M235.513 836.682H198.889V840.456H235.513V836.682Z" fill="#E2F0F9"/>
<path fill-rule="evenodd" clip-rule="evenodd" d="M235.512 840.456L230.798 843.907L194.626 843.493V840.502L198.888 836.682V840.456H235.512Z" fill="#224799"/>
<path fill-rule="evenodd" clip-rule="evenodd" d="M209.901 759.972C209.901 759.972 214.993 774.099 212.579 836.682H213.221C213.221 836.682 214.729 775.572 219.972 759.926L215.936 743.866C215.936 743.912 212.051 752.011 209.901 759.972Z" fill="#E2F0F9"/>
<path opacity="0.4" fill-rule="evenodd" clip-rule="evenodd" d="M392.57 689.428L374.05 705.396V715.427L178.784 736.963L123.49 760.846L125.149 702.589C113.985 681.513 116.172 687.403 114.626 675.899H174.22L177.389 689.382H392.57V689.428Z" fill="#286FB4"/>
<path fill-rule="evenodd" clip-rule="evenodd" d="M154.795 598.866C154.681 598.912 154.568 599.004 154.455 599.096C154.568 599.004 154.681 598.912 154.795 598.866Z" fill="#91BBFF"/>
<path fill-rule="evenodd" clip-rule="evenodd" d="M72.2678 912.933L428.589 904.097V1087.43H64.083L72.2678 912.933Z" fill="#E2F0F9"/>
<path fill-rule="evenodd" clip-rule="evenodd" d="M158.906 910.77L154.795 1087.43H64.083L72.2678 912.933L158.906 910.77Z" fill="#224799"/>
<path fill-rule="evenodd" clip-rule="evenodd" d="M209.449 689.244L195.305 672.724C185.951 631.538 177.766 585.567 171.844 527.862C163.659 584.693 157.247 637.014 145.932 672.493L135.861 691.499C135.824 691.499 166.866 668.352 209.449 689.244Z" fill="#A595FF"/>
<path fill-rule="evenodd" clip-rule="evenodd" d="M135.823 691.498C135.823 691.498 169.92 666.557 209.411 689.198C209.449 689.244 174.824 708.295 135.823 691.498Z" fill="#250CB0"/>
<path fill-rule="evenodd" clip-rule="evenodd" d="M178.52 805.529L173.089 1087.61H144.649C153.362 792.184 152.834 805.667 153.174 805.483C168.525 797.798 178.143 805.253 178.52 805.529Z" fill="#E2F0F9"/>
<path fill-rule="evenodd" clip-rule="evenodd" d="M194.852 783.441L193.418 798.074C178.972 800.283 178.52 805.529 178.52 805.529C168.902 801.847 158.378 802.768 152.985 805.621C149.062 798.396 138.199 795.543 138.199 795.543V785.235C153.965 778.747 181.122 774.283 194.852 783.441Z" fill="#224799"/>
<path fill-rule="evenodd" clip-rule="evenodd" d="M138.199 795.543C138.199 795.543 163.546 784.683 193.381 798.074L194.814 783.441C194.814 783.441 171.202 771.43 138.199 785.281V795.543Z" fill="#E2F0F9"/>
<path fill-rule="evenodd" clip-rule="evenodd" d="M191.419 758.223L180.33 757.211L176.295 763.147L178.633 767.795L176.898 752.287H162.565L160.566 764.528C160.83 759.972 160.491 761.629 162.226 757.303L151.288 759.328L149.326 774.835L190.175 778.149L191.419 758.223Z" fill="#250CB0"/>
<path fill-rule="evenodd" clip-rule="evenodd" d="M145.366 782.612L148.346 695.732C148.346 695.732 171.806 682.341 191.646 693.753L190.175 778.195L145.366 782.612Z" fill="#E2F0F9"/>
<path fill-rule="evenodd" clip-rule="evenodd" d="M138.199 785.235L140.538 761.951C140.538 761.951 144.762 754.772 150.495 752.333L150.231 773.455L157.813 771.43L158.567 749.066C158.567 749.066 168.902 744.556 180.707 749.48L178.746 771.89L187.308 773.271L189.043 752.241C189.043 752.241 194.059 754.082 195.606 760.892L194.814 783.44C194.852 783.44 169.43 773.317 138.199 785.235Z" fill="#91BBFF"/>
<path fill-rule="evenodd" clip-rule="evenodd" d="M189.081 752.195L185.611 753.99L184.253 772.765L187.308 773.271L189.081 752.195Z" fill="#E4FBFF"/>
<path fill-rule="evenodd" clip-rule="evenodd" d="M150.495 752.333L153.777 754.772L153.136 772.672L150.231 773.455L150.495 752.333Z" fill="#E4FBFF"/>
<path opacity="0.4" fill-rule="evenodd" clip-rule="evenodd" d="M193.381 798.074C178.935 800.283 178.483 805.529 178.483 805.529L178.219 816.389C166.224 819.932 156.04 828.721 151.891 832.725L152.948 805.621C148.912 798.212 138.238 795.773 138.162 795.543C154.419 790.619 178.332 790.159 193.381 798.074Z" fill="#286FB4"/>
<path fill-rule="evenodd" clip-rule="evenodd" d="M148.345 695.732L141.179 690.486C141.179 690.486 177.463 671.573 201.113 690.256L191.645 693.753C191.645 693.707 173.503 683.63 148.345 695.732Z" fill="#286FB4"/>
<path fill-rule="evenodd" clip-rule="evenodd" d="M141.179 690.486L147.742 713.126L148.534 694.904L141.179 690.486Z" fill="#286FB4"/>
<path fill-rule="evenodd" clip-rule="evenodd" d="M174.899 681.973L174.145 710.918L182.518 682.479C182.518 682.479 176.483 681.973 174.899 681.973Z" fill="#286FB4"/>
<path fill-rule="evenodd" clip-rule="evenodd" d="M174.107 710.964H178.898L190.175 684.32C190.175 684.32 186.969 683.077 182.481 682.479L174.107 710.964Z" fill="#E2F0F9"/>
<path fill-rule="evenodd" clip-rule="evenodd" d="M201.113 690.21L191.382 710.872L191.646 693.707L201.113 690.21Z" fill="#286FB4"/>
<path fill-rule="evenodd" clip-rule="evenodd" d="M191.307 714.323L202.132 692.419L201.114 690.21C189.798 714.185 191.382 709.721 191.307 714.323Z" fill="#E2F0F9"/>
<path fill-rule="evenodd" clip-rule="evenodd" d="M141.179 690.486C140.085 694.444 139.331 689.796 147.591 717.13C147.78 711.746 148.798 716.762 141.179 690.486Z" fill="#E2F0F9"/>
<path fill-rule="evenodd" clip-rule="evenodd" d="M182.027 735.813C183.347 709.675 187.421 703.831 187.572 738.666L182.027 735.813Z" fill="#286FB4"/>
<path fill-rule="evenodd" clip-rule="evenodd" d="M184.781 737.239C184.781 737.239 186.403 722.376 183.725 718.833C183.725 718.833 182.329 727.162 182.027 735.813L184.781 737.239Z" fill="#250CB0"/>
<path fill-rule="evenodd" clip-rule="evenodd" d="M153.891 746.673C153.777 722.238 150.232 716.256 148.572 748.928L153.891 746.673Z" fill="#286FB4"/>
<path fill-rule="evenodd" clip-rule="evenodd" d="M151.212 747.823C151.212 747.823 150.307 733.834 152.984 730.659C152.984 730.659 153.927 738.528 153.852 746.673L151.212 747.823Z" fill="#250CB0"/>
<path opacity="0.4" fill-rule="evenodd" clip-rule="evenodd" d="M140.425 693.339C148.798 720.995 147.666 715.565 147.478 721.824C147.478 721.824 175.163 709.537 191.344 714.369L202.169 692.465L209.486 689.244C209.486 689.244 176.143 665.453 135.898 691.545L140.425 693.339Z" fill="#286FB4"/>
<path opacity="0.3" fill-rule="evenodd" clip-rule="evenodd" d="M135.823 691.499L145.894 672.493C145.894 672.493 169.128 656.157 195.267 672.678L209.411 689.198C209.449 689.244 171.278 665.269 135.823 691.499Z" fill="#E2F0F9"/>
<path fill-rule="evenodd" clip-rule="evenodd" d="M105.535 756.291L94.3709 743.222C86.4125 710.596 81.7732 674.196 76.1532 628.685C70.5332 673.322 63.5177 707.466 55.182 743.084L47.1104 758.131C47.1104 758.039 71.7779 739.77 105.535 756.291Z" fill="#91BBFF"/>
<path fill-rule="evenodd" clip-rule="evenodd" d="M47.1104 758.039C47.1104 758.039 74.2296 738.344 105.535 756.29C105.535 756.29 78.0391 771.338 47.1104 758.039Z" fill="#250CB0"/>
<path fill-rule="evenodd" clip-rule="evenodd" d="M45.4883 1088.4L57.03 761.352C57.03 761.352 75.7004 750.768 91.391 759.788L85.8465 1088.35H45.4883V1088.4Z" fill="#E2F0F9"/>
<path fill-rule="evenodd" clip-rule="evenodd" d="M57.0298 761.398L51.3721 757.257C51.3721 757.257 80.2263 742.301 98.9344 757.073L91.4285 759.834C91.4285 759.834 77.0203 751.827 57.0298 761.398Z" fill="#286FB4"/>
<path fill-rule="evenodd" clip-rule="evenodd" d="M51.3721 757.211L56.5017 775.158L57.1806 760.754L51.3721 757.211Z" fill="#286FB4"/>
<path fill-rule="evenodd" clip-rule="evenodd" d="M78.1145 750.538L77.4355 773.455L84.1871 750.952C84.1871 750.952 79.3969 750.538 78.1145 750.538Z" fill="#286FB4"/>
<path fill-rule="evenodd" clip-rule="evenodd" d="M77.4355 773.455H81.2451L90.2596 752.379C90.2596 752.379 87.7325 751.413 84.1871 750.953L77.4355 773.455Z" fill="#E2F0F9"/>
<path fill-rule="evenodd" clip-rule="evenodd" d="M98.9346 757.073L91.127 773.409L91.4287 759.834L98.9346 757.073Z" fill="#286FB4"/>
<path fill-rule="evenodd" clip-rule="evenodd" d="M91.0512 776.124L99.6886 758.821L98.8965 757.073C89.9574 775.802 91.1644 772.304 91.0512 776.124Z" fill="#E2F0F9"/>
<path fill-rule="evenodd" clip-rule="evenodd" d="M51.3727 757.211C50.5052 760.34 49.9017 756.613 56.3892 778.287C56.5401 774.099 57.3321 778.057 51.3727 757.211Z" fill="#E2F0F9"/>
<path fill-rule="evenodd" clip-rule="evenodd" d="M83.6211 793.104C84.7526 772.443 87.9964 767.841 87.9964 795.359L83.6211 793.104Z" fill="#286FB4"/>
<path fill-rule="evenodd" clip-rule="evenodd" d="M85.8087 794.208C85.8087 794.208 87.1666 782.474 85.0167 779.621C85.0167 779.621 83.8851 786.202 83.6211 793.058L85.8087 794.208Z" fill="#250CB0"/>
<path fill-rule="evenodd" clip-rule="evenodd" d="M61.2918 801.709C61.2541 782.244 58.4629 777.827 57.0674 803.504L61.2918 801.709Z" fill="#286FB4"/>
<path fill-rule="evenodd" clip-rule="evenodd" d="M59.1799 802.584C59.1799 802.584 58.5009 791.494 60.6509 789.009C60.6509 789.009 61.3675 795.221 61.2921 801.663L59.1799 802.584Z" fill="#250CB0"/>
<path opacity="0.4" fill-rule="evenodd" clip-rule="evenodd" d="M50.7309 759.512C57.2938 781.416 56.4263 777.09 56.2377 782.06C56.2377 782.06 78.2273 772.35 91.0514 776.17L99.6888 758.867L105.497 756.337C105.497 756.337 79.0948 737.516 47.0723 758.085L50.7309 759.512Z" fill="#286FB4"/>
<path opacity="0.3" fill-rule="evenodd" clip-rule="evenodd" d="M47.1104 758.039L55.182 742.991C55.182 742.991 73.6638 730.061 94.3709 743.176L105.535 756.244C105.535 756.291 75.2857 737.331 47.1104 758.039Z" fill="#E2F0F9"/>
<path opacity="0.4" fill-rule="evenodd" clip-rule="evenodd" d="M105.535 756.291L94.3708 743.222C86.714 710.411 81.2826 673.828 76.153 628.685C57.6335 747.593 57.294 739.126 47.1102 758.085C48.204 758.545 49.3355 759.006 50.4293 759.42C50.8819 759.604 50.1276 757.441 56.3888 778.379C56.2756 781.646 57.8598 742.577 45.4883 1088.49H85.8465L91.0893 776.17C102.254 753.76 97.6522 760.57 105.535 756.291ZM47.6759 757.671C48.1285 757.395 48.8075 756.935 49.7127 756.429C47.9022 757.441 47.1102 758.085 47.6759 757.671Z" fill="#286FB4"/>
<path fill-rule="evenodd" clip-rule="evenodd" d="M470.494 688.323L455.219 671.711C442.357 631.032 431.796 582.898 423.988 526.389C419.802 580.92 414.974 630.434 405.205 671.435L395.851 690.486C395.813 690.44 426.138 667.294 470.494 688.323Z" fill="#A595FF"/>
<path fill-rule="evenodd" clip-rule="evenodd" d="M395.812 690.44C395.812 690.44 429.155 665.499 470.456 688.369C470.494 688.323 436.322 707.374 395.812 690.44Z" fill="#250CB0"/>
<path fill-rule="evenodd" clip-rule="evenodd" d="M445.336 804.977L455.218 1088.44L419.462 1087.71V804.977C419.462 804.977 418.82 804.931 418.971 804.885C434.511 797.108 444.883 804.655 445.336 804.977Z" fill="#E2F0F9"/>
<path fill-rule="evenodd" clip-rule="evenodd" d="M461.027 782.842L460.385 797.522C445.487 799.685 445.336 804.931 445.336 804.931C431.305 799.823 420.668 804.056 419.009 804.793C418.858 804.885 419.499 804.885 419.499 804.885C415.086 797.66 402.903 794.715 402.903 794.715L402.488 784.361C419.348 777.688 446.807 773.777 461.027 782.842Z" fill="#224799"/>
<path fill-rule="evenodd" clip-rule="evenodd" d="M402.903 794.761C402.903 794.761 428.702 783.993 460.385 797.522L461.027 782.842C461.027 782.842 435.944 770.694 402.488 784.453L402.903 794.761Z" fill="#E2F0F9"/>
<path fill-rule="evenodd" clip-rule="evenodd" d="M456.086 757.533L444.62 756.475L440.772 762.411L443.45 767.059L440.848 751.459H426.062L424.629 763.699C424.705 759.144 424.403 760.8 425.987 756.475L414.822 758.453L413.54 774.007L455.935 777.504L456.086 757.533Z" fill="#250CB0"/>
<path fill-rule="evenodd" clip-rule="evenodd" d="M409.73 781.83L408.712 694.674C408.712 694.674 431.871 681.329 452.653 692.787L455.935 777.504L409.73 781.83Z" fill="#E2F0F9"/>
<path fill-rule="evenodd" clip-rule="evenodd" d="M402.488 784.453L403.808 761.122C403.808 761.122 407.844 753.944 413.615 751.505L414.369 772.673L422.102 770.648L421.8 748.238C421.8 748.238 432.21 743.728 444.582 748.698L443.789 771.2L452.729 772.627L453.332 751.505C453.332 751.505 458.613 753.391 460.574 760.202L461.064 782.842C461.027 782.842 434.209 772.581 402.488 784.453Z" fill="#91BBFF"/>
<path fill-rule="evenodd" clip-rule="evenodd" d="M453.295 751.505L449.863 753.253L449.485 772.121L452.691 772.581L453.295 751.505Z" fill="#E4FBFF"/>
<path fill-rule="evenodd" clip-rule="evenodd" d="M413.615 751.505L417.123 753.944L417.312 771.89L414.37 772.673L413.615 751.505Z" fill="#E4FBFF"/>
<path opacity="0.4" fill-rule="evenodd" clip-rule="evenodd" d="M460.386 797.522C445.487 799.685 445.336 804.931 445.336 804.931L445.638 815.837C433.304 819.334 423.12 828.123 418.971 832.081L419.499 804.931C414.634 796.924 402.451 795.037 402.941 794.761C419.877 789.791 444.129 789.607 460.386 797.522Z" fill="#286FB4"/>
<path fill-rule="evenodd" clip-rule="evenodd" d="M408.75 694.674L401.244 689.382C401.244 689.382 437.114 670.515 462.121 689.29L452.729 692.787C452.691 692.787 433.682 682.617 408.75 694.674Z" fill="#286FB4"/>
<path fill-rule="evenodd" clip-rule="evenodd" d="M401.206 689.382L408.901 712.114V693.891L401.206 689.382Z" fill="#286FB4"/>
<path fill-rule="evenodd" clip-rule="evenodd" d="M435.001 681.006L435.755 710.043L442.771 681.513C442.733 681.513 436.623 680.96 435.001 681.006Z" fill="#286FB4"/>
<path fill-rule="evenodd" clip-rule="evenodd" d="M435.756 710.043H440.621L450.654 683.353C450.654 683.353 447.335 682.111 442.771 681.513L435.756 710.043Z" fill="#E2F0F9"/>
<path fill-rule="evenodd" clip-rule="evenodd" d="M462.083 689.29L453.333 710.043L452.691 692.787L462.083 689.29Z" fill="#286FB4"/>
<path fill-rule="evenodd" clip-rule="evenodd" d="M453.483 713.495L463.252 691.545L462.083 689.29C451.937 713.403 453.295 708.847 453.483 713.495Z" fill="#E2F0F9"/>
<path fill-rule="evenodd" clip-rule="evenodd" d="M401.206 689.382C400.301 693.339 399.283 688.645 408.976 716.117C408.863 710.503 410.032 715.473 401.206 689.382Z" fill="#E2F0F9"/>
<path fill-rule="evenodd" clip-rule="evenodd" d="M445.148 734.985C445.072 708.709 448.919 703.003 450.994 737.884L445.148 734.985Z" fill="#286FB4"/>
<path fill-rule="evenodd" clip-rule="evenodd" d="M448.052 736.457C448.052 736.457 448.919 721.548 445.939 717.958C445.939 717.958 444.959 726.287 445.11 734.985L448.052 736.457Z" fill="#250CB0"/>
<path fill-rule="evenodd" clip-rule="evenodd" d="M416.822 745.845C415.502 721.179 411.617 715.473 411.466 748.099L416.822 745.845Z" fill="#286FB4"/>
<path fill-rule="evenodd" clip-rule="evenodd" d="M414.144 746.949C414.144 746.949 412.559 732.914 415.162 729.739C415.162 729.739 416.52 737.654 416.821 745.799L414.144 746.949Z" fill="#250CB0"/>
<path opacity="0.4" fill-rule="evenodd" clip-rule="evenodd" d="M400.565 692.281C410.372 720.075 408.976 714.599 409.052 720.857C409.052 720.857 436.737 708.617 453.484 713.495L463.253 691.544L470.494 688.323C470.494 688.323 435.379 664.394 395.851 690.394L400.565 692.281Z" fill="#286FB4"/>
<path opacity="0.3" fill-rule="evenodd" clip-rule="evenodd" d="M395.812 690.44L405.167 671.389C405.167 671.389 427.873 655.053 455.143 671.711L470.419 688.323C470.494 688.323 430.475 664.21 395.812 690.44Z" fill="#E2F0F9"/>
<path fill-rule="evenodd" clip-rule="evenodd" d="M425.346 895.906L427.609 910.632L419.537 921.032H175.615V895.906H425.346Z" fill="#E2F0F9"/>
<path opacity="0.4" fill-rule="evenodd" clip-rule="evenodd" d="M427.609 910.632L175.615 913.347V921.032H419.537L427.609 910.632Z" fill="#286FB4"/>
<path opacity="0.4" fill-rule="evenodd" clip-rule="evenodd" d="M427.609 910.632L419.575 929.407L175.275 933.778L175.615 913.347L427.609 910.632Z" fill="#286FB4"/>
<path opacity="0.4" fill-rule="evenodd" clip-rule="evenodd" d="M419.462 1087.66V973.905H402.413L401.546 1044.68L397.284 1058.71L399.584 996.178L361.301 980.578L354.813 999.445V1041.83L361.489 1052.87V1060.23C353.229 1066.72 358.66 1063.91 336.143 1072.8L333.993 1030.83L277.227 991.576L249.656 1003.68L238.001 1030.83L246.487 1063.18L237.925 1077.9V1042.56L216.162 1030.87C198.246 1050.25 204.319 1042.15 189.986 1066.91L190.25 1077.95L179.349 1077.21L182.442 1026.41L175.2 974.135L172.673 1042.61L158.152 1057.33L150.495 1058.81L146.082 1030.92L148.647 911.184L139.331 910.816L130.052 999.583L115.304 1041.14L100.028 1063.96L95.5777 1056.6L92.8243 1019.09C85.2053 1028.9 88.8262 1021.16 78.6046 1052.92L64.2718 1066.91L46.5821 1058.07L45.4883 1088.4H455.218L453.71 1027.65L444.846 1050.52L429.155 1054.21L419.462 1087.66Z" fill="#286FB4"/>
<path fill-rule="evenodd" clip-rule="evenodd" d="M305.403 860.151L295.106 867.1C295.106 867.1 283.79 882.976 279.792 896.32H283.036C283.036 896.32 269.759 986.652 268.703 1087.89L271.947 1087.71C271.985 1087.71 285.412 898.529 305.403 860.151Z" fill="#286FB4"/>
<path fill-rule="evenodd" clip-rule="evenodd" d="M334.068 1086.65C334.068 1086.65 336.256 927.244 305.44 860.151C305.44 860.151 275.379 931.984 271.984 1087.71L334.068 1086.65Z" fill="#E2F0F9"/>
<path fill-rule="evenodd" clip-rule="evenodd" d="M278.396 1087.57C278.396 1087.57 282.168 944.915 305.289 885.46C305.289 885.46 332.22 960.422 332.446 1087.57H278.396Z" fill="#224799"/>
<path fill-rule="evenodd" clip-rule="evenodd" d="M301.744 895.63C301.744 895.63 326.865 962.953 327.016 1086.51L278.359 1087.57C278.397 1087.57 282.169 958.443 301.744 895.63Z" fill="#250CB0"/>
<path opacity="0.3" fill-rule="evenodd" clip-rule="evenodd" d="M360.018 320.693L327.731 289.631L229.815 291.472L219.104 306.06L360.018 320.693Z" fill="#E2F0F9"/>
<path fill-rule="evenodd" clip-rule="evenodd" d="M272.739 306.98V204.546C252.485 294.555 236.568 376.328 216.992 434.953L201.867 454.557L218.727 457.64L237.284 431.64L323.47 439.003L314.946 454.925L343.385 437.714L296.766 419.17L272.739 306.98Z" fill="#250CB0"/>
<path fill-rule="evenodd" clip-rule="evenodd" d="M228.496 661.173H320.566L314.908 454.971L239.095 448.206L228.496 661.173Z" fill="#C1D9FF"/>
<path fill-rule="evenodd" clip-rule="evenodd" d="M228.496 661.173L219.557 562.329L225.516 467.948L239.095 448.206L228.496 661.173Z" fill="#286FB4"/>
<path fill-rule="evenodd" clip-rule="evenodd" d="M225.516 467.948L218.727 457.686L237.246 431.686L323.432 439.003L314.907 454.971L239.094 448.206L225.516 467.948Z" fill="#286FB4"/>
<path fill-rule="evenodd" clip-rule="evenodd" d="M343.347 437.714L319.66 417.421C299.896 352.031 284.846 285.95 272.739 204.546C261.537 286.134 250.523 361.188 240.716 412.865L234.757 426.118L343.347 437.714Z" fill="#A595FF"/>
<path fill-rule="evenodd" clip-rule="evenodd" d="M301.896 627.121C301.896 627.121 305.592 534.35 280.925 457.272L277.266 461.137C277.266 461.137 251.316 519.395 247.167 633.103C305.102 626.431 298.124 627.121 301.896 627.121Z" fill="#224799"/>
<path fill-rule="evenodd" clip-rule="evenodd" d="M304.914 627.075C304.914 627.075 306.196 534.672 280.963 457.226C280.963 457.226 254.372 519.349 250.223 633.057C308.12 626.43 301.142 627.075 304.914 627.075Z" fill="#E2F0F9"/>
<path fill-rule="evenodd" clip-rule="evenodd" d="M302.273 628.731L253.654 627.213C257.162 548.892 269.383 508.581 276.21 491.646C279.001 484.698 280.924 481.707 280.924 481.707C302.235 541.207 302.273 628.731 302.273 628.731Z" fill="#81B1CF"/>
<path fill-rule="evenodd" clip-rule="evenodd" d="M294.277 628.501L253.654 627.213C257.162 548.892 269.383 508.581 276.21 491.646C293.635 548.432 294.239 623.439 294.277 628.501Z" fill="#250CB0"/>
<path d="M309.477 627.213H253.654V633.103H309.477V627.213Z" fill="#E2F0F9"/>
<path fill-rule="evenodd" clip-rule="evenodd" d="M309.477 633.103L302.273 637.981H247.167V633.103L253.654 627.213V633.103H309.477Z" fill="#224799"/>
<path fill-rule="evenodd" clip-rule="evenodd" d="M270.175 509.409C270.175 509.409 277.982 531.083 274.512 627.259H275.493C275.493 627.259 277.568 533.338 285.488 509.317L279.303 484.652C279.303 484.652 273.419 497.123 270.175 509.409Z" fill="#E2F0F9"/>
<path opacity="0.3" fill-rule="evenodd" clip-rule="evenodd" d="M240.679 412.865L319.661 417.421L343.347 437.714L234.72 426.164L240.679 412.865Z" fill="#E2F0F9"/>
<path opacity="0.4" fill-rule="evenodd" clip-rule="evenodd" d="M323.432 439.003C313.512 457.548 314.907 453.636 314.907 458.882L237.586 478.808L224.007 491.968L225.516 467.994L218.727 457.686L237.284 431.686L323.432 439.003Z" fill="#286FB4"/>
<path fill-rule="evenodd" clip-rule="evenodd" d="M238.19 126.133L227.364 113.248C220.16 81.0361 213.824 45.1427 209.26 0C193.267 114.398 192.4 107.726 181.839 128.25C181.801 128.25 205.563 109.981 238.19 126.133Z" fill="#250CB0"/>
<path fill-rule="evenodd" clip-rule="evenodd" d="M181.801 128.25C181.801 128.25 207.902 108.554 238.189 126.133C238.189 126.133 211.711 141.18 181.801 128.25Z" fill="#250CB0"/>
<path fill-rule="evenodd" clip-rule="evenodd" d="M224.309 211.679V252.45L199.83 312.916L185.158 327.319C185.158 327.319 188.553 211.817 188.741 211.725C207.299 205.512 224.309 211.679 224.309 211.679Z" fill="#A190FF"/>
<path fill-rule="evenodd" clip-rule="evenodd" d="M189.193 199.346L191.381 131.471C191.381 131.471 209.335 120.887 224.573 129.722L223.253 199.346H189.193Z" fill="#E2F0F9"/>
<path fill-rule="evenodd" clip-rule="evenodd" d="M191.419 131.471L185.95 127.375C185.95 127.375 213.711 112.42 231.853 126.915L224.611 129.722C224.573 129.722 210.655 121.899 191.419 131.471Z" fill="#286FB4"/>
<path fill-rule="evenodd" clip-rule="evenodd" d="M185.912 127.421L190.966 145.092L191.532 130.827L185.912 127.421Z" fill="#286FB4"/>
<path fill-rule="evenodd" clip-rule="evenodd" d="M211.711 120.611L211.146 143.251L217.558 120.933C217.558 120.979 212.956 120.565 211.711 120.611Z" fill="#286FB4"/>
<path fill-rule="evenodd" clip-rule="evenodd" d="M211.146 143.251H214.804L223.442 122.359C223.442 122.359 220.99 121.393 217.558 120.979L211.146 143.251Z" fill="#E2F0F9"/>
<path fill-rule="evenodd" clip-rule="evenodd" d="M231.814 126.915L224.384 143.159L224.572 129.722L231.814 126.915Z" fill="#286FB4"/>
<path fill-rule="evenodd" clip-rule="evenodd" d="M224.384 143.159C224.309 146.978 222.574 149.555 232.607 128.664L231.853 126.915L224.384 143.159Z" fill="#E2F0F9"/>
<path fill-rule="evenodd" clip-rule="evenodd" d="M185.912 127.421C185.082 130.504 184.479 126.915 190.853 148.267C191.004 144.033 191.796 147.945 185.912 127.421Z" fill="#E2F0F9"/>
<path fill-rule="evenodd" clip-rule="evenodd" d="M218.161 169.527C219.217 150.338 222.159 146.15 222.121 171.69L218.161 169.527Z" fill="#286FB4"/>
<path fill-rule="evenodd" clip-rule="evenodd" d="M220.122 170.585C220.122 170.585 221.367 159.725 219.444 157.056C219.444 157.056 218.425 163.131 218.161 169.481L220.122 170.585Z" fill="#250CB0"/>
<path opacity="0.3" fill-rule="evenodd" clip-rule="evenodd" d="M181.801 128.25L189.495 113.34C189.495 113.34 207.298 100.455 227.326 113.248L238.151 126.133C238.189 126.133 208.92 107.542 181.801 128.25Z" fill="#E2F0F9"/>
<path fill-rule="evenodd" clip-rule="evenodd" d="M183.762 209.654L188.552 217.431C188.552 217.431 206.468 208.319 224.384 215.866L229.174 210.344C229.174 210.344 214.653 196.309 183.762 209.654Z" fill="#224799"/>
<path fill-rule="evenodd" clip-rule="evenodd" d="M183.762 209.654C183.762 209.654 209.825 197.229 229.174 210.344V201.141C229.174 201.141 210.692 187.474 183.762 201.555V209.654Z" fill="#E2F0F9"/>
<path fill-rule="evenodd" clip-rule="evenodd" d="M183.762 209.654L188.137 229.487L188.552 217.477L183.762 209.654Z" fill="#286FB4"/>
<path fill-rule="evenodd" clip-rule="evenodd" d="M208.996 204.454V225.116L212.806 204.592L208.996 204.454Z" fill="#286FB4"/>
<path fill-rule="evenodd" clip-rule="evenodd" d="M229.175 210.344L224.347 232.11V215.866L229.175 210.344Z" fill="#286FB4"/>
<path fill-rule="evenodd" clip-rule="evenodd" d="M212.806 204.592L219.255 205.788L214.314 226.68L208.996 225.116L212.806 204.592Z" fill="#E2F0F9"/>
<path fill-rule="evenodd" clip-rule="evenodd" d="M224.347 232.11C224.347 224.793 223.479 229.441 229.137 210.39L224.347 232.11Z" fill="#E2F0F9"/>
<path fill-rule="evenodd" clip-rule="evenodd" d="M188.137 229.487L183.762 209.654L185.044 209.102C188.816 228.153 188.288 223.965 188.137 229.487Z" fill="#E2F0F9"/>
<path opacity="0.4" fill-rule="evenodd" clip-rule="evenodd" d="M183.762 209.654C189.005 233.445 188.137 226.956 188.137 239.243C188.137 239.243 209.787 225.714 224.346 235.653C224.384 230.868 223.592 235.561 229.174 210.298C229.174 210.344 214.992 197.091 183.762 209.654Z" fill="#286FB4"/>
<path opacity="0.4" fill-rule="evenodd" clip-rule="evenodd" d="M185.309 129.63C191.758 151.258 190.891 146.979 190.74 151.902C190.74 151.902 211.937 142.147 224.309 145.828L232.569 128.664L238.189 126.087C238.189 126.087 212.616 107.634 181.801 128.204L185.309 129.63Z" fill="#286FB4"/>
<path fill-rule="evenodd" clip-rule="evenodd" d="M450.164 1050.89L468.155 1057.98L481.545 1074.08H493.351L517 1088.44H0L19.6888 1069.8L50.2026 1063.68L51.4096 1079.28C99.6131 1089.5 83.0927 1087.8 124.281 1087.8L142.687 1069.8L164.45 1067.27C174.596 1074.82 169.769 1071.32 186.1 1082.87C378.122 1079.51 312.418 1085.82 416.972 1078.09L450.164 1050.89Z" fill="#E2F0F9"/>
<path fill-rule="evenodd" clip-rule="evenodd" d="M468.155 1057.98L457.67 1069.25L420.103 1080.53L481.545 1074.08L468.155 1057.98Z" fill="#286FB4"/>
<path fill-rule="evenodd" clip-rule="evenodd" d="M493.351 1074.08L417.538 1087.66L394.228 1080.89C319.924 1082.18 340.329 1080.3 301.404 1088.49H517L493.351 1074.08Z" fill="#286FB4"/>
<path fill-rule="evenodd" clip-rule="evenodd" d="M142.725 1069.8L136.878 1081.4C176.181 1081.4 161.244 1079.74 201.867 1087.75H124.318L142.725 1069.8Z" fill="#286FB4"/>
<path fill-rule="evenodd" clip-rule="evenodd" d="M19.6888 1069.8C47.2983 1084.44 35.4926 1080.02 72.1167 1088.44H0L19.6888 1069.8Z" fill="#286FB4"/>
</g>
<defs>
<clipPath id="clip0">
<rect width="517" height="1088.49" fill="white"/>
</clipPath>
</defs>
</svg>
