<svg width="1440" height="529" viewBox="0 0 1440 529" fill="none" xmlns="http://www.w3.org/2000/svg">
<path d="M-1.87451 528.5H1440.5C1440.5 528.5 1441 300.896 1441 266.907C1425.28 252.721 1426.48 243.263 1411.23 227.008C1389.69 203.66 1366.42 185.927 1344.73 163.169C1321.3 138.343 1295.99 115.29 1271.62 92.8283C1261.71 83.6663 1251.65 74.5042 1241.9 64.16C1234.98 57.0667 1228.07 49.3824 1221.62 40.8115C1214.23 31.3538 1198.51 15.6897 1195.05 0.0255127C1179.96 2.68546 1168.48 11.2564 1157.95 23.0784C1157.79 23.0784 1157.79 23.374 1157.63 23.374C1157 23.9651 1156.37 24.8517 1155.9 25.4429C1146 36.9693 1136.88 51.4513 1126.34 66.5243C1112.51 86.3262 1096.16 99.3304 1083.74 120.906C1083.42 121.497 1082.95 122.383 1082.64 122.974C1071.95 141.299 1062.36 154.894 1048.36 164.943C1021.01 184.744 990.348 188.587 964.407 214.595C951.043 180.902 921.8 195.68 905.135 171.445C882.809 170.558 861.899 155.781 841.46 142.185C820.707 128.294 798.381 122.383 781.559 94.6016C777.785 88.395 774.012 82.1885 770.239 75.982C756.246 52.929 741.467 30.1717 724.645 15.3942C707.665 48.2002 683.453 80.4152 660.184 97.5571C645.877 108.197 630.312 115.29 616.791 129.477C615.69 130.659 614.59 131.841 613.489 133.023C611.288 131.25 608.773 129.772 606.257 128.59C598.868 124.748 591.007 121.497 586.29 110.561C571.511 113.517 556.418 130.659 544.312 145.141C533.935 157.554 521.829 168.785 509.409 176.469C503.277 180.311 497.145 183.267 491.171 185.04C474.191 190.36 463.657 196.271 448.25 207.797C431.113 220.802 414.762 220.802 397.31 230.259C391.493 233.215 371.997 198.931 365.394 190.655C358.634 182.084 350.773 176.173 345.427 164.647C337.566 183.562 320.272 190.951 308.48 197.749C294.016 206.32 281.595 215.777 266.345 219.028C255.182 221.393 252.195 205.729 241.661 198.635C235.844 194.793 229.87 194.793 224.21 189.473C205.657 204.546 189.149 203.069 169.811 212.231C160.849 216.368 141.354 201.886 132.707 194.202C120.915 183.562 108.495 174.105 95.6025 174.105C82.5532 174.105 67.46 193.02 55.1968 200.704C36.4875 212.822 16.6776 216.368 -1.87451 227.895V251.243V271.045C-1.87451 271.045 -0.931184 321.289 -1.87451 340.499C-2.66062 353.208 -2.81784 516.678 -1.87451 528.5Z" fill="url(#paint0_linear)"/>
<defs>
<linearGradient id="paint0_linear" x1="670.485" y1="572.97" x2="670.485" y2="43.1117" gradientUnits="userSpaceOnUse">
<stop stop-color="#98D4ED"/>
<stop offset="0.2416" stop-color="#7FC3E2"/>
<stop offset="0.7517" stop-color="#4099C4"/>
<stop offset="1" stop-color="#1F83B5"/>
</linearGradient>
</defs>
</svg>
