<svg width="1440" height="589" viewBox="0 0 1440 589" fill="none" xmlns="http://www.w3.org/2000/svg">
<path d="M1536.5 258.216C1534.59 223.015 1532.39 187.691 1529.9 152.489C1528.29 158.234 1527.11 164.223 1525.79 170.09L1521.54 123.277C1521.25 124.988 1517.29 139.778 1514.36 139.044C1514.36 139.044 1514.36 139.044 1514.21 139.044C1513.77 135.866 1513.92 132.688 1513.48 129.511C1514.36 130.855 1515.68 131.955 1517.29 132.688C1516.56 130.488 1516.12 128.166 1515.68 125.844C1514.8 119.977 1512.3 104.454 1511.72 100.787C1512.74 101.52 1513.77 102.132 1514.65 102.865C1513.62 99.1981 1512.01 94.7979 1512.16 91.1311C1512.6 91.3755 1514.65 92.3533 1514.65 92.72C1512.89 84.7752 1511.86 76.7082 1511.57 68.6412C1510.69 78.6639 1508.64 88.5643 1505.41 98.2203C1506.29 97.6091 1507.17 96.998 1508.2 96.2646C1506.73 103.354 1504.39 110.321 1501.16 117.043C1499.99 116.554 1498.82 116.065 1497.64 115.454C1497.5 114.232 1497.35 113.01 1497.35 111.788C1497.94 112.032 1500.72 112.399 1501.31 112.643C1498.38 103.965 1496.47 95.6535 1496.62 86.6086C1496.47 94.4312 1494.86 102.376 1491.92 109.832C1491.48 109.465 1490.6 108.61 1490.6 108.61L1487.38 105.676C1486.5 101.887 1485.91 98.2203 1485.77 94.4312C1486.65 94.7979 1490.9 95.409 1491.78 95.8979C1487.23 82.4529 1484.3 69.7412 1484.45 55.8073C1484.01 73.2858 1479.17 90.6422 1470.37 106.532C1474.18 103.598 1476.82 101.765 1479.46 98.098C1478.73 103.598 1477.56 109.099 1476.09 114.477L1468.91 130.611C1467.44 125.721 1466.56 120.71 1466.27 115.577C1466.56 124.132 1465.39 132.688 1462.6 140.878C1462.16 141.367 1461.72 141.856 1461.28 142.467C1461.57 142.344 1461.87 142.1 1462.31 141.978C1461.87 143.078 1461.57 144.178 1461.13 145.156L1454.39 152.612L1445.74 160.067L1439 143.933L1428 155.667C1424.33 146.989 1420.52 137.944 1420.08 128.899C1420.67 129.144 1423.45 129.51 1424.04 129.755C1421.11 121.077 1419.2 112.765 1419.35 103.72C1419.06 115.088 1415.83 126.333 1410.26 136.6C1412.75 134.644 1414.51 133.544 1416.12 131.099C1415.39 136.6 1413.92 142.1 1412.02 147.478L1410.55 148.089L1408.06 144.544L1401.75 125.844L1399.99 119.243L1399.85 117.166L1396.33 123.032C1395.45 124.499 1395.16 126.577 1394.57 128.166C1393.54 131.099 1392.66 133.911 1392.37 136.844C1392.22 138.8 1392.37 140.755 1391.34 142.589C1390.9 143.322 1390.17 144.178 1389.29 144.911C1389.15 144.178 1389 143.567 1388.85 142.833C1387.53 134.522 1384.01 112.521 1383.13 107.387C1384.6 108.365 1385.92 109.343 1387.39 110.321C1386.07 105.187 1383.72 98.9536 1383.87 93.6978C1384.45 93.9423 1387.24 95.5312 1387.24 96.0202C1384.75 84.7752 1383.28 73.4081 1382.84 62.0409C1381.67 76.2193 1378.74 90.2755 1374.19 103.843C1375.51 102.987 1376.83 102.009 1378 101.154C1375.95 111.91 1372.14 122.421 1367.01 132.322C1369.79 131.955 1372.43 131.099 1374.63 129.633C1373.6 130.244 1373.31 135.011 1373.02 136.233C1372.43 138.8 1371.7 141.367 1370.96 143.933C1370.23 146.5 1369.79 149.189 1369.21 151.756C1367.89 150.534 1367.3 147.6 1366.86 146.745C1365.83 144.545 1364.22 142.467 1363.05 140.389C1360.41 135.5 1358.5 130.366 1356.16 125.233L1355.42 126.21L1353.37 129.755C1352.93 130.488 1352.78 131.344 1352.64 132.077C1350.14 124.621 1348.39 117.166 1347.95 109.832C1348.83 110.199 1353.37 110.932 1354.25 111.299C1349.56 97.2424 1346.48 83.9196 1346.63 69.2523C1346.19 87.0976 1341.35 104.821 1332.55 121.077C1331.82 118.51 1331.23 116.065 1330.5 113.499C1330.2 112.399 1329.91 107.632 1328.89 106.898C1331.08 108.365 1333.72 109.221 1336.51 109.587C1331.38 99.5648 1327.71 89.0532 1325.51 78.4194L1329.33 81.1084C1324.78 67.4189 1321.85 53.3628 1320.67 39.3066C1320.23 50.6737 1318.77 62.1631 1316.28 73.2858C1316.28 72.7969 1319.21 71.208 1319.65 70.9635C1319.94 76.0971 1317.6 82.4529 1316.13 87.5865C1317.6 86.6086 1318.92 85.6308 1320.38 84.653C1319.5 89.7866 1315.98 111.788 1314.66 120.099C1314.08 123.277 1313.34 126.455 1312.32 129.755C1314.66 128.777 1316.57 127.188 1317.74 125.233C1317.3 128.41 1317.16 131.466 1317.01 134.644C1316.86 134.889 1316.72 135.5 1316.72 135.5L1314.22 143.933L1310.41 158.112C1309.68 159.456 1309.09 160.679 1308.36 162.023C1308.8 161.779 1309.24 161.412 1309.68 161.167L1308.95 163.856L1307.77 164.712C1304.4 156.767 1301.32 148.7 1300.88 140.633C1301.47 140.878 1304.25 141.244 1304.84 141.489C1301.91 132.811 1300 124.499 1300.15 115.454C1299.85 126.822 1296.63 138.066 1291.06 148.334C1293.4 146.378 1295.31 145.278 1296.92 142.956C1293.26 147.967 1293.99 157.623 1291.2 163.49C1287.98 170.701 1286.81 178.402 1283.58 185.491C1282.55 187.569 1281.38 189.524 1279.91 191.48C1279.91 191.358 1279.77 191.235 1279.77 191.113C1277.42 185.857 1275.96 180.357 1275.22 174.735C1274.2 175.713 1273.32 176.813 1272.44 177.79C1271.12 173.512 1270.09 169.234 1269.94 164.957C1270.53 165.201 1273.32 165.568 1273.9 165.812C1270.97 157.134 1269.07 148.822 1269.21 139.778C1268.92 151.145 1265.69 162.39 1260.12 172.657C1262.61 170.701 1264.37 169.601 1265.99 167.157C1265.11 174.124 1263.05 181.091 1260.27 187.813C1260.27 187.935 1260.12 188.058 1260.12 188.18C1256.02 180.724 1251.91 173.39 1247.66 165.934C1247.66 165.568 1247.66 165.201 1247.51 164.834C1248.1 165.079 1250.88 165.445 1251.47 165.69C1248.54 157.012 1246.63 148.7 1246.78 139.655C1246.49 148.456 1244.58 157.256 1241.06 165.69C1239.89 166.423 1238.72 166.912 1237.4 167.034C1236.66 167.157 1235.93 167.157 1235.2 166.912C1235.05 166.668 1235.05 166.423 1234.9 166.179C1233.58 162.39 1233.58 158.478 1232.85 154.689C1233.73 155.789 1235.05 156.767 1236.52 157.378C1235.78 155.423 1235.05 153.345 1234.61 151.389C1233.29 146.256 1230.06 132.444 1229.33 129.266C1230.21 129.877 1231.24 130.366 1232.12 130.977C1230.94 127.799 1229.18 123.888 1229.04 120.588C1229.33 120.71 1231.24 121.566 1231.38 121.932C1229.33 114.965 1227.87 107.754 1226.99 100.665C1226.99 109.587 1225.81 118.632 1223.61 127.31C1224.35 126.699 1225.08 126.088 1225.96 125.477C1225.23 132.322 1223.32 139.044 1220.53 145.522C1222.29 145.156 1223.91 144.545 1225.23 143.567C1224.64 144.056 1224.64 146.989 1224.49 147.722C1224.2 149.311 1223.91 151.023 1223.61 152.612C1223.32 154.323 1223.03 155.912 1222.88 157.501C1220.83 161.412 1218.78 165.323 1216.72 169.234C1209.1 153.467 1208.07 135.989 1207.34 118.877C1205.29 128.899 1202.21 138.8 1198.25 148.334C1197.37 145.033 1196.78 141.733 1196.64 138.555C1197.22 138.8 1200.01 139.167 1200.59 139.411C1197.66 130.733 1195.76 122.421 1195.9 113.376C1195.61 124.744 1192.38 135.989 1186.81 146.256C1189.3 144.3 1191.06 143.2 1192.68 140.755C1191.94 145.767 1190.77 150.778 1189.16 155.667C1187.69 152.734 1186.08 149.8 1184.61 146.867C1182.12 150.656 1179.77 154.323 1177.28 158.112C1175.67 155.178 1174.35 152.123 1173.32 148.945C1171.71 143.811 1171.56 138.678 1170.54 133.544C1171.71 135.133 1173.47 136.355 1175.38 137.089C1174.35 134.4 1173.47 131.711 1172.74 129.144C1171.12 122.177 1166.73 103.72 1165.55 99.4425C1166.87 100.176 1168.05 100.909 1169.36 101.765C1167.9 97.4869 1165.41 92.3533 1165.41 87.9532C1165.85 88.1976 1168.49 89.2977 1168.49 89.7866C1165.7 80.375 1163.65 70.8413 1162.62 61.3075C1162.62 73.2858 1161.01 85.2641 1158.08 96.998C1159.1 96.1424 1160.13 95.409 1161.15 94.5534C1160.13 103.72 1157.64 112.765 1153.97 121.321C1156.32 120.955 1158.52 119.977 1160.27 118.754C1159.54 119.366 1159.54 123.399 1159.39 124.377C1158.95 126.577 1158.66 128.777 1158.22 130.977C1157.49 134.889 1157.2 138.555 1156.17 142.344C1155.29 145.889 1154.12 149.311 1152.8 152.734C1152.65 152.856 1152.65 153.1 1152.5 153.223C1150.89 150.411 1149.42 147.478 1148.11 144.544C1149.57 145.767 1151.04 146.867 1152.8 147.845C1148.55 137.333 1142.83 126.21 1142.24 115.088C1142.83 115.332 1145.61 115.699 1146.2 115.943C1143.27 107.265 1141.36 98.9536 1141.51 89.9088C1141.21 101.276 1137.99 112.521 1132.42 122.788C1134.91 120.832 1136.67 119.732 1138.28 117.288C1137.4 124.255 1135.35 131.222 1132.56 137.944C1131.1 141.367 1129.19 143.078 1126.55 146.011C1130.36 144.3 1133.44 141.733 1135.79 138.678C1135.35 143.2 1134.91 147.722 1134.47 152.123C1134.62 151.756 1134.91 151.389 1135.06 151.145C1134.62 155.301 1134.18 159.334 1133.74 163.49C1129.92 161.901 1126.99 158.967 1125.97 155.545C1124.06 167.279 1122.15 178.89 1120.25 190.624C1119.81 193.436 1119.07 196.613 1116.29 198.325C1109.84 202.236 1106.32 191.847 1105 188.669C1101.19 191.602 1098.26 195.269 1096.2 199.18C1092.24 190.991 1089.46 182.313 1087.99 173.512C1086.82 175.346 1085.5 177.057 1084.33 178.89C1083.01 174.124 1082.86 169.357 1081.83 164.59C1083.01 166.179 1084.77 167.401 1086.67 168.134C1085.65 165.445 1084.77 162.756 1084.03 160.19C1082.42 153.223 1078.02 134.766 1076.85 130.488C1078.17 131.222 1079.34 131.955 1080.66 132.811C1079.19 128.533 1076.7 123.399 1076.7 118.999C1077.14 119.243 1079.78 120.343 1079.78 120.832C1077 111.421 1074.94 101.887 1073.92 92.3533C1073.92 104.332 1072.3 116.31 1069.37 128.044C1070.4 127.188 1071.42 126.455 1072.45 125.599C1071.42 134.766 1068.93 143.811 1065.27 152.367C1065.85 152.245 1066.44 152.123 1066.88 152C1064.09 157.378 1061.31 162.756 1058.52 168.379C1055.44 157.867 1053.39 147.234 1052.36 136.355C1051.04 142.711 1049.87 149.067 1048.55 155.423C1045.91 151.145 1043.57 146.622 1041.66 142.1C1041.37 140.878 1040.93 139.533 1040.78 138.311C1041.37 138.555 1044.15 138.678 1044.74 138.8C1040.63 130.488 1037.7 122.421 1036.53 113.376C1037.7 124.621 1036.09 136.111 1031.84 146.867C1034.04 144.789 1035.65 143.444 1036.97 140.878C1036.97 147.967 1035.94 155.056 1034.04 161.901C1033.01 165.445 1031.4 167.401 1029.2 170.579C1030.37 169.846 1031.54 169.112 1032.57 168.257C1029.34 177.179 1025.83 185.98 1021.87 194.658C1020.99 191.48 1019.96 188.302 1018.35 185.246C1018.79 185.613 1019.37 185.857 1019.81 186.224C1017.76 183.046 1016 181.091 1014.98 177.546C1013.07 170.701 1012.04 163.612 1012.04 156.523C1013.36 159.09 1015.12 160.434 1017.18 162.512C1012.92 151.756 1011.31 140.267 1012.48 129.022C1011.31 137.944 1008.38 146.011 1004.27 154.445C1004.86 154.2 1007.65 154.078 1008.23 153.956C1007.35 158.967 1005.3 163.979 1002.81 168.868C1001.34 166.301 999.728 164.223 1000.46 161.167C1000.17 162.145 1000.02 163.001 999.728 163.979C999.435 161.901 999.141 159.701 998.702 157.623C999.875 159.212 1001.63 160.434 1003.54 161.167C1002.51 158.478 1001.63 155.789 1000.9 153.223C999.288 146.256 994.89 127.799 993.717 123.521C995.036 124.255 996.209 124.988 997.529 125.844C996.062 121.566 993.57 116.432 993.57 112.032C994.01 112.276 996.649 113.376 996.649 113.865C993.863 104.454 991.811 94.9201 990.784 85.3864C990.784 97.3647 989.172 109.343 986.239 121.077C987.266 120.221 988.292 119.488 989.318 118.632C988.292 127.799 985.799 136.844 982.134 145.4C984.48 145.033 986.679 144.056 988.438 142.833C987.705 143.444 987.705 147.478 987.559 148.456C987.119 150.656 986.826 152.856 986.386 155.056C985.653 158.967 985.359 162.634 984.333 166.423C983.747 168.746 983.013 170.946 982.28 173.268C981.694 170.823 981.254 168.379 980.668 165.934C980.228 164.223 979.788 162.39 979.348 160.679C979.201 159.945 979.055 156.645 978.322 156.156C979.788 157.134 981.694 157.745 983.453 158.112C980.081 151.267 977.589 144.056 976.416 136.722C977.295 137.333 978.175 137.944 979.055 138.555C976.122 129.144 974.363 119.488 973.63 109.832C973.19 117.654 972.017 125.355 970.258 133.055C970.258 132.688 972.31 131.711 972.604 131.466C972.75 135.011 970.991 139.289 969.964 142.833C970.991 142.222 971.87 141.489 972.897 140.878C972.31 144.3 969.525 159.456 968.498 165.079C968.352 165.69 968.205 166.301 968.058 166.912C965.566 162.145 963.66 157.134 962.78 152.245C963.367 152.489 966.152 152.612 966.739 152.734C962.634 144.422 959.701 136.355 958.528 127.31C959.701 138.555 958.088 150.045 953.836 160.801C956.036 158.723 957.648 157.378 958.968 154.812C958.968 159.456 958.528 163.979 957.649 168.501C956.182 173.024 954.423 177.668 952.664 182.191C952.224 182.924 951.637 183.657 951.051 184.513C951.344 184.391 951.637 184.146 951.931 183.902C950.904 186.469 949.731 189.158 948.705 191.724C946.359 188.913 944.013 186.224 941.667 183.413C941.081 188.669 940.494 194.047 939.908 199.302C939.615 201.869 938.442 203.947 936.536 205.781C936.096 205.903 935.802 205.903 935.363 206.025C932.43 199.791 929.351 193.68 926.419 187.446C925.099 189.158 923.78 190.869 922.314 192.458C922.02 191.358 921.727 190.258 921.287 189.158C922.02 189.646 922.607 190.135 923.34 190.624C922.02 188.791 920.994 187.446 920.261 185.735C919.675 183.902 919.235 182.068 918.648 180.235C917.622 175.59 917.035 170.823 917.035 166.179C918.208 168.257 919.528 169.357 921.287 171.068C917.768 162.268 916.449 152.734 917.475 143.444C916.596 150.9 914.103 157.501 910.731 164.345C911.171 164.223 913.517 164.101 914.103 163.856C912.93 170.457 909.411 176.813 905.892 183.046C905.746 183.291 905.453 183.535 905.306 183.78C902.813 178.646 900.321 173.39 897.975 168.257C897.535 173.268 895.336 178.279 891.964 182.313C891.817 182.191 891.671 182.191 891.671 182.068C889.911 176.568 888.445 171.068 888.445 165.568C888.885 165.812 891.231 166.179 891.671 166.423C889.765 159.212 888.592 152.245 889.031 144.911C888.152 154.2 885.073 163.368 879.794 171.679C881.847 170.212 883.46 169.357 884.926 167.401C884.486 169.723 883.9 171.923 883.167 174.124C882.14 175.346 881.261 176.69 880.234 177.913C879.501 176.079 878.915 174.246 878.475 172.29C877.155 167.034 873.93 152.978 873.05 149.678C874.076 150.289 874.956 150.778 875.982 151.389C874.809 148.089 873.05 144.178 872.903 140.878C873.197 141 875.249 141.855 875.249 142.222C873.05 135.133 871.584 127.799 870.704 120.466C870.704 129.633 869.531 138.678 867.185 147.722C867.918 147.111 868.798 146.5 869.531 145.889C868.945 151.389 867.625 156.889 865.573 162.267C864.546 158.112 863.52 153.956 862.494 149.8C861.027 161.412 858.535 172.779 854.869 184.024C853.696 179.746 850.764 169.601 850.031 167.157C850.911 167.645 851.937 168.012 852.817 168.501C851.791 166.057 850.031 163.001 850.031 160.434C850.324 160.556 852.23 161.167 852.23 161.412C850.324 155.912 848.858 150.411 848.125 144.789C847.978 151.756 846.659 158.845 844.313 165.69C845.046 165.201 845.926 164.712 846.659 164.223C845.779 169.479 843.873 174.612 841.087 179.624C838.742 175.101 836.982 170.335 836.102 165.445C837.129 171.435 836.689 177.179 835.516 183.168C835.809 182.924 837.715 182.435 838.008 182.313C838.302 185.613 838.008 188.913 837.422 192.335C834.783 189.646 832.437 186.591 830.678 183.291C829.651 189.158 828.625 195.024 827.745 200.891C826.865 199.669 826.132 198.447 825.399 197.225C825.253 196.98 825.106 196.736 824.959 196.491C824.813 194.902 824.666 193.68 824.666 192.947C825.546 193.558 826.279 194.169 827.159 194.78C826.572 191.847 825.399 188.18 825.693 185.246C825.986 185.369 827.745 186.346 827.598 186.591C826.572 180.113 826.132 173.635 826.279 167.157C825.106 174.246 823.2 181.213 820.561 187.935C818.801 184.146 817.482 180.357 816.895 176.568C817.335 176.69 819.681 176.935 820.121 177.057C816.895 170.09 814.696 163.368 813.963 156.034C814.696 165.323 813.083 174.735 809.271 183.535C811.031 181.824 812.497 180.724 813.67 178.646C813.523 184.513 812.497 190.258 810.737 196.002C809.858 198.936 808.392 200.403 806.486 202.969C809.418 201.38 811.764 199.058 813.377 196.491C812.79 201.014 812.204 205.536 811.617 210.181C808.392 206.636 805.752 202.603 803.993 198.325C802.38 203.091 800.767 207.736 799.301 212.503C797.102 210.425 795.343 208.225 793.73 205.781C793.73 204.68 793.73 203.703 793.73 202.603C794.17 202.847 796.516 203.336 796.955 203.58C795.343 196.491 794.61 189.891 795.489 182.802C794.17 191.724 790.358 200.28 784.64 207.981C786.399 206.881 787.865 206.147 789.331 204.925C789.185 205.903 789.038 206.758 789.038 207.736C788.158 210.058 787.279 212.381 786.106 214.703C785.812 214.825 785.519 214.948 785.226 214.948C782.88 211.281 781.121 207.247 780.388 203.091C778.628 206.147 776.869 209.203 775.109 212.259C774.23 210.303 773.35 208.347 772.617 206.269C773.496 207.125 774.669 207.858 775.842 208.347C774.963 206.392 774.376 204.558 773.79 202.603C772.47 197.591 769.098 184.268 768.365 181.091C769.391 181.579 770.271 182.191 771.297 182.68C770.124 179.624 768.365 175.835 768.218 172.657C768.511 172.779 770.564 173.635 770.564 174.001C768.365 167.279 766.899 160.312 766.019 153.345C766.019 162.023 764.846 170.701 762.647 179.135C763.38 178.524 764.26 177.913 764.993 177.424C764.26 184.024 762.354 190.502 759.568 196.858C761.327 196.613 762.94 195.88 764.406 195.024C763.82 195.391 763.82 198.325 763.673 199.058C763.38 200.647 763.087 202.236 762.793 203.825C762.5 205.536 762.207 207.247 761.914 208.958C761.181 211.77 760.301 214.459 759.568 217.148C757.808 216.17 756.195 214.825 755.023 213.236C754.583 211.647 754.29 210.181 753.996 208.592C754.436 208.714 756.782 208.958 757.369 209.203C754.29 202.48 752.237 196.002 751.65 188.913C752.09 196.736 750.771 204.558 747.692 212.014C746.812 211.892 745.932 211.403 745.346 210.67C744.759 208.958 744.173 207.125 743.733 205.292C743.44 202.236 743.586 198.936 743.586 196.613C743.147 197.469 742.707 198.447 742.267 199.302C741.534 196.125 741.241 193.069 741.387 190.013C741.68 190.258 743.733 190.624 744.026 190.869C742.56 184.635 741.974 178.768 742.707 172.412C741.827 179.379 739.335 186.102 735.523 192.335C735.083 190.747 734.643 189.158 734.203 187.446C733.47 187.935 732.737 188.424 732.15 188.913C732.004 188.424 732.004 188.058 731.857 187.569C731.124 182.68 729.071 169.601 728.485 166.545C729.365 167.157 730.098 167.645 730.977 168.257C730.098 165.201 728.778 161.534 728.925 158.356C729.218 158.478 730.977 159.456 730.977 159.701C729.511 153.1 728.631 146.256 728.338 139.533C727.605 147.967 725.992 156.278 723.207 164.345C723.94 163.856 724.673 163.245 725.552 162.756C724.233 169.112 722.18 175.346 719.101 181.213C720.128 181.091 721.007 180.846 722.034 180.479C720.567 185.124 718.955 189.891 717.488 194.536C716.022 189.769 714.556 185.002 713.09 180.113C709.131 185.491 705.906 191.358 703.56 197.347C701.214 190.991 699.161 184.391 699.161 177.913C699.601 178.157 701.947 178.524 702.387 178.768C700.334 171.557 699.161 164.59 699.601 157.256C698.868 166.545 695.789 175.713 690.657 184.024C692.71 182.557 694.323 181.579 695.789 179.746C695.056 183.902 693.736 187.935 692.124 191.969C689.191 188.058 687.139 183.78 685.966 179.257C684.499 182.557 683.033 185.735 681.421 189.035C680.394 187.08 679.514 185.002 678.488 182.924C679.368 183.78 680.541 184.513 681.86 184.88C680.981 182.924 680.101 180.968 679.514 179.013C677.902 173.879 673.65 160.19 672.623 157.012C673.65 157.501 674.529 158.112 675.556 158.601C674.236 155.423 672.184 151.634 671.744 148.334C672.037 148.456 674.09 149.189 674.09 149.556C671.451 142.589 669.544 135.5 668.078 128.288C668.665 137.333 668.225 146.378 666.612 155.301C667.345 154.689 668.078 153.956 668.811 153.345C668.518 160.312 667.198 167.157 664.853 173.757C666.612 173.39 668.225 172.657 669.398 171.557C668.811 172.046 669.105 175.101 668.958 175.835C668.811 177.546 668.518 179.135 668.371 180.846C668.078 182.68 668.078 184.391 667.932 186.224C667.345 189.402 666.612 192.58 666.026 195.758C665.732 196.858 665.439 197.958 664.999 199.058C662.8 194.902 660.894 190.624 660.161 186.346C660.601 186.469 662.947 186.591 663.533 186.713C660.014 179.868 657.522 173.268 656.495 165.812C657.375 173.268 656.789 180.846 654.736 188.18C654.736 187.813 654.736 187.324 654.883 186.957C654.736 187.691 654.589 188.302 654.589 189.035C654.149 190.502 653.71 192.091 653.123 193.558C653.27 193.313 653.563 193.191 653.71 193.069C652.83 196.125 651.657 199.058 650.191 201.869C648.578 199.058 647.112 196.247 645.792 193.313C645.059 196.491 644.473 199.669 644.326 202.969C644.18 202.48 644.18 202.114 644.033 201.625C643.3 196.858 641.101 184.391 640.661 181.457C641.54 182.068 642.42 182.557 643.153 183.168C642.273 180.235 640.954 176.69 641.101 173.757C641.394 173.879 643.153 174.735 643.153 175.101C641.687 168.746 640.807 162.268 640.514 155.789C639.781 163.856 638.022 171.801 635.382 179.624C636.116 179.135 636.995 178.646 637.728 178.035C636.409 184.146 634.209 190.135 631.13 195.758C632.157 195.636 633.183 195.391 634.063 195.024C632.45 199.547 630.984 204.069 629.371 208.592C627.905 203.947 626.439 199.425 624.826 194.78C620.867 200.036 617.495 205.536 615.149 211.403C612.803 205.292 610.604 198.936 610.751 192.824C611.19 193.069 613.536 193.436 613.976 193.68C611.924 186.713 610.604 180.113 611.044 173.024C610.311 181.946 607.232 190.747 601.954 198.691C604.006 197.225 605.619 196.369 607.085 194.536C606.352 198.569 605.033 202.48 603.42 206.269C600.487 202.48 598.435 198.325 597.262 194.047C595.796 197.225 594.183 200.28 592.717 203.458C591.69 201.503 590.664 199.547 589.784 197.591C590.664 198.447 591.837 199.058 593.156 199.425C592.13 197.591 591.397 195.636 590.664 193.802C589.051 188.913 584.653 175.713 583.626 172.657C584.653 173.146 585.679 173.635 586.559 174.124C585.239 171.068 583.04 167.401 582.747 164.223C583.04 164.345 585.093 165.079 585.093 165.445C582.453 158.845 580.401 152 579.081 145.033C579.668 153.712 579.228 162.39 577.468 170.946C578.201 170.335 578.935 169.723 579.668 169.112C579.374 175.713 577.908 182.313 575.562 188.669C577.322 188.302 578.935 187.569 580.254 186.591C579.668 187.08 579.961 190.013 579.814 190.624C579.814 191.235 579.668 191.847 579.521 192.458L572.923 197.225L572.337 197.469C569.698 192.091 567.792 186.713 566.912 180.968C567.498 185.491 567.498 190.135 566.912 194.658L565.299 192.824L564.566 186.346C565.006 186.591 565.446 186.835 565.885 186.957C565.152 184.635 564.566 182.191 564.126 179.868C563.98 179.257 563.98 178.524 563.833 177.79L563.686 175.59L563.54 175.713C562.367 168.257 560.461 156.645 560.021 153.589C561.047 154.323 562.073 155.056 563.1 155.789C562.073 152 560.314 147.356 560.461 143.444C560.901 143.689 562.953 144.789 562.953 145.156C561.194 136.844 560.021 128.41 559.728 119.977C558.848 130.488 556.649 140.878 553.276 151.023C554.303 150.411 555.182 149.678 556.209 149.067C554.596 157.012 551.957 164.834 548.145 172.168C550.197 171.923 552.104 171.19 553.863 170.212C553.13 170.701 552.837 174.246 552.69 175.101C552.25 177.057 551.664 178.89 551.224 180.846C550.344 184.146 549.904 187.446 548.731 190.747C548.731 190.869 548.585 190.991 548.585 190.991L546.532 192.702L542.427 185.735L540.814 179.99L538.175 179.379L534.216 180.113L533.043 178.646C532.163 176.079 531.137 173.512 530.257 170.946L528.351 162.512L527.472 161.29C526.885 158.601 526.592 156.034 526.592 153.467C527.032 153.712 529.378 154.078 529.818 154.323C527.765 147.111 526.592 140.144 527.032 132.811C526.299 142.1 523.22 151.267 518.088 159.579C520.141 158.112 521.754 157.134 523.22 155.301C522.78 157.867 522.047 160.434 521.314 163.001L519.554 164.834C517.795 160.556 516.329 156.278 515.156 152C514.129 148.211 513.983 144.422 513.25 140.633C512.81 138.433 512.37 136.233 512.077 134.033C511.93 133.055 511.93 129.022 511.197 128.41C512.956 129.755 515.156 130.611 517.502 130.977C513.836 122.299 511.344 113.254 510.317 104.209C511.344 105.065 512.37 105.798 513.396 106.654C510.464 94.9201 508.998 82.9418 508.851 70.9635C507.678 80.6195 505.772 90.1532 502.84 99.4425C502.84 99.0759 505.479 97.8536 505.919 97.6091C505.772 102.009 503.426 107.265 501.814 111.421C503.133 110.687 504.306 109.954 505.626 109.099C504.599 113.376 500.201 131.833 498.441 138.8C497.708 141.244 496.975 143.689 496.095 146.133L495.509 145.4C494.336 137.578 492.87 128.777 492.43 125.966C493.603 126.822 494.776 127.555 496.095 128.41C494.922 124.133 492.87 118.754 493.163 114.354C493.603 114.599 496.095 115.821 496.095 116.31C494.043 106.776 492.723 97.2424 492.43 87.5865C491.404 99.5648 489.058 111.421 485.099 122.91C486.125 122.177 487.298 121.443 488.325 120.588C487.005 127.555 484.806 134.277 481.873 140.878C479.967 134.277 478.941 127.799 478.941 120.832C478.648 132.2 475.422 143.444 469.851 153.712C472.343 151.756 474.103 150.656 475.716 148.211C474.836 155.178 472.783 162.145 469.997 168.868C468.531 172.29 466.625 174.001 463.986 176.935C467.798 175.224 470.877 172.657 473.223 169.601C473.223 169.723 473.223 169.846 473.223 170.09C472.93 171.068 472.637 172.046 472.343 173.024C471.61 175.59 471.903 178.035 470.877 180.602C470.437 181.579 469.997 182.557 469.704 183.535C469.118 185.368 468.678 187.324 467.945 189.158C467.652 189.891 467.505 191.969 466.185 192.213C465.452 189.524 464.426 187.08 463.693 184.391C462.813 180.846 462.227 177.301 461.347 173.879C460.614 171.068 459.734 168.257 459.001 165.323C458.268 162.634 457.975 159.823 457.095 157.012C456.948 156.401 456.655 155.789 456.362 155.178C458.708 158.356 461.787 161.167 465.452 163.368C461.2 152.856 455.482 141.733 454.896 130.611C455.482 130.855 458.268 131.222 458.854 131.466C455.922 122.788 454.016 114.477 454.163 105.432C454.016 112.276 452.697 119.121 450.497 125.844C449.178 117.41 446.978 103.232 446.245 99.5648C447.418 100.42 448.591 101.154 449.911 102.009C448.738 97.7314 446.685 92.3533 446.978 87.9532C447.418 88.1976 449.911 89.4199 449.911 89.9088C447.858 80.375 446.539 70.8413 446.245 61.1853C445.219 73.1636 442.873 85.0197 438.914 96.5091C439.941 95.7757 441.114 95.0423 442.14 94.1867C440.381 103.232 437.302 112.154 432.903 120.588C435.249 120.343 437.448 119.488 439.354 118.266C438.475 118.754 438.328 122.788 438.035 123.766C437.448 125.966 436.862 128.166 436.275 130.244C435.249 134.033 434.663 137.822 433.343 141.489C430.557 149.434 426.745 157.134 421.907 164.468C422.493 163.49 425.426 162.39 426.452 161.656C427.332 161.045 428.065 160.434 428.798 159.823C426.305 167.401 424.839 175.224 423.08 182.924C421.614 167.279 420.147 151.756 418.828 136.111C418.535 137.822 414.576 152.612 411.644 151.878C411.644 151.878 411.643 151.878 411.497 151.878C411.057 148.7 411.204 145.522 410.764 142.344C411.643 143.689 412.963 144.789 414.576 145.522C413.843 143.322 413.403 141 412.963 138.678C412.083 132.811 409.591 117.288 409.004 113.621C410.031 114.354 411.057 114.965 411.937 115.699C410.91 112.032 409.298 107.632 409.444 103.965C409.884 104.209 411.937 105.187 411.937 105.554C410.177 97.6091 409.151 89.5421 408.858 81.4751C407.978 91.4977 405.925 101.398 402.7 111.054C403.579 110.443 404.459 109.832 405.486 109.099C404.019 116.188 401.674 123.155 398.448 129.877C397.275 129.388 396.102 128.899 394.929 128.288C394.782 127.066 394.636 125.844 394.636 124.621C395.222 124.866 398.008 125.233 398.595 125.477C395.662 116.799 393.756 108.487 393.903 99.4425C393.756 107.265 392.143 115.21 389.211 122.666C388.771 122.299 387.891 121.443 387.891 121.443L384.666 118.51C383.786 114.721 383.2 111.054 383.053 107.265C383.933 107.632 388.185 108.243 389.064 108.732C384.519 95.2868 381.587 82.5751 381.733 68.6412C381.294 86.1197 376.455 103.476 367.658 119.366C371.47 116.432 374.109 114.599 376.748 110.932C376.015 116.432 374.842 121.932 373.376 127.31L366.485 143.567C365.019 138.678 364.139 133.666 363.846 128.533C364.139 137.089 362.966 145.645 360.181 153.834C359.741 154.323 359.301 154.812 358.861 155.423C359.154 155.301 359.448 155.056 359.887 154.934C359.448 156.034 359.154 157.134 358.714 158.112L351.97 165.568L343.32 173.024L336.575 156.889L325.579 168.623C321.913 159.945 318.101 150.9 317.661 141.856C318.248 142.1 321.034 142.467 321.62 142.711C318.688 134.033 316.782 125.721 316.928 116.677C316.635 128.044 313.409 139.289 307.838 149.556C310.331 147.6 312.09 146.5 313.703 144.056C312.97 149.556 311.503 155.056 309.597 160.434L308.131 161.045L305.639 157.501L299.334 138.8L297.575 132.2L297.428 130.122L293.909 135.989C293.03 137.455 292.736 139.533 292.15 141.122C291.124 144.056 290.244 146.867 289.951 149.8C289.804 151.756 289.951 153.712 288.924 155.545C288.484 156.278 287.751 157.134 286.872 157.867C286.725 157.134 286.578 156.523 286.432 155.789C285.112 147.478 281.593 125.477 280.714 120.343C282.18 121.321 283.499 122.299 284.966 123.277C283.646 118.143 281.3 111.91 281.447 106.654C282.033 106.898 284.819 108.487 284.819 108.976C282.327 97.7314 280.86 86.3642 280.421 74.997C279.248 89.1754 276.315 103.232 271.77 116.799C273.09 115.943 274.409 114.965 275.582 114.11C273.529 124.866 269.717 135.377 264.586 145.278C267.371 144.911 270.011 144.056 272.21 142.589C271.184 143.2 270.89 147.967 270.597 149.189C270.011 151.756 269.277 154.323 268.544 156.889C267.811 159.456 267.371 162.145 266.785 164.712C265.465 163.49 264.879 160.556 264.439 159.701C263.413 157.501 261.8 155.423 260.627 153.345C257.988 148.456 256.082 143.322 253.736 138.189L253.003 139.166L250.95 142.711C250.51 143.444 250.364 144.3 250.217 145.033C247.725 137.578 245.965 130.122 245.525 122.788C246.405 123.155 250.95 123.888 251.83 124.255C247.138 110.199 244.059 96.8757 244.206 82.2084C243.766 100.054 238.928 117.777 230.13 134.033C229.397 131.466 228.811 129.022 228.078 126.455C227.785 125.355 227.491 120.588 226.465 119.855C228.664 121.321 231.303 122.177 234.089 122.544C228.958 112.521 225.292 102.009 223.093 91.3755C224.412 92.2311 225.732 93.2089 226.905 94.0645C222.36 80.375 219.427 66.3189 218.254 52.2627C217.815 63.6299 216.348 75.1192 213.856 86.242C213.856 85.753 216.788 84.1641 217.228 83.9196C217.521 89.0532 215.176 95.409 213.709 100.543C215.176 99.5648 216.495 98.5869 217.961 97.6091C217.082 102.743 213.563 124.744 212.243 133.055C211.657 136.233 210.924 139.411 209.897 142.711C212.243 141.733 214.149 140.144 215.322 138.189C214.882 141.367 214.736 144.422 214.589 147.6C214.442 147.845 214.296 148.456 214.296 148.456L211.803 156.889L207.991 171.068C207.258 172.412 206.672 173.635 205.939 174.979C206.378 174.735 206.818 174.368 207.258 174.124L206.525 176.813L205.352 177.668C201.98 169.723 198.901 161.656 198.461 153.589C199.048 153.834 201.833 154.2 202.42 154.445C199.487 145.767 197.581 137.455 197.728 128.41C197.435 139.778 194.209 151.023 188.638 161.29C191.13 159.334 192.89 158.234 194.502 155.789C193.769 161.29 192.45 166.668 190.544 172.046L189.517 174.001L187.318 178.768L186.732 179.99C186.585 180.113 186.438 180.357 186.292 180.479L182.92 176.813C183.213 173.635 183.506 170.457 183.946 167.157C181.893 167.034 179.694 167.034 177.641 167.034C179.254 160.19 180.867 153.467 182.48 146.622C177.641 149.678 173.829 153.712 171.483 158.234C171.483 149.923 170.164 141.611 167.525 133.666C161.513 138.678 155.502 143.689 149.491 148.578C149.197 146.867 148.904 145.033 147.731 143.689C146.558 142.344 144.066 141.489 142.306 142.467C140.987 143.2 140.4 144.667 138.934 145.156C136.588 145.889 134.682 143.567 133.803 141.611C131.163 135.866 129.551 129.877 128.964 123.766C127.938 124.866 126.912 125.966 125.885 127.188C124.419 122.544 123.246 117.777 123.099 113.132C123.686 113.376 126.765 113.865 127.351 114.11C124.126 104.576 122.073 95.5313 122.22 85.7531C121.927 98.098 118.408 110.443 112.25 121.688C114.889 119.61 116.795 118.266 118.701 115.699C117.675 123.399 115.475 130.977 112.396 138.311C112.396 138.433 112.25 138.555 112.25 138.678C107.705 130.611 103.159 122.421 98.6143 114.354C98.6143 113.988 98.6142 113.621 98.4676 113.132C99.0541 113.376 102.133 113.865 102.72 114.11C99.494 104.576 97.4413 95.5313 97.588 85.7531C97.2947 95.409 95.0954 105.065 91.2834 114.11C90.1104 114.843 88.7909 115.454 87.1781 115.577C86.2984 115.699 85.5653 115.699 84.8322 115.454C84.6856 115.21 84.6855 114.965 84.5389 114.721C83.2194 110.565 83.2194 106.287 82.1931 102.132C83.2194 103.354 84.5389 104.454 86.1517 105.065C85.272 102.865 84.5389 100.665 83.9525 98.5869C82.6329 92.9645 78.9675 77.8083 78.0878 74.3859C79.1141 74.997 80.1404 75.6082 81.1667 76.2193C79.9938 72.7969 77.9411 68.519 77.9411 64.8521C78.381 64.9744 80.4336 65.9522 80.4336 66.3189C78.0878 58.6185 76.475 50.9182 75.5953 42.9734C75.5953 52.7516 74.2757 62.5298 71.9298 72.1858L74.4223 70.2302C73.5426 77.686 71.4899 85.1419 68.5576 92.1089C70.4636 91.7422 72.223 91.0088 73.6892 90.031C73.1027 90.5199 73.1027 93.8201 72.9561 94.5534C72.6629 96.3868 72.3697 98.098 71.9298 99.9314C71.6366 101.765 71.3433 103.476 71.0501 105.309C68.8508 109.587 66.5049 113.865 64.3057 118.021C55.9485 100.787 54.9221 81.7195 54.0424 63.0187C51.8432 74.0192 48.471 84.7752 44.0724 95.2868C43.0461 91.7422 42.4596 88.1976 42.313 84.5308C42.8995 84.7752 45.9784 85.2641 46.5649 85.5086C43.3393 75.9749 41.2867 66.93 41.4333 57.1518C41.14 69.4968 37.6212 81.8418 31.4633 93.0867C34.1024 91.0088 36.0084 89.6643 37.9145 87.0975C37.1814 92.5978 35.8618 98.098 33.9557 103.354L28.9707 93.6978C26.3316 97.8536 23.6925 101.887 21.0534 106.043C19.294 102.743 17.8278 99.4425 16.8015 96.0202C15.0421 90.3977 14.8954 84.7752 13.7225 79.1528C15.0421 80.8639 16.9481 82.2085 19.0007 83.064C17.8278 80.1306 16.9481 77.1971 16.0684 74.3859C14.309 66.8078 9.47056 46.6402 8.29762 41.9956C9.61717 42.8512 11.0834 43.7068 12.4029 44.4401C10.7901 39.7955 8.15102 34.0508 8.0044 29.2839C8.44426 29.5284 11.23 30.7506 11.3766 31.2396C8.29762 20.9724 6.09837 10.5831 4.92542 0.0715332C4.92542 13.1499 3.16601 26.2282 -0.0595818 39.0621C1.11336 38.2065 2.13967 37.2287 3.31261 36.3731C2.13967 46.3958 -0.499443 56.174 -4.60474 65.7077C-2.11224 65.2188 0.233665 64.241 2.28632 62.8965C1.40661 63.5076 1.40659 67.9078 1.25997 69.0079C0.820118 71.4524 0.380272 73.7747 -0.0595818 76.2193C-0.939289 80.375 -1.08591 84.5308 -2.25885 88.6865C-3.28518 92.4756 -4.45812 96.2646 -5.9243 99.9314C-6.07092 100.054 -6.21755 100.298 -6.21755 100.42C-7.97697 97.3647 -9.58974 94.1868 -11.0559 90.8866C-9.44313 92.2311 -7.83034 93.4534 -6.07092 94.5534C-10.7627 83.064 -16.9206 70.8413 -17.5071 58.7408C-16.9206 58.9852 -13.8417 59.4741 -13.2552 59.7186C-16.4808 50.1848 -18.5334 41.14 -18.3868 31.3618C-18.6801 43.7068 -22.1989 56.0518 -28.3569 67.2967C-25.7177 65.2188 -23.8117 63.8743 -21.9056 61.3075C-22.932 69.0079 -25.1313 76.586 -28.2102 83.9196C-29.823 87.7087 -32.0223 89.5421 -34.6614 92.8423C-30.5561 91.0088 -27.0373 88.1976 -24.5448 84.8975C-24.9846 89.7866 -25.5711 94.6757 -26.011 99.5648C-25.7177 99.1981 -25.5711 98.8314 -25.2779 98.4647C-25.7177 102.987 -26.3042 107.51 -26.7441 112.032C-30.8494 110.321 -34.0749 107.143 -35.2479 103.354C-37.3005 116.188 -39.3532 128.899 -41.4058 141.733C-41.8457 144.789 -42.5788 148.211 -45.6578 150.167C-46.5375 150.778 -47.4172 151.023 -48.1503 151.145C-48.4435 167.034 -49.1766 183.046 -49.763 198.936C-50.936 224.97 -52.2555 251.127 -53.4285 277.161C-54.6014 303.318 -55.6278 329.597 -56.2143 355.754C-56.9474 383.01 -57.2406 410.145 -58.4135 437.402C-58.5602 442.657 -58.7068 447.791 -59 453.047H123.246C123.246 466.859 123.246 475.292 123.246 475.292H1324.93C1324.93 474.07 1324.93 469.181 1324.93 461.603H1545C1542.65 394.255 1540.16 326.175 1536.5 258.216ZM18.5609 110.687C18.4142 110.199 18.2676 109.71 18.121 109.221C18.4143 109.465 18.7075 109.71 19.0007 109.832C19.0007 110.199 18.8541 110.443 18.5609 110.687ZM115.475 142.956C115.182 143.444 114.889 143.933 114.742 144.422C114.449 143.811 114.009 143.2 113.716 142.589C114.449 141.855 115.182 141 115.769 140.144C115.622 141 115.475 141.978 115.475 142.956ZM233.356 149.434C233.21 149.067 233.063 148.7 232.916 148.334C231.45 144.056 230.864 139.778 229.691 135.377C233.21 132.688 235.849 130.733 238.488 127.188C237.608 134.766 235.849 142.222 233.356 149.434ZM402.113 132.688C401.674 132.444 401.234 132.2 400.794 131.955C400.501 131.833 400.207 131.711 399.914 131.466C400.94 131.099 401.967 130.611 402.993 130.122C402.553 130.366 402.26 131.466 402.113 132.688ZM483.633 150.778C483.193 152.367 482.9 153.834 482.46 155.423C482.167 155.667 481.873 155.912 481.58 156.278C481.434 156.401 481.287 156.645 481.14 156.767C480.261 153.712 479.674 150.534 479.528 147.478C480.114 147.356 480.701 147.234 481.287 146.989C482.167 147.111 483.046 147.356 483.34 147.478C483.193 147.111 483.046 146.745 483.046 146.378C483.779 146.011 484.513 145.645 485.099 145.278C484.073 145.767 483.78 149.923 483.633 150.778ZM499.028 151.511L495.949 147.111C497.708 146.378 499.174 145.156 500.347 143.811C499.614 146.378 499.321 148.945 499.028 151.511ZM655.176 211.159C655.029 210.914 654.883 210.792 654.736 210.547C655.029 210.303 655.323 209.936 655.469 209.692C655.323 210.181 655.323 210.67 655.176 211.159ZM656.642 189.402C656.789 194.047 656.202 198.814 655.176 203.458C654.443 199.914 654.003 196.369 654.003 192.824C655.029 191.724 655.909 190.869 656.642 189.402ZM652.977 204.68C653.27 204.803 654.15 205.047 654.883 205.169C654.736 205.658 654.589 206.147 654.443 206.636C654.15 207.492 654.003 208.225 653.563 208.836C653.417 208.592 653.123 208.225 652.977 207.981C652.83 207.003 652.83 205.903 652.977 204.68ZM578.935 195.636L579.081 195.024C579.081 195.391 578.935 195.758 578.935 196.247C578.641 197.958 578.641 199.669 578.495 201.38C577.908 204.436 577.175 207.492 576.589 210.547C576.295 211.647 575.856 212.625 575.562 213.725C574.683 212.136 573.803 210.425 573.07 208.836L577.029 201.136L578.935 195.636ZM729.658 191.724C729.658 191.602 729.658 191.358 729.658 191.235C729.658 191.358 729.804 191.48 729.951 191.602C729.804 191.602 729.658 191.724 729.658 191.724ZM845.193 179.013C844.606 179.379 844.606 181.702 844.46 182.313C844.166 183.291 844.02 184.268 843.726 185.368C842.7 183.78 841.674 182.191 840.794 180.602C842.407 180.235 843.873 179.624 845.193 179.013ZM843.433 186.346C843.287 187.08 843.14 187.935 842.993 188.669C842.7 188.424 842.407 188.18 842.26 187.813C842.26 187.935 842.26 188.058 842.114 188.18C841.674 186.835 841.234 185.491 840.794 184.146C841.527 185.124 842.407 185.735 843.433 186.346ZM821.587 189.891C821.441 190.135 821.441 190.502 821.294 190.747C821.147 190.502 821.147 190.38 821.001 190.135C821.147 190.135 821.294 190.013 821.587 189.891ZM750.477 211.892C750.331 212.014 750.038 212.136 749.891 212.136C750.038 211.892 750.331 211.647 750.477 211.281C750.477 211.525 750.477 211.647 750.477 211.892ZM738.455 204.314C738.602 204.803 738.748 205.169 738.895 205.658C738.895 205.781 738.895 205.781 738.748 205.903C738.748 205.292 738.602 204.803 738.455 204.314ZM738.015 191.969C737.575 193.802 736.989 195.513 736.402 197.225C736.109 196.125 735.816 195.147 735.523 194.047C736.402 193.558 737.282 192.947 738.015 191.969ZM852.963 188.669C852.963 188.302 852.817 187.935 852.67 187.691C852.817 187.813 852.963 187.935 853.11 188.058C853.11 188.302 852.963 188.424 852.963 188.669ZM867.625 169.112C867.479 169.846 867.332 170.457 867.185 171.19C866.745 169.479 866.306 167.89 865.866 166.179C866.745 165.812 867.479 165.445 868.212 164.957C867.625 165.323 867.625 168.379 867.625 169.112ZM878.622 179.746C878.475 179.135 878.182 178.524 878.035 178.035C878.475 178.279 878.915 178.524 879.355 178.768C879.208 179.135 878.915 179.502 878.622 179.746ZM969.085 179.135C968.938 178.89 968.938 178.768 968.792 178.524C968.938 178.646 969.085 178.768 969.085 178.89C969.085 178.89 969.085 179.013 969.085 179.135ZM969.818 171.312C969.525 170.946 969.378 170.457 969.085 169.968C969.525 169.601 969.818 169.234 970.111 168.746C969.965 169.601 969.818 170.457 969.818 171.312ZM1006.77 174.612C1006.62 174.612 1006.62 174.612 1006.47 174.612C1006.62 174.49 1006.62 174.246 1006.77 174.124C1006.77 174.368 1006.77 174.49 1006.77 174.612ZM1174.64 162.023C1174.5 161.534 1174.35 161.167 1174.2 160.679C1174.5 160.923 1174.79 161.045 1175.08 161.29C1174.94 161.534 1174.79 161.779 1174.64 162.023ZM1263.2 191.48C1262.91 191.969 1262.76 192.335 1262.47 192.824C1262.17 192.213 1261.88 191.724 1261.44 191.113C1262.17 190.38 1262.76 189.646 1263.35 188.913C1263.35 189.769 1263.35 190.624 1263.2 191.48ZM1336.36 135.744C1336.22 135.377 1336.07 135.011 1335.92 134.644C1334.46 130.366 1333.87 126.088 1332.7 121.688C1336.22 118.999 1338.86 117.043 1341.49 113.499C1340.47 121.077 1338.71 128.533 1336.36 135.744ZM1504.97 118.877C1504.53 118.632 1504.09 118.388 1503.65 118.143C1503.36 118.021 1503.07 117.899 1502.77 117.654C1503.8 117.288 1504.83 116.799 1505.85 116.31C1505.41 116.677 1505.12 117.777 1504.97 118.877Z" fill="url(#paint0_linear)"/>
<path d="M-96.3445 412.601C346.303 304.773 1234.66 325.689 1623.5 349.626L1613.7 514.319C859.252 525.342 -538.992 520.43 -96.3445 412.601Z" fill="#FEFEFE"/>
<defs>
<linearGradient id="paint0_linear" x1="742.627" y1="316.653" x2="742.627" y2="199.254" gradientUnits="userSpaceOnUse">
<stop stop-color="#40BCCF"/>
<stop offset="0.2722" stop-color="#38A1B7"/>
<stop offset="0.7548" stop-color="#2C7591"/>
<stop offset="1" stop-color="#276482"/>
</linearGradient>
</defs>
</svg>
