<svg width="43" height="43" viewBox="0 0 43 43" fill="none" xmlns="http://www.w3.org/2000/svg">
<rect width="43" height="43" rx="7" fill="#EBF5FA"/>
<path d="M18.5147 30.6389V27.4537C18.5147 26.6407 19.1787 25.9815 19.9977 25.9815H22.9917C23.385 25.9815 23.7622 26.1367 24.0403 26.4127C24.3184 26.6888 24.4746 27.0633 24.4746 27.4537V30.6389C24.4721 30.9769 24.6057 31.3019 24.8456 31.5418C25.0855 31.7817 25.4119 31.9166 25.7524 31.9166H27.795C28.749 31.9191 29.6647 31.5446 30.3402 30.8758C31.0156 30.207 31.3952 29.2989 31.3952 28.3519V19.278C31.3952 18.513 31.0536 17.7873 30.4625 17.2965L23.514 11.7873C22.3052 10.8214 20.5734 10.8526 19.4008 11.8614L12.6108 17.2965C11.9918 17.7728 11.6218 18.5006 11.6035 19.278V28.3426C11.6035 30.3165 13.2154 31.9166 15.2037 31.9166H17.1997C17.9069 31.9167 18.4816 31.3502 18.4868 30.6481L18.5147 30.6389Z" fill="#A190FF"/>
</svg>
