<svg width="43" height="44" viewBox="0 0 43 44" fill="none" xmlns="http://www.w3.org/2000/svg">
<rect y="0.5" width="43" height="43" rx="7" fill="#EBF5FA"/>
<path d="M12.5 22.5L22.5 22.501C22.8729 22.501 23.2324 22.6399 23.5084 22.8906C23.7844 23.1413 23.9572 23.4858 23.993 23.857L24 24V26C23.999 29.5 20.284 30.5 17.5 30.5C14.778 30.5 11.165 29.544 11.005 26.23L11 26V24C11 23.6271 11.1389 23.2676 11.3896 22.9916C11.6403 22.7156 11.9848 22.5428 12.356 22.507L12.5 22.5ZM24.488 22.5H29.5C29.8727 22.5 30.2321 22.6388 30.5081 22.8892C30.7841 23.1397 30.957 23.484 30.993 23.855L31 24V25.5C30.999 28.562 28.142 29.5 26 29.5C25.2745 29.5017 24.5529 29.3931 23.86 29.178C24.513 28.428 24.936 27.475 24.993 26.28L25 26V24C25 23.506 24.85 23.049 24.601 22.662L24.488 22.5H29.5H24.488ZM17.5 11.5C18.6935 11.5 19.8381 11.9741 20.682 12.818C21.5259 13.6619 22 14.8065 22 16C22 17.1935 21.5259 18.3381 20.682 19.182C19.8381 20.0259 18.6935 20.5 17.5 20.5C16.3065 20.5 15.1619 20.0259 14.318 19.182C13.4741 18.3381 13 17.1935 13 16C13 14.8065 13.4741 13.6619 14.318 12.818C15.1619 11.9741 16.3065 11.5 17.5 11.5ZM26.5 13.5C27.4283 13.5 28.3185 13.8687 28.9749 14.5251C29.6313 15.1815 30 16.0717 30 17C30 17.9283 29.6313 18.8185 28.9749 19.4749C28.3185 20.1313 27.4283 20.5 26.5 20.5C25.5717 20.5 24.6815 20.1313 24.0251 19.4749C23.3687 18.8185 23 17.9283 23 17C23 16.0717 23.3687 15.1815 24.0251 14.5251C24.6815 13.8687 25.5717 13.5 26.5 13.5Z" fill="#A190FF"/>
</svg>
