<svg width="43" height="43" viewBox="0 0 43 43" fill="none" xmlns="http://www.w3.org/2000/svg">
<rect width="43" height="43" rx="7" fill="#A190FF"/>
<path fill-rule="evenodd" clip-rule="evenodd" d="M13 14C13 13.2044 13.3161 12.4413 13.8787 11.8787C14.4413 11.3161 15.2044 11 16 11H28C28.7956 11 29.5587 11.3161 30.1213 11.8787C30.6839 12.4413 31 13.2044 31 14V30C31 30.7956 30.6839 31.5587 30.1213 32.1213C29.5587 32.6839 28.7956 33 28 33H16C15.2044 33 14.4413 32.6839 13.8787 32.1213C13.3161 31.5587 13 30.7956 13 30V14ZM16 13H28C28.2652 13 28.5196 13.1054 28.7071 13.2929C28.8946 13.4804 29 13.7348 29 14V30C29 30.2652 28.8946 30.5196 28.7071 30.7071C28.5196 30.8946 28.2652 31 28 31H16C15.7348 31 15.4804 30.8946 15.2929 30.7071C15.1054 30.5196 15 30.2652 15 30V14C15 13.7348 15.1054 13.4804 15.2929 13.2929C15.4804 13.1054 15.7348 13 16 13Z" fill="#FEFEFE"/>
<path fill-rule="evenodd" clip-rule="evenodd" d="M25.3078 19.1747C25.3078 20.9369 23.836 22.3499 21.9991 22.3499C20.1628 22.3499 18.6903 20.9369 18.6903 19.1747C18.6903 17.4124 20.1628 16 21.9991 16C23.836 16 25.3078 17.4124 25.3078 19.1747ZM22 27.9998C19.289 27.9998 17 27.5768 17 25.9447C17 24.3121 19.3034 23.9041 22 23.9041C24.7116 23.9041 27 24.3271 27 25.9591C27 27.5918 24.6966 27.9998 22 27.9998Z" fill="#FEFEFE"/>
</svg>
