<svg width="93" height="93" viewBox="0 0 93 93" fill="none" xmlns="http://www.w3.org/2000/svg">
<g filter="url(#filter0_d)">
<circle cx="46.5" cy="32.5" r="26.5" fill="#FEFEFE"/>
</g>
<path d="M48.843 45.9999C48.5655 46.0008 48.2913 45.9396 48.0406 45.8207C47.7899 45.7018 47.569 45.5282 47.3942 45.3128L38.4226 34.171C38.1494 33.8387 38 33.4219 38 32.9918C38 32.5617 38.1494 32.1449 38.4226 31.8126L47.7099 20.6708C48.0252 20.2916 48.4783 20.0531 48.9695 20.0079C49.4606 19.9626 49.9497 20.1142 50.329 20.4294C50.7083 20.7446 50.9469 21.1976 50.9921 21.6886C51.0374 22.1796 50.8857 22.6685 50.5705 23.0478L42.2675 33.0011L50.2918 42.9544C50.519 43.227 50.6633 43.5589 50.7076 43.9109C50.752 44.2629 50.6945 44.6202 50.5421 44.9406C50.3897 45.261 50.1487 45.531 49.8476 45.7187C49.5464 45.9065 49.1978 46.004 48.843 45.9999Z" fill="black"/>
<defs>
<filter id="filter0_d" x="0" y="0" width="93" height="93" filterUnits="userSpaceOnUse" color-interpolation-filters="sRGB">
<feFlood flood-opacity="0" result="BackgroundImageFix"/>
<feColorMatrix in="SourceAlpha" type="matrix" values="0 0 0 0 0 0 0 0 0 0 0 0 0 0 0 0 0 0 127 0" result="hardAlpha"/>
<feOffset dy="14"/>
<feGaussianBlur stdDeviation="10"/>
<feComposite in2="hardAlpha" operator="out"/>
<feColorMatrix type="matrix" values="0 0 0 0 0 0 0 0 0 0 0 0 0 0 0 0 0 0 0.14 0"/>
<feBlend mode="normal" in2="BackgroundImageFix" result="effect1_dropShadow"/>
<feBlend mode="normal" in="SourceGraphic" in2="effect1_dropShadow" result="shape"/>
</filter>
</defs>
</svg>
