<svg width="42" height="43" viewBox="0 0 42 43" fill="none" xmlns="http://www.w3.org/2000/svg">
<circle cx="21" cy="21.2588" r="20" stroke="white" stroke-width="2"/>
<path d="M30.551 22.148C30.5056 22.148 30.4645 22.1263 30.4385 22.0874L30.4104 22.0441C30.3925 22.0168 30.3853 21.9839 30.3901 21.9516C30.3949 21.9193 30.4113 21.8899 30.4364 21.8689L33.4565 19.3376C33.4868 19.3117 33.5193 19.3052 33.5431 19.3052C33.5885 19.3052 33.6318 19.3268 33.6556 19.3658L34.296 20.3436C34.3176 20.3761 34.3241 20.4172 34.3133 20.4561C34.3025 20.4929 34.2743 20.5254 34.2397 20.5405L30.6051 22.1371C30.5878 22.1436 30.5683 22.148 30.551 22.148Z" fill="white"/>
<path d="M33.6338 27.6021C33.6273 27.6021 33.6186 27.5999 33.61 27.5935L30.4383 24.9346C30.4317 24.9288 30.4273 24.9207 30.4261 24.912C30.4249 24.9032 30.427 24.8943 30.4319 24.887L30.5552 24.7009C30.5582 24.6956 30.5627 24.6912 30.568 24.6882C30.5733 24.6851 30.5793 24.6835 30.5855 24.6836L34.4126 26.3624C34.4256 26.3689 34.4299 26.3797 34.4321 26.3841C34.4343 26.3906 34.4364 26.4014 34.4278 26.4144L33.6641 27.5826C33.6554 27.5999 33.6403 27.6021 33.6338 27.6021Z" fill="white"/>
<path d="M30.6019 23.5043C30.5736 23.502 30.5473 23.4892 30.5281 23.4683C30.5088 23.4475 30.4981 23.4202 30.498 23.3918V23.3205C30.498 23.2664 30.537 23.2188 30.5911 23.2101L34.5762 22.4702H34.5805C34.6605 22.4702 34.7081 22.52 34.7103 22.5806L34.7233 23.6904C34.7235 23.7052 34.7207 23.7199 34.7151 23.7337C34.7095 23.7474 34.7012 23.7599 34.6907 23.7703C34.6802 23.7808 34.6678 23.7891 34.654 23.7947C34.6403 23.8003 34.6256 23.8031 34.6108 23.8029L30.6019 23.5043Z" fill="white"/>
<path d="M21.7417 33.9846C18.86 33.9846 17.3823 33.7553 16.9496 33.5671C17.0859 33.4265 17.3088 33.195 17.616 32.7645C17.828 32.4659 17.9448 32.2647 17.9946 31.9856C18.0032 31.9358 18.0768 31.4794 17.8345 30.9536C17.2979 29.7897 14.8251 28.6409 14.546 28.5133C14.2626 28.3813 11.6989 27.1503 10.0915 25.0431C8.6441 23.1457 8.38665 21.0342 8.27631 20.132C8.16814 19.2277 7.96478 17.5488 8.69819 15.5606C9.14603 14.3491 9.77559 13.4902 10.1131 13.0856C11.9737 10.8443 14.5936 10.2774 15.578 10.0654C16.346 9.89883 17.1249 9.81445 17.8929 9.81445C18.3148 9.81445 18.7388 9.84041 19.1585 9.89017L19.1823 9.89234C20.2013 9.93777 20.9867 10.0481 21.3523 10.1282C21.5232 10.1671 21.8001 10.2147 22.1181 10.2709C22.7023 10.3726 23.4292 10.5003 24.0025 10.6474C24.3811 10.7447 24.6299 10.9005 24.658 10.9719C24.6667 11.0173 24.604 11.2012 24.3443 11.4608L24.0869 11.7183L24.3963 11.9628C24.4071 11.9758 24.4201 11.9909 24.4525 12.0255C24.5282 12.112 24.697 12.3068 25.1427 12.8108C25.1556 12.826 26.5251 14.3837 26.841 15.2664C26.8691 15.3464 26.8864 15.433 26.8907 15.4676V15.7813C26.8907 16.5212 26.8821 16.8219 26.8799 16.9647C26.8778 17.0837 26.8756 17.1183 26.8886 17.1962C27.0508 18.1005 27.8448 18.8036 28.3403 19.0568C28.4181 19.0957 28.5479 19.1628 28.6994 19.2861C28.8357 19.4008 29.0412 19.5717 29.0434 19.6647C29.0391 19.6733 29.0044 19.7123 28.9806 19.7426C28.8876 19.8529 28.7448 20.0195 28.6345 20.3267C28.5631 20.5258 28.4766 20.7637 28.5847 21.0298C28.6367 21.1575 28.7059 21.2332 28.7621 21.2959C28.8011 21.3392 28.8314 21.3717 28.866 21.4322L28.8811 21.456C28.9287 21.5253 28.9504 21.5858 28.9504 21.6399C28.9439 21.8455 28.4852 22.1051 27.9552 22.4036C27.8383 22.4685 27.7172 22.5378 27.5895 22.6113C26.127 23.4572 25.4282 23.8899 25.5516 24.4503C25.6338 24.8289 26.06 24.9479 26.4018 25.0452C26.6268 25.108 26.854 25.1383 27.0941 25.1383C27.3213 25.1383 27.5679 25.1123 27.9162 25.0517C28.3403 24.9782 28.6886 24.8938 28.9698 24.8267C29.1754 24.777 29.3592 24.7315 29.4826 24.7164C29.4804 24.7553 29.4717 24.8051 29.4588 24.8721C29.4436 24.9479 29.4198 25.0063 29.383 25.0928C29.3181 25.2486 29.2489 25.3546 29.2165 25.4044L29.2035 25.426C28.9979 25.7592 29.0953 26.1508 29.1818 26.4969C29.2035 26.5834 29.2251 26.67 29.2424 26.7544C29.3679 27.3947 29.3095 27.8988 29.0802 28.1758C28.8595 28.444 28.4419 28.5587 28.1088 28.6517C28.0071 28.6798 27.9292 28.695 27.8427 28.7123C27.7258 28.7361 27.5917 28.7621 27.3818 28.8183C27.0984 28.894 26.8193 28.9871 26.5532 29.0931C26.4278 29.1342 26.0946 29.2445 25.8004 29.5279C25.24 30.0666 25.2335 30.8411 25.2314 31.1721C25.2292 31.4534 25.2638 31.6546 25.2898 31.8017C25.333 32.0462 25.3936 32.269 25.4758 32.481C25.5278 32.613 25.558 32.6844 25.5862 32.7471C25.61 32.8012 25.6316 32.8488 25.6662 32.9397C25.7419 33.1452 25.8004 33.3767 25.809 33.4697C25.5645 33.725 23.9117 33.9608 22.2155 33.9803C22.0597 33.9846 21.9018 33.9846 21.7417 33.9846Z" fill="white"/>
</svg>
