<svg width="13" height="27" viewBox="0 0 13 27" fill="none" xmlns="http://www.w3.org/2000/svg">
<path d="M10.843 26.2587C10.5655 26.2596 10.2913 26.1984 10.0406 26.0795C9.78988 25.9606 9.56899 25.787 9.39417 25.5716L0.422554 14.4298C0.149353 14.0975 0 13.6807 0 13.2506C0 12.8205 0.149353 12.4037 0.422554 12.0714L9.70994 0.929623C10.0252 0.550399 10.4783 0.311919 10.9695 0.266647C11.4606 0.221374 11.9497 0.373018 12.329 0.688217C12.7083 1.00342 12.9469 1.45635 12.9921 1.94738C13.0374 2.43841 12.8857 2.92732 12.5705 3.30654L4.26753 13.2599L12.2918 23.2132C12.519 23.4858 12.6633 23.8177 12.7076 24.1697C12.752 24.5217 12.6945 24.879 12.5421 25.1994C12.3897 25.5198 12.1487 25.7898 11.8476 25.9775C11.5464 26.1652 11.1978 26.2628 10.843 26.2587Z" fill="white"/>
</svg>
