<svg width="42" height="43" viewBox="0 0 42 43" fill="none" xmlns="http://www.w3.org/2000/svg">
<circle cx="21" cy="21.2588" r="20" stroke="white" stroke-width="2"/>
<path d="M9.00391 15.5088C9.00391 14.5142 9.39899 13.5604 10.1023 12.8571C10.8055 12.1539 11.7593 11.7588 12.7539 11.7588H29.2499C30.2445 11.7588 31.1983 12.1539 31.9016 12.8571C32.6048 13.5604 32.9999 14.5142 32.9999 15.5088V28.0088C32.9999 29.0034 32.6048 29.9572 31.9016 30.6604C31.1983 31.3637 30.2445 31.7588 29.2499 31.7588H12.7549C11.7603 31.7588 10.8065 31.3637 10.1033 30.6604C9.39999 29.9572 9.00491 29.0034 9.00491 28.0088V15.5088H9.00391ZM14.7279 16.7588C14.5348 16.7588 14.3497 16.8355 14.2131 16.972C14.0766 17.1085 13.9999 17.2937 13.9999 17.4868V17.5308C13.9999 17.9328 14.3259 18.2588 14.7279 18.2588H20.2719C20.465 18.2588 20.6502 18.1821 20.7867 18.0456C20.9232 17.909 20.9999 17.7239 20.9999 17.5308V17.4868C20.9999 17.2937 20.9232 17.1085 20.7867 16.972C20.6502 16.8355 20.465 16.7588 20.2719 16.7588H14.7279ZM13.9999 21.4868V21.5308C13.9999 21.9328 14.3259 22.2588 14.7279 22.2588H25.2719C25.465 22.2588 25.6502 22.1821 25.7867 22.0456C25.9232 21.909 25.9999 21.7239 25.9999 21.5308V21.4868C25.9999 21.2937 25.9232 21.1085 25.7867 20.972C25.6502 20.8355 25.465 20.7588 25.2719 20.7588H14.7279C14.5348 20.7588 14.3497 20.8355 14.2131 20.972C14.0766 21.1085 13.9999 21.2937 13.9999 21.4868V21.4868ZM14.7279 24.7588C14.6323 24.7588 14.5376 24.7776 14.4493 24.8142C14.361 24.8508 14.2807 24.9044 14.2131 24.972C14.1455 25.0396 14.0919 25.1199 14.0553 25.2082C14.0187 25.2965 13.9999 25.3912 13.9999 25.4868V25.5308C13.9999 25.9328 14.3259 26.2588 14.7279 26.2588H22.2719C22.465 26.2588 22.6502 26.1821 22.7867 26.0456C22.9232 25.909 22.9999 25.7239 22.9999 25.5308V25.4868C22.9999 25.3912 22.9811 25.2965 22.9445 25.2082C22.9079 25.1199 22.8543 25.0396 22.7867 24.972C22.7191 24.9044 22.6388 24.8508 22.5505 24.8142C22.4622 24.7776 22.3675 24.7588 22.2719 24.7588H14.7279Z" fill="white"/>
</svg>
